G04 #@! TF.GenerationSoftware,KiCad,Pcbnew,(5.1.2)-1*
G04 #@! TF.CreationDate,2021-03-05T10:29:45+00:00*
G04 #@! TF.ProjectId,BLDC_4,424c4443-5f34-42e6-9b69-6361645f7063,A*
G04 #@! TF.SameCoordinates,Original*
G04 #@! TF.FileFunction,Soldermask,Bot*
G04 #@! TF.FilePolarity,Negative*
%FSLAX46Y46*%
G04 Gerber Fmt 4.6, Leading zero omitted, Abs format (unit mm)*
G04 Created by KiCad (PCBNEW (5.1.2)-1) date 2021-03-05 10:29:45*
%MOMM*%
%LPD*%
G04 APERTURE LIST*
%ADD10O,1.100000X2.200000*%
%ADD11O,1.100000X1.800000*%
%ADD12O,1.700000X1.700000*%
%ADD13R,1.700000X1.700000*%
%ADD14R,3.500120X1.800860*%
%ADD15C,1.300480*%
%ADD16R,2.540000X5.588000*%
%ADD17R,2.540000X0.889000*%
%ADD18R,2.540000X1.699260*%
%ADD19R,1.800860X1.198880*%
%ADD20O,1.524000X3.048000*%
%ADD21C,4.064000*%
%ADD22R,2.499360X1.950720*%
%ADD23R,5.499100X1.849120*%
%ADD24R,0.797560X0.797560*%
%ADD25R,10.800080X8.150860*%
%ADD26R,0.899160X3.200400*%
%ADD27R,1.524000X2.032000*%
%ADD28R,1.143000X0.635000*%
%ADD29R,0.635000X1.143000*%
%ADD30R,2.032000X3.657600*%
%ADD31R,2.032000X1.016000*%
%ADD32R,1.300000X1.300000*%
%ADD33C,1.300000*%
%ADD34C,0.635000*%
%ADD35C,0.150000*%
%ADD36C,0.254000*%
G04 APERTURE END LIST*
D10*
X80463500Y-127958500D03*
D11*
X82613500Y-130758500D03*
X82613500Y-125158500D03*
D12*
X90805000Y-137160000D03*
X88265000Y-137160000D03*
X85725000Y-137160000D03*
X83185000Y-137160000D03*
D13*
X80645000Y-137160000D03*
X80645000Y-119888000D03*
D12*
X80645000Y-117348000D03*
X80645000Y-114808000D03*
X80645000Y-112268000D03*
D13*
X80645000Y-105918000D03*
D12*
X83185000Y-105918000D03*
X80645000Y-103378000D03*
X83185000Y-103378000D03*
D13*
X95885000Y-105918000D03*
D12*
X98425000Y-105918000D03*
X95885000Y-103378000D03*
X98425000Y-103378000D03*
D13*
X108331000Y-78105000D03*
D12*
X110871000Y-78105000D03*
X108331000Y-75565000D03*
X110871000Y-75565000D03*
D13*
X83820000Y-78105000D03*
D12*
X86360000Y-78105000D03*
X83820000Y-75565000D03*
X86360000Y-75565000D03*
X98933000Y-75565000D03*
X96393000Y-75565000D03*
X98933000Y-78105000D03*
D13*
X96393000Y-78105000D03*
D14*
X89494360Y-113030000D03*
X84495640Y-113030000D03*
D15*
X114300000Y-126253240D03*
X114300000Y-128254760D03*
X114300000Y-130253740D03*
X114300000Y-132255260D03*
X114300000Y-124254260D03*
X114300000Y-122252740D03*
D16*
X102362000Y-99822000D03*
X107442000Y-99822000D03*
D17*
X102362000Y-103949500D03*
X107442000Y-103949500D03*
D16*
X87630000Y-99822000D03*
X92710000Y-99822000D03*
D17*
X87630000Y-103949500D03*
X92710000Y-103949500D03*
D18*
X108633260Y-133096000D03*
X112092740Y-133096000D03*
D19*
X97033080Y-134853680D03*
X97033080Y-132354320D03*
X100832920Y-132354320D03*
X100832920Y-134853680D03*
D20*
X108712000Y-136398000D03*
X111252000Y-136398000D03*
X113792000Y-136398000D03*
D21*
X92000000Y-77000000D03*
X103500000Y-77000000D03*
D22*
X80391000Y-125222000D03*
X80391000Y-122174000D03*
X83000000Y-116776000D03*
X83000000Y-119824000D03*
D23*
X110490000Y-120431560D03*
X110490000Y-115280440D03*
D24*
X111887000Y-123939300D03*
X111887000Y-122440700D03*
X110450000Y-123949300D03*
X110450000Y-122450700D03*
X109050000Y-123949300D03*
X109050000Y-122450700D03*
D25*
X110744000Y-84142580D03*
D26*
X114554000Y-94744540D03*
X113284000Y-94744540D03*
X112014000Y-94744540D03*
X109474000Y-94744540D03*
X108204000Y-94744540D03*
X106934000Y-94744540D03*
D25*
X97917000Y-84142580D03*
D26*
X101727000Y-94744540D03*
X100457000Y-94744540D03*
X99187000Y-94744540D03*
X96647000Y-94744540D03*
X95377000Y-94744540D03*
X94107000Y-94744540D03*
D25*
X84836000Y-84142580D03*
D26*
X88646000Y-94744540D03*
X87376000Y-94744540D03*
X86106000Y-94744540D03*
X83566000Y-94744540D03*
X82296000Y-94744540D03*
X81026000Y-94744540D03*
D21*
X114000000Y-142000000D03*
X81500000Y-142000000D03*
D27*
X102549000Y-116300000D03*
X105851000Y-116300000D03*
X105537000Y-111760000D03*
X108839000Y-111760000D03*
X92329000Y-112268000D03*
X95631000Y-112268000D03*
X94488000Y-116205000D03*
X97790000Y-116205000D03*
X94488000Y-118618000D03*
X97790000Y-118618000D03*
D28*
X85200000Y-125338000D03*
X85200000Y-126862000D03*
X85200000Y-129762000D03*
X85200000Y-128238000D03*
X106426000Y-131572000D03*
X106426000Y-133096000D03*
X80327500Y-130175000D03*
X80327500Y-131699000D03*
X83312000Y-135128000D03*
X83312000Y-133604000D03*
X86360000Y-135128000D03*
X86360000Y-133604000D03*
X89408000Y-135128000D03*
X89408000Y-133604000D03*
X92456000Y-135128000D03*
X92456000Y-133604000D03*
X90932000Y-135128000D03*
X90932000Y-133604000D03*
X87884000Y-135128000D03*
X87884000Y-133604000D03*
X84836000Y-135128000D03*
X84836000Y-133604000D03*
D29*
X93472000Y-121666000D03*
X94996000Y-121666000D03*
D28*
X109100000Y-125238000D03*
X109100000Y-126762000D03*
D29*
X87503000Y-128524000D03*
X89027000Y-128524000D03*
X93462000Y-128050000D03*
X91938000Y-128050000D03*
X87503000Y-127000000D03*
X89027000Y-127000000D03*
X93462000Y-126550000D03*
X91938000Y-126550000D03*
X114808000Y-103124000D03*
X113284000Y-103124000D03*
D28*
X104394000Y-91059000D03*
X104394000Y-89535000D03*
D29*
X87488000Y-125450000D03*
X89012000Y-125450000D03*
X93462000Y-125050000D03*
X91938000Y-125050000D03*
D28*
X104394000Y-94742000D03*
X104394000Y-96266000D03*
X104394000Y-92202000D03*
X104394000Y-93726000D03*
X112100000Y-125238000D03*
X112100000Y-126762000D03*
X110600000Y-125238000D03*
X110600000Y-126762000D03*
X91186000Y-94234000D03*
X91186000Y-95758000D03*
X91186000Y-91440000D03*
X91186000Y-92964000D03*
D29*
X83312000Y-132334000D03*
X81788000Y-132334000D03*
D30*
X92202000Y-118364000D03*
D31*
X85598000Y-118364000D03*
X85598000Y-116078000D03*
X85598000Y-120650000D03*
D32*
X114300000Y-118018560D03*
D33*
X114300000Y-114015520D03*
X114300000Y-116017040D03*
X114300000Y-112016540D03*
X114300000Y-110015020D03*
X114300000Y-108013500D03*
X114300000Y-106014520D03*
D29*
X100203000Y-119888000D03*
X101727000Y-119888000D03*
D28*
X107442000Y-123571000D03*
X107442000Y-122047000D03*
D29*
X101092000Y-130810000D03*
X99568000Y-130810000D03*
X95250000Y-135763000D03*
X93726000Y-135763000D03*
X103251000Y-133858000D03*
X104775000Y-133858000D03*
D28*
X85090000Y-123698000D03*
X85090000Y-122174000D03*
X105918000Y-123571000D03*
X105918000Y-122047000D03*
D29*
X100203000Y-121285000D03*
X101727000Y-121285000D03*
D28*
X97663000Y-125603000D03*
X97663000Y-124079000D03*
X107600000Y-126762000D03*
X107600000Y-125238000D03*
D29*
X96774000Y-130810000D03*
X98298000Y-130810000D03*
D28*
X96012000Y-124079000D03*
X96012000Y-125603000D03*
X86350000Y-132562000D03*
X86350000Y-131038000D03*
X90900000Y-132562000D03*
X90900000Y-131038000D03*
X92456000Y-132588000D03*
X92456000Y-131064000D03*
X81788000Y-133604000D03*
X81788000Y-135128000D03*
D34*
X112552815Y-128747185D03*
D35*
G36*
X112373210Y-128118567D02*
G01*
X113181433Y-128926790D01*
X112732420Y-129375803D01*
X111924197Y-128567580D01*
X112373210Y-128118567D01*
X112373210Y-128118567D01*
G37*
D34*
X111475185Y-129824815D03*
D35*
G36*
X111295580Y-129196197D02*
G01*
X112103803Y-130004420D01*
X111654790Y-130453433D01*
X110846567Y-129645210D01*
X111295580Y-129196197D01*
X111295580Y-129196197D01*
G37*
D28*
X83693000Y-127000000D03*
X83693000Y-128524000D03*
D36*
G36*
X87503000Y-96329500D02*
G01*
X87505440Y-96354276D01*
X87512667Y-96378101D01*
X87524403Y-96400057D01*
X87540197Y-96419303D01*
X88646000Y-97525106D01*
X88646000Y-102362000D01*
X85471000Y-102362000D01*
X85471000Y-101727000D01*
X85468560Y-101702224D01*
X85461333Y-101678399D01*
X85449597Y-101656443D01*
X85433803Y-101637197D01*
X85414557Y-101621403D01*
X85392601Y-101609667D01*
X85375544Y-101603980D01*
X80518000Y-100358456D01*
X80518000Y-94234000D01*
X87503000Y-94234000D01*
X87503000Y-96329500D01*
X87503000Y-96329500D01*
G37*
X87503000Y-96329500D02*
X87505440Y-96354276D01*
X87512667Y-96378101D01*
X87524403Y-96400057D01*
X87540197Y-96419303D01*
X88646000Y-97525106D01*
X88646000Y-102362000D01*
X85471000Y-102362000D01*
X85471000Y-101727000D01*
X85468560Y-101702224D01*
X85461333Y-101678399D01*
X85449597Y-101656443D01*
X85433803Y-101637197D01*
X85414557Y-101621403D01*
X85392601Y-101609667D01*
X85375544Y-101603980D01*
X80518000Y-100358456D01*
X80518000Y-94234000D01*
X87503000Y-94234000D01*
X87503000Y-96329500D01*
G36*
X113411000Y-101293394D02*
G01*
X112215394Y-102489000D01*
X106680000Y-102489000D01*
X106680000Y-100711000D01*
X106679223Y-100696975D01*
X106426000Y-98417968D01*
X106426000Y-94234000D01*
X113411000Y-94234000D01*
X113411000Y-101293394D01*
X113411000Y-101293394D01*
G37*
X113411000Y-101293394D02*
X112215394Y-102489000D01*
X106680000Y-102489000D01*
X106680000Y-100711000D01*
X106679223Y-100696975D01*
X106426000Y-98417968D01*
X106426000Y-94234000D01*
X113411000Y-94234000D01*
X113411000Y-101293394D01*
G36*
X100711000Y-97155000D02*
G01*
X100713440Y-97179776D01*
X100720667Y-97203601D01*
X100732403Y-97225557D01*
X100748197Y-97244803D01*
X100767443Y-97260597D01*
X100789399Y-97272333D01*
X100813224Y-97279560D01*
X100838000Y-97282000D01*
X101219000Y-97282000D01*
X101219000Y-101600000D01*
X92837000Y-101600000D01*
X92837000Y-94234000D01*
X100711000Y-94234000D01*
X100711000Y-97155000D01*
X100711000Y-97155000D01*
G37*
X100711000Y-97155000D02*
X100713440Y-97179776D01*
X100720667Y-97203601D01*
X100732403Y-97225557D01*
X100748197Y-97244803D01*
X100767443Y-97260597D01*
X100789399Y-97272333D01*
X100813224Y-97279560D01*
X100838000Y-97282000D01*
X101219000Y-97282000D01*
X101219000Y-101600000D01*
X92837000Y-101600000D01*
X92837000Y-94234000D01*
X100711000Y-94234000D01*
X100711000Y-97155000D01*
M02*
