G04 #@! TF.GenerationSoftware,KiCad,Pcbnew,(5.1.2)-1*
G04 #@! TF.CreationDate,2021-03-05T10:29:45+00:00*
G04 #@! TF.ProjectId,BLDC_4,424c4443-5f34-42e6-9b69-6361645f7063,A*
G04 #@! TF.SameCoordinates,Original*
G04 #@! TF.FileFunction,Soldermask,Top*
G04 #@! TF.FilePolarity,Negative*
%FSLAX46Y46*%
G04 Gerber Fmt 4.6, Leading zero omitted, Abs format (unit mm)*
G04 Created by KiCad (PCBNEW (5.1.2)-1) date 2021-03-05 10:29:45*
%MOMM*%
%LPD*%
G04 APERTURE LIST*
%ADD10O,1.100000X2.200000*%
%ADD11O,1.100000X1.800000*%
%ADD12R,1.500000X0.450000*%
%ADD13O,1.700000X1.700000*%
%ADD14R,1.700000X1.700000*%
%ADD15C,1.300480*%
%ADD16R,10.800080X8.150860*%
%ADD17R,0.899160X3.200400*%
%ADD18O,1.524000X3.048000*%
%ADD19C,4.064000*%
%ADD20R,1.849120X5.499100*%
%ADD21R,2.997200X7.498080*%
%ADD22R,5.000000X4.000000*%
%ADD23R,0.300000X1.300480*%
%ADD24R,1.300480X0.300000*%
%ADD25R,0.299720X1.501140*%
%ADD26R,7.000240X3.599180*%
%ADD27R,1.524000X2.032000*%
%ADD28R,2.032000X1.524000*%
%ADD29R,0.635000X1.143000*%
%ADD30R,1.143000X0.635000*%
%ADD31R,1.399540X0.599440*%
%ADD32R,1.300000X1.300000*%
%ADD33C,1.300000*%
%ADD34C,0.635000*%
%ADD35C,0.150000*%
%ADD36C,0.254000*%
G04 APERTURE END LIST*
D10*
X80463500Y-127958500D03*
D11*
X82613500Y-130758500D03*
X82613500Y-125158500D03*
D12*
X82363500Y-126658500D03*
X82363500Y-129258500D03*
X82363500Y-127308500D03*
X82363500Y-128608500D03*
X82363500Y-127958500D03*
D13*
X90805000Y-137160000D03*
X88265000Y-137160000D03*
X85725000Y-137160000D03*
X83185000Y-137160000D03*
D14*
X80645000Y-137160000D03*
X80645000Y-119888000D03*
D13*
X80645000Y-117348000D03*
X80645000Y-114808000D03*
X80645000Y-112268000D03*
D14*
X80645000Y-105918000D03*
D13*
X83185000Y-105918000D03*
X80645000Y-103378000D03*
X83185000Y-103378000D03*
D14*
X95885000Y-105918000D03*
D13*
X98425000Y-105918000D03*
X95885000Y-103378000D03*
X98425000Y-103378000D03*
D14*
X108331000Y-78105000D03*
D13*
X110871000Y-78105000D03*
X108331000Y-75565000D03*
X110871000Y-75565000D03*
D14*
X83820000Y-78105000D03*
D13*
X86360000Y-78105000D03*
X83820000Y-75565000D03*
X86360000Y-75565000D03*
X98933000Y-75565000D03*
X96393000Y-75565000D03*
X98933000Y-78105000D03*
D14*
X96393000Y-78105000D03*
D15*
X114300000Y-126253240D03*
X114300000Y-128254760D03*
X114300000Y-130253740D03*
X114300000Y-132255260D03*
X114300000Y-124254260D03*
X114300000Y-122252740D03*
D16*
X84709000Y-92006420D03*
D17*
X88519000Y-81404460D03*
X87249000Y-81404460D03*
X85979000Y-81404460D03*
X83439000Y-81404460D03*
X82169000Y-81404460D03*
X80899000Y-81404460D03*
D18*
X108712000Y-136398000D03*
X111252000Y-136398000D03*
X113792000Y-136398000D03*
D19*
X92000000Y-77000000D03*
X103500000Y-77000000D03*
D20*
X93472000Y-99822000D03*
X88320880Y-99822000D03*
D21*
X91399360Y-115062000D03*
X86400640Y-115062000D03*
D22*
X85090000Y-76962000D03*
X97790000Y-76962000D03*
X109474000Y-76962000D03*
D16*
X110744000Y-92006420D03*
D17*
X114554000Y-81404460D03*
X113284000Y-81404460D03*
X112014000Y-81404460D03*
X109474000Y-81404460D03*
X108204000Y-81404460D03*
X106934000Y-81404460D03*
D16*
X97917000Y-92006420D03*
D17*
X101727000Y-81404460D03*
X100457000Y-81404460D03*
X99187000Y-81404460D03*
X96647000Y-81404460D03*
X95377000Y-81404460D03*
X94107000Y-81404460D03*
D23*
X98587560Y-136814560D03*
X99087940Y-136814560D03*
X99588320Y-136814560D03*
X100088700Y-136814560D03*
X100589080Y-136814560D03*
X97088960Y-136814560D03*
X97586800Y-136814560D03*
X98087180Y-136814560D03*
D24*
X106588560Y-134813040D03*
X106588560Y-134315200D03*
X106588560Y-133814820D03*
X106588560Y-133314440D03*
X106588560Y-132814060D03*
X106588560Y-132313680D03*
X106588560Y-131813300D03*
X106588560Y-131312920D03*
D23*
X104587040Y-125313440D03*
X104089200Y-125313440D03*
X103588820Y-125313440D03*
X103088440Y-125313440D03*
X102588060Y-125313440D03*
X102087680Y-125313440D03*
X101587300Y-125313440D03*
X101086920Y-125313440D03*
D24*
X95087440Y-127314960D03*
X95087440Y-127812800D03*
X95087440Y-128313180D03*
X95087440Y-128813560D03*
X95087440Y-129313940D03*
X95087440Y-129814320D03*
X95087440Y-130314700D03*
X95087440Y-130815080D03*
D23*
X101086920Y-136814560D03*
X101587300Y-136814560D03*
X102087680Y-136814560D03*
D24*
X106588560Y-130815080D03*
X106588560Y-130314700D03*
X106588560Y-129814320D03*
D23*
X100589080Y-125313440D03*
X100088700Y-125313440D03*
X99588320Y-125313440D03*
D24*
X95087440Y-131312920D03*
X95087440Y-131813300D03*
X95087440Y-132313680D03*
D23*
X102588060Y-136814560D03*
X103088440Y-136814560D03*
X103588820Y-136814560D03*
X104089200Y-136814560D03*
X104587040Y-136814560D03*
D24*
X106588560Y-129313940D03*
X106588560Y-128813560D03*
X106588560Y-128313180D03*
X106588560Y-127812800D03*
X106588560Y-127314960D03*
D23*
X99087940Y-125313440D03*
X98587560Y-125313440D03*
X98087180Y-125313440D03*
X97586800Y-125313440D03*
X97088960Y-125313440D03*
D24*
X95087440Y-132814060D03*
X95087440Y-133314440D03*
X95087440Y-133814820D03*
X95087440Y-134315200D03*
X95087440Y-134813040D03*
D25*
X104157780Y-111823500D03*
X103657400Y-111823500D03*
X103157020Y-111823500D03*
X102656640Y-111823500D03*
X102156260Y-111823500D03*
X101658420Y-111823500D03*
X101158040Y-111823500D03*
X100657660Y-111823500D03*
X100157280Y-111823500D03*
X99656900Y-111823500D03*
X99156520Y-111823500D03*
X108656120Y-111823500D03*
X108158280Y-111823500D03*
X107657900Y-111823500D03*
X103157020Y-119824500D03*
X106657140Y-111823500D03*
X106156760Y-111823500D03*
X105656380Y-111823500D03*
X105158540Y-111823500D03*
X104658160Y-111823500D03*
X100657660Y-119824500D03*
X101158040Y-119824500D03*
X101658420Y-119824500D03*
X102156260Y-119824500D03*
X102656640Y-119824500D03*
X107157520Y-111823500D03*
X103657400Y-119824500D03*
X104157780Y-119824500D03*
X104658160Y-119824500D03*
X105158540Y-119824500D03*
X105656380Y-119824500D03*
X106156760Y-119824500D03*
X106657140Y-119824500D03*
X95158560Y-119824500D03*
X95656400Y-119824500D03*
X96156780Y-119824500D03*
X96657160Y-119824500D03*
X97157540Y-119824500D03*
X97657920Y-119824500D03*
X98158300Y-119824500D03*
X98656140Y-119824500D03*
X99156520Y-119824500D03*
X99656900Y-119824500D03*
X100157280Y-119824500D03*
X107157520Y-119824500D03*
X107657900Y-119824500D03*
X108158280Y-119824500D03*
X108656120Y-119824500D03*
X98656140Y-111823500D03*
X98158300Y-111823500D03*
X97657920Y-111823500D03*
X97157540Y-111823500D03*
X96657160Y-111823500D03*
X96156780Y-111823500D03*
X95656400Y-111823500D03*
X95158560Y-111823500D03*
D26*
X101854000Y-115824000D03*
D19*
X114000000Y-142000000D03*
X81500000Y-142000000D03*
D27*
X97409000Y-100711000D03*
X100711000Y-100711000D03*
X97409000Y-98171000D03*
X100711000Y-98171000D03*
D28*
X110998000Y-117348000D03*
X110998000Y-114046000D03*
D29*
X114300000Y-102870000D03*
X115824000Y-102870000D03*
D30*
X111760000Y-129794000D03*
X111760000Y-128270000D03*
D29*
X86360000Y-120396000D03*
X87884000Y-120396000D03*
X88900000Y-120396000D03*
X90424000Y-120396000D03*
X94234000Y-123698000D03*
X95758000Y-123698000D03*
D30*
X97028000Y-121920000D03*
X97028000Y-123444000D03*
D29*
X92329000Y-110236000D03*
X93853000Y-110236000D03*
D30*
X114808000Y-78740000D03*
X114808000Y-77216000D03*
X104394000Y-83312000D03*
X104394000Y-84836000D03*
X91440000Y-82169000D03*
X91440000Y-83693000D03*
X106807000Y-105918000D03*
X106807000Y-107442000D03*
X108331000Y-105918000D03*
X108331000Y-107442000D03*
X109855000Y-105918000D03*
X109855000Y-107442000D03*
X111379000Y-105918000D03*
X111379000Y-107442000D03*
D29*
X89154000Y-125984000D03*
X87630000Y-125984000D03*
X89162000Y-127635000D03*
X87638000Y-127635000D03*
X86762000Y-122500000D03*
X85238000Y-122500000D03*
D31*
X86133000Y-132955000D03*
X91467000Y-132955000D03*
X86133000Y-131685000D03*
X86133000Y-130415000D03*
X86133000Y-129145000D03*
X91467000Y-131685000D03*
X91467000Y-130415000D03*
X91467000Y-129145000D03*
D32*
X114300000Y-118018560D03*
D33*
X114300000Y-114015520D03*
X114300000Y-116017040D03*
X114300000Y-112016540D03*
X114300000Y-110015020D03*
X114300000Y-108013500D03*
X114300000Y-106014520D03*
D30*
X93000000Y-130188000D03*
X93000000Y-131712000D03*
X111760000Y-125730000D03*
X111760000Y-127254000D03*
D29*
X109728000Y-108712000D03*
X111252000Y-108712000D03*
X94615000Y-137160000D03*
X96139000Y-137160000D03*
X106934000Y-108712000D03*
X108458000Y-108712000D03*
X104902000Y-108077000D03*
X103378000Y-108077000D03*
X102489000Y-105410000D03*
X100965000Y-105410000D03*
X100203000Y-108712000D03*
X98679000Y-108712000D03*
X97155000Y-109474000D03*
X95631000Y-109474000D03*
X110363000Y-121920000D03*
X108839000Y-121920000D03*
X101727000Y-122682000D03*
X103251000Y-122682000D03*
D30*
X92964000Y-122174000D03*
X92964000Y-123698000D03*
D29*
X94234000Y-122174000D03*
X95758000Y-122174000D03*
D30*
X93091000Y-128016000D03*
X93091000Y-126492000D03*
X98552000Y-123444000D03*
X98552000Y-121920000D03*
D34*
X110586185Y-133126815D03*
D35*
G36*
X110765790Y-133755433D02*
G01*
X109957567Y-132947210D01*
X110406580Y-132498197D01*
X111214803Y-133306420D01*
X110765790Y-133755433D01*
X110765790Y-133755433D01*
G37*
D34*
X111663815Y-132049185D03*
D35*
G36*
X111843420Y-132677803D02*
G01*
X111035197Y-131869580D01*
X111484210Y-131420567D01*
X112292433Y-132228790D01*
X111843420Y-132677803D01*
X111843420Y-132677803D01*
G37*
D30*
X108331000Y-125349000D03*
X108331000Y-126873000D03*
D36*
G36*
X100203000Y-78994000D02*
G01*
X100205440Y-79018776D01*
X100212667Y-79042601D01*
X100224330Y-79064447D01*
X100711000Y-79794452D01*
X100711000Y-82804000D01*
X93853000Y-82804000D01*
X93853000Y-79953967D01*
X95443560Y-78975161D01*
X95463383Y-78960097D01*
X95479885Y-78941456D01*
X95492434Y-78919953D01*
X95500546Y-78896416D01*
X95504000Y-78867000D01*
X95504000Y-75057000D01*
X100203000Y-75057000D01*
X100203000Y-78994000D01*
X100203000Y-78994000D01*
G37*
X100203000Y-78994000D02*
X100205440Y-79018776D01*
X100212667Y-79042601D01*
X100224330Y-79064447D01*
X100711000Y-79794452D01*
X100711000Y-82804000D01*
X93853000Y-82804000D01*
X93853000Y-79953967D01*
X95443560Y-78975161D01*
X95463383Y-78960097D01*
X95479885Y-78941456D01*
X95492434Y-78919953D01*
X95500546Y-78896416D01*
X95504000Y-78867000D01*
X95504000Y-75057000D01*
X100203000Y-75057000D01*
X100203000Y-78994000D01*
G36*
X111887000Y-78486000D02*
G01*
X111889440Y-78510776D01*
X111896667Y-78534601D01*
X111908403Y-78556557D01*
X111924197Y-78575803D01*
X111943553Y-78591670D01*
X112319969Y-78842614D01*
X113538000Y-79817039D01*
X113538000Y-82804000D01*
X106680000Y-82804000D01*
X106680000Y-79900008D01*
X107056525Y-78519416D01*
X107061000Y-78486000D01*
X107061000Y-75057000D01*
X111887000Y-75057000D01*
X111887000Y-78486000D01*
X111887000Y-78486000D01*
G37*
X111887000Y-78486000D02*
X111889440Y-78510776D01*
X111896667Y-78534601D01*
X111908403Y-78556557D01*
X111924197Y-78575803D01*
X111943553Y-78591670D01*
X112319969Y-78842614D01*
X113538000Y-79817039D01*
X113538000Y-82804000D01*
X106680000Y-82804000D01*
X106680000Y-79900008D01*
X107056525Y-78519416D01*
X107061000Y-78486000D01*
X107061000Y-75057000D01*
X111887000Y-75057000D01*
X111887000Y-78486000D01*
G36*
X87503000Y-82804000D02*
G01*
X80645000Y-82804000D01*
X80645000Y-79822805D01*
X82621949Y-78463653D01*
X82640984Y-78447606D01*
X82656521Y-78428153D01*
X82667966Y-78406043D01*
X82674877Y-78382125D01*
X82677000Y-78359000D01*
X82677000Y-75057000D01*
X87503000Y-75057000D01*
X87503000Y-82804000D01*
X87503000Y-82804000D01*
G37*
X87503000Y-82804000D02*
X80645000Y-82804000D01*
X80645000Y-79822805D01*
X82621949Y-78463653D01*
X82640984Y-78447606D01*
X82656521Y-78428153D01*
X82667966Y-78406043D01*
X82674877Y-78382125D01*
X82677000Y-78359000D01*
X82677000Y-75057000D01*
X87503000Y-75057000D01*
X87503000Y-82804000D01*
G36*
X94107000Y-95631000D02*
G01*
X92837000Y-95631000D01*
X92837000Y-94234000D01*
X92834560Y-94209224D01*
X92827333Y-94185399D01*
X92815597Y-94163443D01*
X92799803Y-94144197D01*
X92780557Y-94128403D01*
X92758601Y-94116667D01*
X92734776Y-94109440D01*
X92710000Y-94107000D01*
X90932000Y-94107000D01*
X90907224Y-94109440D01*
X90883399Y-94116667D01*
X90861443Y-94128403D01*
X90842197Y-94144197D01*
X89794398Y-95191996D01*
X89913829Y-88265000D01*
X94107000Y-88265000D01*
X94107000Y-95631000D01*
X94107000Y-95631000D01*
G37*
X94107000Y-95631000D02*
X92837000Y-95631000D01*
X92837000Y-94234000D01*
X92834560Y-94209224D01*
X92827333Y-94185399D01*
X92815597Y-94163443D01*
X92799803Y-94144197D01*
X92780557Y-94128403D01*
X92758601Y-94116667D01*
X92734776Y-94109440D01*
X92710000Y-94107000D01*
X90932000Y-94107000D01*
X90907224Y-94109440D01*
X90883399Y-94116667D01*
X90861443Y-94128403D01*
X90842197Y-94144197D01*
X89794398Y-95191996D01*
X89913829Y-88265000D01*
X94107000Y-88265000D01*
X94107000Y-95631000D01*
G36*
X106553000Y-94361000D02*
G01*
X103253566Y-94361000D01*
X103375486Y-88265000D01*
X106553000Y-88265000D01*
X106553000Y-94361000D01*
X106553000Y-94361000D01*
G37*
X106553000Y-94361000D02*
X103253566Y-94361000D01*
X103375486Y-88265000D01*
X106553000Y-88265000D01*
X106553000Y-94361000D01*
G36*
X88899105Y-102945289D02*
G01*
X84783394Y-107061000D01*
X79248000Y-107061000D01*
X79248000Y-95631000D01*
X88775134Y-95631000D01*
X88899105Y-102945289D01*
X88899105Y-102945289D01*
G37*
X88899105Y-102945289D02*
X84783394Y-107061000D01*
X79248000Y-107061000D01*
X79248000Y-95631000D01*
X88775134Y-95631000D01*
X88899105Y-102945289D01*
G36*
X97663000Y-101219000D02*
G01*
X97665440Y-101243776D01*
X97672667Y-101267601D01*
X97684403Y-101289557D01*
X97700197Y-101308803D01*
X99441000Y-103049606D01*
X99441000Y-107315000D01*
X94286606Y-107315000D01*
X92964000Y-105992394D01*
X92964000Y-97282000D01*
X97663000Y-97282000D01*
X97663000Y-101219000D01*
X97663000Y-101219000D01*
G37*
X97663000Y-101219000D02*
X97665440Y-101243776D01*
X97672667Y-101267601D01*
X97684403Y-101289557D01*
X97700197Y-101308803D01*
X99441000Y-103049606D01*
X99441000Y-107315000D01*
X94286606Y-107315000D01*
X92964000Y-105992394D01*
X92964000Y-97282000D01*
X97663000Y-97282000D01*
X97663000Y-101219000D01*
M02*
