G04 #@! TF.GenerationSoftware,KiCad,Pcbnew,(5.1.2)-1*
G04 #@! TF.CreationDate,2021-03-05T10:29:45+00:00*
G04 #@! TF.ProjectId,BLDC_4,424c4443-5f34-42e6-9b69-6361645f7063,A*
G04 #@! TF.SameCoordinates,Original*
G04 #@! TF.FileFunction,Legend,Bot*
G04 #@! TF.FilePolarity,Positive*
%FSLAX46Y46*%
G04 Gerber Fmt 4.6, Leading zero omitted, Abs format (unit mm)*
G04 Created by KiCad (PCBNEW (5.1.2)-1) date 2021-03-05 10:29:45*
%MOMM*%
%LPD*%
G04 APERTURE LIST*
%ADD10C,0.150000*%
%ADD11C,0.120000*%
%ADD12C,0.381000*%
%ADD13C,0.127000*%
%ADD14C,0.200660*%
%ADD15C,0.002540*%
%ADD16C,0.066040*%
%ADD17C,0.101600*%
%ADD18C,0.203200*%
%ADD19C,0.119380*%
%ADD20C,0.304800*%
%ADD21C,0.190500*%
%ADD22C,0.114300*%
%ADD23O,1.100000X2.200000*%
%ADD24O,1.100000X1.800000*%
%ADD25O,1.700000X1.700000*%
%ADD26R,1.700000X1.700000*%
%ADD27R,3.500120X1.800860*%
%ADD28C,1.300480*%
%ADD29R,2.540000X5.588000*%
%ADD30R,2.540000X0.889000*%
%ADD31R,2.540000X1.699260*%
%ADD32R,1.800860X1.198880*%
%ADD33O,1.524000X3.048000*%
%ADD34C,4.064000*%
%ADD35R,2.499360X1.950720*%
%ADD36R,5.499100X1.849120*%
%ADD37R,0.797560X0.797560*%
%ADD38R,10.800080X8.150860*%
%ADD39R,0.899160X3.200400*%
%ADD40R,1.524000X2.032000*%
%ADD41R,1.143000X0.635000*%
%ADD42R,0.635000X1.143000*%
%ADD43R,2.032000X3.657600*%
%ADD44R,2.032000X1.016000*%
%ADD45R,1.300000X1.300000*%
%ADD46C,1.300000*%
%ADD47C,0.635000*%
%ADD48C,0.254000*%
G04 APERTURE END LIST*
D10*
X112158428Y-109366142D02*
X111558428Y-109366142D01*
X112158428Y-109709000D01*
X111558428Y-109709000D01*
X112129857Y-109966142D02*
X112158428Y-110051857D01*
X112158428Y-110194714D01*
X112129857Y-110251857D01*
X112101285Y-110280428D01*
X112044142Y-110309000D01*
X111987000Y-110309000D01*
X111929857Y-110280428D01*
X111901285Y-110251857D01*
X111872714Y-110194714D01*
X111844142Y-110080428D01*
X111815571Y-110023285D01*
X111787000Y-109994714D01*
X111729857Y-109966142D01*
X111672714Y-109966142D01*
X111615571Y-109994714D01*
X111587000Y-110023285D01*
X111558428Y-110080428D01*
X111558428Y-110223285D01*
X111587000Y-110309000D01*
X112129857Y-110537571D02*
X112158428Y-110623285D01*
X112158428Y-110766142D01*
X112129857Y-110823285D01*
X112101285Y-110851857D01*
X112044142Y-110880428D01*
X111987000Y-110880428D01*
X111929857Y-110851857D01*
X111901285Y-110823285D01*
X111872714Y-110766142D01*
X111844142Y-110651857D01*
X111815571Y-110594714D01*
X111787000Y-110566142D01*
X111729857Y-110537571D01*
X111672714Y-110537571D01*
X111615571Y-110566142D01*
X111587000Y-110594714D01*
X111558428Y-110651857D01*
X111558428Y-110794714D01*
X111587000Y-110880428D01*
X112129857Y-111496571D02*
X112158428Y-111582285D01*
X112158428Y-111725142D01*
X112129857Y-111782285D01*
X112101285Y-111810857D01*
X112044142Y-111839428D01*
X111987000Y-111839428D01*
X111929857Y-111810857D01*
X111901285Y-111782285D01*
X111872714Y-111725142D01*
X111844142Y-111610857D01*
X111815571Y-111553714D01*
X111787000Y-111525142D01*
X111729857Y-111496571D01*
X111672714Y-111496571D01*
X111615571Y-111525142D01*
X111587000Y-111553714D01*
X111558428Y-111610857D01*
X111558428Y-111753714D01*
X111587000Y-111839428D01*
X112101285Y-112439428D02*
X112129857Y-112410857D01*
X112158428Y-112325142D01*
X112158428Y-112268000D01*
X112129857Y-112182285D01*
X112072714Y-112125142D01*
X112015571Y-112096571D01*
X111901285Y-112068000D01*
X111815571Y-112068000D01*
X111701285Y-112096571D01*
X111644142Y-112125142D01*
X111587000Y-112182285D01*
X111558428Y-112268000D01*
X111558428Y-112325142D01*
X111587000Y-112410857D01*
X111615571Y-112439428D01*
X112158428Y-112696571D02*
X111558428Y-112696571D01*
X112158428Y-113039428D02*
X111815571Y-112782285D01*
X111558428Y-113039428D02*
X111901285Y-112696571D01*
X112158428Y-106880142D02*
X111558428Y-106880142D01*
X111987000Y-107080142D01*
X111558428Y-107280142D01*
X112158428Y-107280142D01*
X111558428Y-107680142D02*
X111558428Y-107794428D01*
X111587000Y-107851571D01*
X111644142Y-107908714D01*
X111758428Y-107937285D01*
X111958428Y-107937285D01*
X112072714Y-107908714D01*
X112129857Y-107851571D01*
X112158428Y-107794428D01*
X112158428Y-107680142D01*
X112129857Y-107623000D01*
X112072714Y-107565857D01*
X111958428Y-107537285D01*
X111758428Y-107537285D01*
X111644142Y-107565857D01*
X111587000Y-107623000D01*
X111558428Y-107680142D01*
X112129857Y-108165857D02*
X112158428Y-108251571D01*
X112158428Y-108394428D01*
X112129857Y-108451571D01*
X112101285Y-108480142D01*
X112044142Y-108508714D01*
X111987000Y-108508714D01*
X111929857Y-108480142D01*
X111901285Y-108451571D01*
X111872714Y-108394428D01*
X111844142Y-108280142D01*
X111815571Y-108223000D01*
X111787000Y-108194428D01*
X111729857Y-108165857D01*
X111672714Y-108165857D01*
X111615571Y-108194428D01*
X111587000Y-108223000D01*
X111558428Y-108280142D01*
X111558428Y-108423000D01*
X111587000Y-108508714D01*
X112158428Y-108765857D02*
X111558428Y-108765857D01*
X112158428Y-104340142D02*
X111558428Y-104340142D01*
X111987000Y-104540142D01*
X111558428Y-104740142D01*
X112158428Y-104740142D01*
X112158428Y-105025857D02*
X111558428Y-105025857D01*
X112129857Y-105283000D02*
X112158428Y-105368714D01*
X112158428Y-105511571D01*
X112129857Y-105568714D01*
X112101285Y-105597285D01*
X112044142Y-105625857D01*
X111987000Y-105625857D01*
X111929857Y-105597285D01*
X111901285Y-105568714D01*
X111872714Y-105511571D01*
X111844142Y-105397285D01*
X111815571Y-105340142D01*
X111787000Y-105311571D01*
X111729857Y-105283000D01*
X111672714Y-105283000D01*
X111615571Y-105311571D01*
X111587000Y-105340142D01*
X111558428Y-105397285D01*
X111558428Y-105540142D01*
X111587000Y-105625857D01*
X111558428Y-105997285D02*
X111558428Y-106111571D01*
X111587000Y-106168714D01*
X111644142Y-106225857D01*
X111758428Y-106254428D01*
X111958428Y-106254428D01*
X112072714Y-106225857D01*
X112129857Y-106168714D01*
X112158428Y-106111571D01*
X112158428Y-105997285D01*
X112129857Y-105940142D01*
X112072714Y-105883000D01*
X111958428Y-105854428D01*
X111758428Y-105854428D01*
X111644142Y-105883000D01*
X111587000Y-105940142D01*
X111558428Y-105997285D01*
X116051000Y-104889428D02*
X116051000Y-105175142D01*
X116222428Y-104832285D02*
X115622428Y-105032285D01*
X116222428Y-105232285D01*
X116222428Y-105432285D02*
X115622428Y-105432285D01*
X115622428Y-105575142D01*
X115651000Y-105660857D01*
X115708142Y-105718000D01*
X115765285Y-105746571D01*
X115879571Y-105775142D01*
X115965285Y-105775142D01*
X116079571Y-105746571D01*
X116136714Y-105718000D01*
X116193857Y-105660857D01*
X116222428Y-105575142D01*
X116222428Y-105432285D01*
X116165285Y-106375142D02*
X116193857Y-106346571D01*
X116222428Y-106260857D01*
X116222428Y-106203714D01*
X116193857Y-106118000D01*
X116136714Y-106060857D01*
X116079571Y-106032285D01*
X115965285Y-106003714D01*
X115879571Y-106003714D01*
X115765285Y-106032285D01*
X115708142Y-106060857D01*
X115651000Y-106118000D01*
X115622428Y-106203714D01*
X115622428Y-106260857D01*
X115651000Y-106346571D01*
X115679571Y-106375142D01*
X115679571Y-106603714D02*
X115651000Y-106632285D01*
X115622428Y-106689428D01*
X115622428Y-106832285D01*
X115651000Y-106889428D01*
X115679571Y-106918000D01*
X115736714Y-106946571D01*
X115793857Y-106946571D01*
X115879571Y-106918000D01*
X116222428Y-106575142D01*
X116222428Y-106946571D01*
X113272857Y-109380428D02*
X113301428Y-109466142D01*
X113301428Y-109609000D01*
X113272857Y-109666142D01*
X113244285Y-109694714D01*
X113187142Y-109723285D01*
X113130000Y-109723285D01*
X113072857Y-109694714D01*
X113044285Y-109666142D01*
X113015714Y-109609000D01*
X112987142Y-109494714D01*
X112958571Y-109437571D01*
X112930000Y-109409000D01*
X112872857Y-109380428D01*
X112815714Y-109380428D01*
X112758571Y-109409000D01*
X112730000Y-109437571D01*
X112701428Y-109494714D01*
X112701428Y-109637571D01*
X112730000Y-109723285D01*
X113301428Y-109980428D02*
X112701428Y-109980428D01*
X112701428Y-110123285D01*
X112730000Y-110209000D01*
X112787142Y-110266142D01*
X112844285Y-110294714D01*
X112958571Y-110323285D01*
X113044285Y-110323285D01*
X113158571Y-110294714D01*
X113215714Y-110266142D01*
X113272857Y-110209000D01*
X113301428Y-110123285D01*
X113301428Y-109980428D01*
X113130000Y-110551857D02*
X113130000Y-110837571D01*
X113301428Y-110494714D02*
X112701428Y-110694714D01*
X113301428Y-110894714D01*
X115622428Y-109524857D02*
X115622428Y-109867714D01*
X116222428Y-109696285D02*
X115622428Y-109696285D01*
X115622428Y-110010571D02*
X116222428Y-110410571D01*
X115622428Y-110410571D02*
X116222428Y-110010571D01*
X113272857Y-107362714D02*
X113301428Y-107448428D01*
X113301428Y-107591285D01*
X113272857Y-107648428D01*
X113244285Y-107677000D01*
X113187142Y-107705571D01*
X113130000Y-107705571D01*
X113072857Y-107677000D01*
X113044285Y-107648428D01*
X113015714Y-107591285D01*
X112987142Y-107477000D01*
X112958571Y-107419857D01*
X112930000Y-107391285D01*
X112872857Y-107362714D01*
X112815714Y-107362714D01*
X112758571Y-107391285D01*
X112730000Y-107419857D01*
X112701428Y-107477000D01*
X112701428Y-107619857D01*
X112730000Y-107705571D01*
X113244285Y-108305571D02*
X113272857Y-108277000D01*
X113301428Y-108191285D01*
X113301428Y-108134142D01*
X113272857Y-108048428D01*
X113215714Y-107991285D01*
X113158571Y-107962714D01*
X113044285Y-107934142D01*
X112958571Y-107934142D01*
X112844285Y-107962714D01*
X112787142Y-107991285D01*
X112730000Y-108048428D01*
X112701428Y-108134142D01*
X112701428Y-108191285D01*
X112730000Y-108277000D01*
X112758571Y-108305571D01*
X113301428Y-108848428D02*
X113301428Y-108562714D01*
X112701428Y-108562714D01*
X116222428Y-107850000D02*
X115936714Y-107650000D01*
X116222428Y-107507142D02*
X115622428Y-107507142D01*
X115622428Y-107735714D01*
X115651000Y-107792857D01*
X115679571Y-107821428D01*
X115736714Y-107850000D01*
X115822428Y-107850000D01*
X115879571Y-107821428D01*
X115908142Y-107792857D01*
X115936714Y-107735714D01*
X115936714Y-107507142D01*
X115622428Y-108050000D02*
X116222428Y-108450000D01*
X115622428Y-108450000D02*
X116222428Y-108050000D01*
X116051000Y-111271142D02*
X116051000Y-111556857D01*
X116222428Y-111214000D02*
X115622428Y-111414000D01*
X116222428Y-111614000D01*
X116222428Y-111814000D02*
X115622428Y-111814000D01*
X115622428Y-111956857D01*
X115651000Y-112042571D01*
X115708142Y-112099714D01*
X115765285Y-112128285D01*
X115879571Y-112156857D01*
X115965285Y-112156857D01*
X116079571Y-112128285D01*
X116136714Y-112099714D01*
X116193857Y-112042571D01*
X116222428Y-111956857D01*
X116222428Y-111814000D01*
X116165285Y-112756857D02*
X116193857Y-112728285D01*
X116222428Y-112642571D01*
X116222428Y-112585428D01*
X116193857Y-112499714D01*
X116136714Y-112442571D01*
X116079571Y-112414000D01*
X115965285Y-112385428D01*
X115879571Y-112385428D01*
X115765285Y-112414000D01*
X115708142Y-112442571D01*
X115651000Y-112499714D01*
X115622428Y-112585428D01*
X115622428Y-112642571D01*
X115651000Y-112728285D01*
X115679571Y-112756857D01*
X115700000Y-113542857D02*
X115671428Y-113485714D01*
X115671428Y-113400000D01*
X115700000Y-113314285D01*
X115757142Y-113257142D01*
X115814285Y-113228571D01*
X115928571Y-113200000D01*
X116014285Y-113200000D01*
X116128571Y-113228571D01*
X116185714Y-113257142D01*
X116242857Y-113314285D01*
X116271428Y-113400000D01*
X116271428Y-113457142D01*
X116242857Y-113542857D01*
X116214285Y-113571428D01*
X116014285Y-113571428D01*
X116014285Y-113457142D01*
X116271428Y-113828571D02*
X115671428Y-113828571D01*
X116271428Y-114171428D01*
X115671428Y-114171428D01*
X116271428Y-114457142D02*
X115671428Y-114457142D01*
X115671428Y-114600000D01*
X115700000Y-114685714D01*
X115757142Y-114742857D01*
X115814285Y-114771428D01*
X115928571Y-114800000D01*
X116014285Y-114800000D01*
X116128571Y-114771428D01*
X116185714Y-114742857D01*
X116242857Y-114685714D01*
X116271428Y-114600000D01*
X116271428Y-114457142D01*
X115671428Y-115214285D02*
X115671428Y-115585714D01*
X115900000Y-115385714D01*
X115900000Y-115471428D01*
X115928571Y-115528571D01*
X115957142Y-115557142D01*
X116014285Y-115585714D01*
X116157142Y-115585714D01*
X116214285Y-115557142D01*
X116242857Y-115528571D01*
X116271428Y-115471428D01*
X116271428Y-115300000D01*
X116242857Y-115242857D01*
X116214285Y-115214285D01*
X116214285Y-115842857D02*
X116242857Y-115871428D01*
X116271428Y-115842857D01*
X116242857Y-115814285D01*
X116214285Y-115842857D01*
X116271428Y-115842857D01*
X115671428Y-116071428D02*
X115671428Y-116442857D01*
X115900000Y-116242857D01*
X115900000Y-116328571D01*
X115928571Y-116385714D01*
X115957142Y-116414285D01*
X116014285Y-116442857D01*
X116157142Y-116442857D01*
X116214285Y-116414285D01*
X116242857Y-116385714D01*
X116271428Y-116328571D01*
X116271428Y-116157142D01*
X116242857Y-116100000D01*
X116214285Y-116071428D01*
X115671428Y-116614285D02*
X116271428Y-116814285D01*
X115671428Y-117014285D01*
X115671428Y-117914285D02*
X115671428Y-117628571D01*
X115957142Y-117600000D01*
X115928571Y-117628571D01*
X115900000Y-117685714D01*
X115900000Y-117828571D01*
X115928571Y-117885714D01*
X115957142Y-117914285D01*
X116014285Y-117942857D01*
X116157142Y-117942857D01*
X116214285Y-117914285D01*
X116242857Y-117885714D01*
X116271428Y-117828571D01*
X116271428Y-117685714D01*
X116242857Y-117628571D01*
X116214285Y-117600000D01*
X115871428Y-118142857D02*
X116271428Y-118285714D01*
X115871428Y-118428571D01*
X116271428Y-129871428D02*
X115985714Y-129671428D01*
X116271428Y-129528571D02*
X115671428Y-129528571D01*
X115671428Y-129757142D01*
X115700000Y-129814285D01*
X115728571Y-129842857D01*
X115785714Y-129871428D01*
X115871428Y-129871428D01*
X115928571Y-129842857D01*
X115957142Y-129814285D01*
X115985714Y-129757142D01*
X115985714Y-129528571D01*
X116242857Y-130100000D02*
X116271428Y-130185714D01*
X116271428Y-130328571D01*
X116242857Y-130385714D01*
X116214285Y-130414285D01*
X116157142Y-130442857D01*
X116100000Y-130442857D01*
X116042857Y-130414285D01*
X116014285Y-130385714D01*
X115985714Y-130328571D01*
X115957142Y-130214285D01*
X115928571Y-130157142D01*
X115900000Y-130128571D01*
X115842857Y-130100000D01*
X115785714Y-130100000D01*
X115728571Y-130128571D01*
X115700000Y-130157142D01*
X115671428Y-130214285D01*
X115671428Y-130357142D01*
X115700000Y-130442857D01*
X115671428Y-130614285D02*
X115671428Y-130957142D01*
X116271428Y-130785714D02*
X115671428Y-130785714D01*
X116271428Y-127585714D02*
X115671428Y-127585714D01*
X115671428Y-127728571D01*
X115700000Y-127814285D01*
X115757142Y-127871428D01*
X115814285Y-127900000D01*
X115928571Y-127928571D01*
X116014285Y-127928571D01*
X116128571Y-127900000D01*
X116185714Y-127871428D01*
X116242857Y-127814285D01*
X116271428Y-127728571D01*
X116271428Y-127585714D01*
X116271428Y-128185714D02*
X115671428Y-128185714D01*
X115671428Y-128585714D02*
X115671428Y-128700000D01*
X115700000Y-128757142D01*
X115757142Y-128814285D01*
X115871428Y-128842857D01*
X116071428Y-128842857D01*
X116185714Y-128814285D01*
X116242857Y-128757142D01*
X116271428Y-128700000D01*
X116271428Y-128585714D01*
X116242857Y-128528571D01*
X116185714Y-128471428D01*
X116071428Y-128442857D01*
X115871428Y-128442857D01*
X115757142Y-128471428D01*
X115700000Y-128528571D01*
X115671428Y-128585714D01*
X115700000Y-125742857D02*
X115671428Y-125685714D01*
X115671428Y-125600000D01*
X115700000Y-125514285D01*
X115757142Y-125457142D01*
X115814285Y-125428571D01*
X115928571Y-125400000D01*
X116014285Y-125400000D01*
X116128571Y-125428571D01*
X116185714Y-125457142D01*
X116242857Y-125514285D01*
X116271428Y-125600000D01*
X116271428Y-125657142D01*
X116242857Y-125742857D01*
X116214285Y-125771428D01*
X116014285Y-125771428D01*
X116014285Y-125657142D01*
X116271428Y-126028571D02*
X115671428Y-126028571D01*
X116271428Y-126371428D01*
X115671428Y-126371428D01*
X116271428Y-126657142D02*
X115671428Y-126657142D01*
X115671428Y-126800000D01*
X115700000Y-126885714D01*
X115757142Y-126942857D01*
X115814285Y-126971428D01*
X115928571Y-127000000D01*
X116014285Y-127000000D01*
X116128571Y-126971428D01*
X116185714Y-126942857D01*
X116242857Y-126885714D01*
X116271428Y-126800000D01*
X116271428Y-126657142D01*
X116214285Y-123842857D02*
X116242857Y-123814285D01*
X116271428Y-123728571D01*
X116271428Y-123671428D01*
X116242857Y-123585714D01*
X116185714Y-123528571D01*
X116128571Y-123500000D01*
X116014285Y-123471428D01*
X115928571Y-123471428D01*
X115814285Y-123500000D01*
X115757142Y-123528571D01*
X115700000Y-123585714D01*
X115671428Y-123671428D01*
X115671428Y-123728571D01*
X115700000Y-123814285D01*
X115728571Y-123842857D01*
X116271428Y-124385714D02*
X116271428Y-124100000D01*
X115671428Y-124100000D01*
X116271428Y-124585714D02*
X115671428Y-124585714D01*
X116271428Y-124928571D02*
X115928571Y-124671428D01*
X115671428Y-124928571D02*
X116014285Y-124585714D01*
X115671428Y-121342857D02*
X115671428Y-121714285D01*
X115900000Y-121514285D01*
X115900000Y-121600000D01*
X115928571Y-121657142D01*
X115957142Y-121685714D01*
X116014285Y-121714285D01*
X116157142Y-121714285D01*
X116214285Y-121685714D01*
X116242857Y-121657142D01*
X116271428Y-121600000D01*
X116271428Y-121428571D01*
X116242857Y-121371428D01*
X116214285Y-121342857D01*
X116214285Y-121971428D02*
X116242857Y-122000000D01*
X116271428Y-121971428D01*
X116242857Y-121942857D01*
X116214285Y-121971428D01*
X116271428Y-121971428D01*
X115671428Y-122200000D02*
X115671428Y-122571428D01*
X115900000Y-122371428D01*
X115900000Y-122457142D01*
X115928571Y-122514285D01*
X115957142Y-122542857D01*
X116014285Y-122571428D01*
X116157142Y-122571428D01*
X116214285Y-122542857D01*
X116242857Y-122514285D01*
X116271428Y-122457142D01*
X116271428Y-122285714D01*
X116242857Y-122228571D01*
X116214285Y-122200000D01*
X115871428Y-122771428D02*
X116271428Y-122914285D01*
X115871428Y-123057142D01*
D11*
X79315000Y-135830000D02*
X79315000Y-137160000D01*
X80645000Y-135830000D02*
X79315000Y-135830000D01*
X81915000Y-135830000D02*
X81915000Y-138490000D01*
X81915000Y-138490000D02*
X92135000Y-138490000D01*
X81915000Y-135830000D02*
X92135000Y-135830000D01*
X92135000Y-135830000D02*
X92135000Y-138490000D01*
X79315000Y-110938000D02*
X81975000Y-110938000D01*
X79315000Y-118618000D02*
X79315000Y-110938000D01*
X81975000Y-118618000D02*
X81975000Y-110938000D01*
X79315000Y-118618000D02*
X81975000Y-118618000D01*
X79315000Y-119888000D02*
X79315000Y-121218000D01*
X79315000Y-121218000D02*
X80645000Y-121218000D01*
X79315000Y-102048000D02*
X84515000Y-102048000D01*
X79315000Y-104648000D02*
X79315000Y-102048000D01*
X84515000Y-107248000D02*
X84515000Y-102048000D01*
X79315000Y-104648000D02*
X81915000Y-104648000D01*
X81915000Y-104648000D02*
X81915000Y-107248000D01*
X81915000Y-107248000D02*
X84515000Y-107248000D01*
X79315000Y-105918000D02*
X79315000Y-107248000D01*
X79315000Y-107248000D02*
X80645000Y-107248000D01*
X94555000Y-102048000D02*
X99755000Y-102048000D01*
X94555000Y-104648000D02*
X94555000Y-102048000D01*
X99755000Y-107248000D02*
X99755000Y-102048000D01*
X94555000Y-104648000D02*
X97155000Y-104648000D01*
X97155000Y-104648000D02*
X97155000Y-107248000D01*
X97155000Y-107248000D02*
X99755000Y-107248000D01*
X94555000Y-105918000D02*
X94555000Y-107248000D01*
X94555000Y-107248000D02*
X95885000Y-107248000D01*
X107001000Y-74235000D02*
X112201000Y-74235000D01*
X107001000Y-76835000D02*
X107001000Y-74235000D01*
X112201000Y-79435000D02*
X112201000Y-74235000D01*
X107001000Y-76835000D02*
X109601000Y-76835000D01*
X109601000Y-76835000D02*
X109601000Y-79435000D01*
X109601000Y-79435000D02*
X112201000Y-79435000D01*
X107001000Y-78105000D02*
X107001000Y-79435000D01*
X107001000Y-79435000D02*
X108331000Y-79435000D01*
X82490000Y-74235000D02*
X87690000Y-74235000D01*
X82490000Y-76835000D02*
X82490000Y-74235000D01*
X87690000Y-79435000D02*
X87690000Y-74235000D01*
X82490000Y-76835000D02*
X85090000Y-76835000D01*
X85090000Y-76835000D02*
X85090000Y-79435000D01*
X85090000Y-79435000D02*
X87690000Y-79435000D01*
X82490000Y-78105000D02*
X82490000Y-79435000D01*
X82490000Y-79435000D02*
X83820000Y-79435000D01*
X95063000Y-79435000D02*
X96393000Y-79435000D01*
X95063000Y-78105000D02*
X95063000Y-79435000D01*
X97663000Y-79435000D02*
X100263000Y-79435000D01*
X97663000Y-76835000D02*
X97663000Y-79435000D01*
X95063000Y-76835000D02*
X97663000Y-76835000D01*
X100263000Y-79435000D02*
X100263000Y-74235000D01*
X95063000Y-76835000D02*
X95063000Y-74235000D01*
X95063000Y-74235000D02*
X100263000Y-74235000D01*
D10*
X87245000Y-113030000D02*
X86695000Y-112580000D01*
X86695000Y-112580000D02*
X86695000Y-113480000D01*
X86695000Y-113480000D02*
X87245000Y-113030000D01*
X87245000Y-112480000D02*
X87245000Y-113580000D01*
X88794140Y-114780060D02*
X88794140Y-114429540D01*
X88794140Y-111279940D02*
X88794140Y-111630460D01*
X84744560Y-114780060D02*
X84744560Y-114429540D01*
X89245440Y-114780060D02*
X89245440Y-114429540D01*
X89245440Y-111279940D02*
X89245440Y-111630460D01*
X84744560Y-111279940D02*
X84744560Y-111630460D01*
X89245440Y-114780060D02*
X84744560Y-114780060D01*
X89245440Y-111279940D02*
X84744560Y-111279940D01*
D12*
X101473000Y-104267000D02*
X101473000Y-97663000D01*
X101473000Y-97663000D02*
X108331000Y-97663000D01*
X108331000Y-97663000D02*
X108331000Y-104267000D01*
X108331000Y-104267000D02*
X101473000Y-104267000D01*
X86741000Y-104267000D02*
X86741000Y-97663000D01*
X86741000Y-97663000D02*
X93599000Y-97663000D01*
X93599000Y-97663000D02*
X93599000Y-104267000D01*
X93599000Y-104267000D02*
X86741000Y-104267000D01*
D13*
X108262420Y-134495540D02*
X108262420Y-131696460D01*
X108364020Y-131696460D02*
X108364020Y-134495540D01*
X108463080Y-134495540D02*
X108463080Y-131696460D01*
X108562140Y-131696460D02*
X108562140Y-134495540D01*
X108663740Y-131696460D02*
X108663740Y-134495540D01*
X108163360Y-131696460D02*
X112562640Y-131696460D01*
X112562640Y-131696460D02*
X112562640Y-134495540D01*
X112562640Y-134495540D02*
X108163360Y-134495540D01*
X108163360Y-134495540D02*
X108163360Y-131696460D01*
D14*
X96433640Y-135204200D02*
X101432360Y-135204200D01*
X101432360Y-135204200D02*
X101432360Y-132003800D01*
X101432360Y-132003800D02*
X96433640Y-132003800D01*
X96433640Y-132003800D02*
X96433640Y-135204200D01*
D15*
G36*
X114828320Y-99898200D02*
G01*
X114810540Y-99890580D01*
X114777520Y-99867720D01*
X114726720Y-99834700D01*
X114668300Y-99796600D01*
X114607340Y-99755960D01*
X114559080Y-99722940D01*
X114523520Y-99700080D01*
X114510820Y-99692460D01*
X114503200Y-99695000D01*
X114475260Y-99710240D01*
X114434620Y-99730560D01*
X114409220Y-99743260D01*
X114371120Y-99758500D01*
X114353340Y-99763580D01*
X114350800Y-99758500D01*
X114335560Y-99728020D01*
X114315240Y-99679760D01*
X114287300Y-99613720D01*
X114254280Y-99537520D01*
X114218720Y-99456240D01*
X114185700Y-99372420D01*
X114152680Y-99293680D01*
X114122200Y-99220020D01*
X114099340Y-99161600D01*
X114084100Y-99120960D01*
X114076480Y-99103180D01*
X114079020Y-99100640D01*
X114096800Y-99082860D01*
X114129820Y-99057460D01*
X114200940Y-98999040D01*
X114272060Y-98912680D01*
X114315240Y-98813620D01*
X114327940Y-98701860D01*
X114317780Y-98600260D01*
X114277140Y-98503740D01*
X114208560Y-98414840D01*
X114124740Y-98348800D01*
X114028220Y-98308160D01*
X113919000Y-98295460D01*
X113814860Y-98305620D01*
X113715800Y-98346260D01*
X113626900Y-98412300D01*
X113588800Y-98455480D01*
X113538000Y-98546920D01*
X113507520Y-98640900D01*
X113504980Y-98663760D01*
X113510060Y-98770440D01*
X113540540Y-98872040D01*
X113596420Y-98960940D01*
X113672620Y-99034600D01*
X113682780Y-99042220D01*
X113718340Y-99070160D01*
X113743740Y-99087940D01*
X113761520Y-99103180D01*
X113626900Y-99425760D01*
X113606580Y-99476560D01*
X113568480Y-99565460D01*
X113538000Y-99641660D01*
X113510060Y-99702620D01*
X113492280Y-99743260D01*
X113484660Y-99758500D01*
X113471960Y-99761040D01*
X113449100Y-99753420D01*
X113403380Y-99730560D01*
X113372900Y-99715320D01*
X113339880Y-99700080D01*
X113324640Y-99692460D01*
X113309400Y-99700080D01*
X113276380Y-99720400D01*
X113230660Y-99753420D01*
X113172240Y-99791520D01*
X113116360Y-99829620D01*
X113065560Y-99862640D01*
X113030000Y-99888040D01*
X113012220Y-99895660D01*
X113009680Y-99895660D01*
X112991900Y-99888040D01*
X112963960Y-99862640D01*
X112920780Y-99822000D01*
X112857280Y-99761040D01*
X112847120Y-99750880D01*
X112796320Y-99700080D01*
X112755680Y-99654360D01*
X112727740Y-99623880D01*
X112717580Y-99611180D01*
X112727740Y-99593400D01*
X112750600Y-99555300D01*
X112783620Y-99504500D01*
X112824260Y-99443540D01*
X112930940Y-99288600D01*
X112872520Y-99143820D01*
X112854740Y-99098100D01*
X112831880Y-99042220D01*
X112814100Y-99004120D01*
X112806480Y-98986340D01*
X112788700Y-98981260D01*
X112750600Y-98971100D01*
X112692180Y-98960940D01*
X112621060Y-98948240D01*
X112555020Y-98935540D01*
X112496600Y-98922840D01*
X112453420Y-98915220D01*
X112433100Y-98912680D01*
X112428020Y-98907600D01*
X112425480Y-98899980D01*
X112422940Y-98879660D01*
X112420400Y-98841560D01*
X112420400Y-98785680D01*
X112420400Y-98701860D01*
X112420400Y-98694240D01*
X112420400Y-98615500D01*
X112422940Y-98552000D01*
X112425480Y-98513900D01*
X112428020Y-98496120D01*
X112445800Y-98491040D01*
X112488980Y-98483420D01*
X112547400Y-98470720D01*
X112618520Y-98458020D01*
X112623600Y-98458020D01*
X112694720Y-98442780D01*
X112753140Y-98430080D01*
X112796320Y-98422460D01*
X112814100Y-98414840D01*
X112816640Y-98409760D01*
X112831880Y-98381820D01*
X112852200Y-98338640D01*
X112875060Y-98285300D01*
X112897920Y-98229420D01*
X112918240Y-98178620D01*
X112930940Y-98143060D01*
X112936020Y-98125280D01*
X112925860Y-98107500D01*
X112900460Y-98071940D01*
X112864900Y-98021140D01*
X112824260Y-97960180D01*
X112821720Y-97955100D01*
X112781080Y-97894140D01*
X112748060Y-97843340D01*
X112725200Y-97807780D01*
X112717580Y-97792540D01*
X112717580Y-97790000D01*
X112730280Y-97772220D01*
X112760760Y-97739200D01*
X112806480Y-97693480D01*
X112857280Y-97640140D01*
X112875060Y-97624900D01*
X112933480Y-97566480D01*
X112974120Y-97530920D01*
X112999520Y-97510600D01*
X113009680Y-97505520D01*
X113012220Y-97505520D01*
X113030000Y-97515680D01*
X113068100Y-97541080D01*
X113118900Y-97576640D01*
X113179860Y-97617280D01*
X113182400Y-97619820D01*
X113243360Y-97660460D01*
X113294160Y-97696020D01*
X113329720Y-97718880D01*
X113344960Y-97726500D01*
X113347500Y-97726500D01*
X113370360Y-97721420D01*
X113413540Y-97706180D01*
X113466880Y-97685860D01*
X113522760Y-97663000D01*
X113573560Y-97642680D01*
X113609120Y-97624900D01*
X113626900Y-97614740D01*
X113629440Y-97614740D01*
X113634520Y-97591880D01*
X113644680Y-97546160D01*
X113657380Y-97485200D01*
X113672620Y-97411540D01*
X113675160Y-97401380D01*
X113687860Y-97327720D01*
X113698020Y-97269300D01*
X113708180Y-97228660D01*
X113710720Y-97210880D01*
X113720880Y-97210880D01*
X113756440Y-97208340D01*
X113809780Y-97205800D01*
X113875820Y-97205800D01*
X113941860Y-97205800D01*
X114007900Y-97205800D01*
X114063780Y-97208340D01*
X114104420Y-97210880D01*
X114122200Y-97215960D01*
X114127280Y-97238820D01*
X114137440Y-97282000D01*
X114150140Y-97345500D01*
X114165380Y-97419160D01*
X114167920Y-97431860D01*
X114180620Y-97502980D01*
X114193320Y-97561400D01*
X114200940Y-97602040D01*
X114206020Y-97617280D01*
X114211100Y-97619820D01*
X114241580Y-97635060D01*
X114289840Y-97652840D01*
X114348260Y-97678240D01*
X114485420Y-97734120D01*
X114653060Y-97617280D01*
X114668300Y-97607120D01*
X114729260Y-97566480D01*
X114780060Y-97533460D01*
X114815620Y-97510600D01*
X114828320Y-97502980D01*
X114830860Y-97502980D01*
X114846100Y-97518220D01*
X114879120Y-97548700D01*
X114924840Y-97594420D01*
X114978180Y-97645220D01*
X115018820Y-97685860D01*
X115064540Y-97731580D01*
X115092480Y-97764600D01*
X115110260Y-97784920D01*
X115115340Y-97797620D01*
X115112800Y-97805240D01*
X115102640Y-97823020D01*
X115077240Y-97858580D01*
X115044220Y-97911920D01*
X115003580Y-97970340D01*
X114968020Y-98021140D01*
X114932460Y-98077020D01*
X114909600Y-98117660D01*
X114899440Y-98135440D01*
X114901980Y-98145600D01*
X114914680Y-98178620D01*
X114935000Y-98226880D01*
X114960400Y-98287840D01*
X115018820Y-98419920D01*
X115105180Y-98437700D01*
X115158520Y-98447860D01*
X115232180Y-98460560D01*
X115303300Y-98475800D01*
X115415060Y-98496120D01*
X115417600Y-98899980D01*
X115399820Y-98907600D01*
X115384580Y-98912680D01*
X115343940Y-98922840D01*
X115285520Y-98933000D01*
X115216940Y-98945700D01*
X115155980Y-98958400D01*
X115097560Y-98968560D01*
X115054380Y-98976180D01*
X115036600Y-98981260D01*
X115031520Y-98986340D01*
X115016280Y-99016820D01*
X114995960Y-99062540D01*
X114973100Y-99115880D01*
X114947700Y-99174300D01*
X114927380Y-99225100D01*
X114912140Y-99265740D01*
X114907060Y-99286060D01*
X114914680Y-99301300D01*
X114937540Y-99336860D01*
X114970560Y-99387660D01*
X115011200Y-99446080D01*
X115051840Y-99504500D01*
X115084860Y-99555300D01*
X115110260Y-99590860D01*
X115117880Y-99608640D01*
X115112800Y-99618800D01*
X115089940Y-99646740D01*
X115046760Y-99692460D01*
X114980720Y-99758500D01*
X114968020Y-99768660D01*
X114917220Y-99819460D01*
X114871500Y-99860100D01*
X114841020Y-99888040D01*
X114828320Y-99898200D01*
X114828320Y-99898200D01*
G37*
X114828320Y-99898200D02*
X114810540Y-99890580D01*
X114777520Y-99867720D01*
X114726720Y-99834700D01*
X114668300Y-99796600D01*
X114607340Y-99755960D01*
X114559080Y-99722940D01*
X114523520Y-99700080D01*
X114510820Y-99692460D01*
X114503200Y-99695000D01*
X114475260Y-99710240D01*
X114434620Y-99730560D01*
X114409220Y-99743260D01*
X114371120Y-99758500D01*
X114353340Y-99763580D01*
X114350800Y-99758500D01*
X114335560Y-99728020D01*
X114315240Y-99679760D01*
X114287300Y-99613720D01*
X114254280Y-99537520D01*
X114218720Y-99456240D01*
X114185700Y-99372420D01*
X114152680Y-99293680D01*
X114122200Y-99220020D01*
X114099340Y-99161600D01*
X114084100Y-99120960D01*
X114076480Y-99103180D01*
X114079020Y-99100640D01*
X114096800Y-99082860D01*
X114129820Y-99057460D01*
X114200940Y-98999040D01*
X114272060Y-98912680D01*
X114315240Y-98813620D01*
X114327940Y-98701860D01*
X114317780Y-98600260D01*
X114277140Y-98503740D01*
X114208560Y-98414840D01*
X114124740Y-98348800D01*
X114028220Y-98308160D01*
X113919000Y-98295460D01*
X113814860Y-98305620D01*
X113715800Y-98346260D01*
X113626900Y-98412300D01*
X113588800Y-98455480D01*
X113538000Y-98546920D01*
X113507520Y-98640900D01*
X113504980Y-98663760D01*
X113510060Y-98770440D01*
X113540540Y-98872040D01*
X113596420Y-98960940D01*
X113672620Y-99034600D01*
X113682780Y-99042220D01*
X113718340Y-99070160D01*
X113743740Y-99087940D01*
X113761520Y-99103180D01*
X113626900Y-99425760D01*
X113606580Y-99476560D01*
X113568480Y-99565460D01*
X113538000Y-99641660D01*
X113510060Y-99702620D01*
X113492280Y-99743260D01*
X113484660Y-99758500D01*
X113471960Y-99761040D01*
X113449100Y-99753420D01*
X113403380Y-99730560D01*
X113372900Y-99715320D01*
X113339880Y-99700080D01*
X113324640Y-99692460D01*
X113309400Y-99700080D01*
X113276380Y-99720400D01*
X113230660Y-99753420D01*
X113172240Y-99791520D01*
X113116360Y-99829620D01*
X113065560Y-99862640D01*
X113030000Y-99888040D01*
X113012220Y-99895660D01*
X113009680Y-99895660D01*
X112991900Y-99888040D01*
X112963960Y-99862640D01*
X112920780Y-99822000D01*
X112857280Y-99761040D01*
X112847120Y-99750880D01*
X112796320Y-99700080D01*
X112755680Y-99654360D01*
X112727740Y-99623880D01*
X112717580Y-99611180D01*
X112727740Y-99593400D01*
X112750600Y-99555300D01*
X112783620Y-99504500D01*
X112824260Y-99443540D01*
X112930940Y-99288600D01*
X112872520Y-99143820D01*
X112854740Y-99098100D01*
X112831880Y-99042220D01*
X112814100Y-99004120D01*
X112806480Y-98986340D01*
X112788700Y-98981260D01*
X112750600Y-98971100D01*
X112692180Y-98960940D01*
X112621060Y-98948240D01*
X112555020Y-98935540D01*
X112496600Y-98922840D01*
X112453420Y-98915220D01*
X112433100Y-98912680D01*
X112428020Y-98907600D01*
X112425480Y-98899980D01*
X112422940Y-98879660D01*
X112420400Y-98841560D01*
X112420400Y-98785680D01*
X112420400Y-98701860D01*
X112420400Y-98694240D01*
X112420400Y-98615500D01*
X112422940Y-98552000D01*
X112425480Y-98513900D01*
X112428020Y-98496120D01*
X112445800Y-98491040D01*
X112488980Y-98483420D01*
X112547400Y-98470720D01*
X112618520Y-98458020D01*
X112623600Y-98458020D01*
X112694720Y-98442780D01*
X112753140Y-98430080D01*
X112796320Y-98422460D01*
X112814100Y-98414840D01*
X112816640Y-98409760D01*
X112831880Y-98381820D01*
X112852200Y-98338640D01*
X112875060Y-98285300D01*
X112897920Y-98229420D01*
X112918240Y-98178620D01*
X112930940Y-98143060D01*
X112936020Y-98125280D01*
X112925860Y-98107500D01*
X112900460Y-98071940D01*
X112864900Y-98021140D01*
X112824260Y-97960180D01*
X112821720Y-97955100D01*
X112781080Y-97894140D01*
X112748060Y-97843340D01*
X112725200Y-97807780D01*
X112717580Y-97792540D01*
X112717580Y-97790000D01*
X112730280Y-97772220D01*
X112760760Y-97739200D01*
X112806480Y-97693480D01*
X112857280Y-97640140D01*
X112875060Y-97624900D01*
X112933480Y-97566480D01*
X112974120Y-97530920D01*
X112999520Y-97510600D01*
X113009680Y-97505520D01*
X113012220Y-97505520D01*
X113030000Y-97515680D01*
X113068100Y-97541080D01*
X113118900Y-97576640D01*
X113179860Y-97617280D01*
X113182400Y-97619820D01*
X113243360Y-97660460D01*
X113294160Y-97696020D01*
X113329720Y-97718880D01*
X113344960Y-97726500D01*
X113347500Y-97726500D01*
X113370360Y-97721420D01*
X113413540Y-97706180D01*
X113466880Y-97685860D01*
X113522760Y-97663000D01*
X113573560Y-97642680D01*
X113609120Y-97624900D01*
X113626900Y-97614740D01*
X113629440Y-97614740D01*
X113634520Y-97591880D01*
X113644680Y-97546160D01*
X113657380Y-97485200D01*
X113672620Y-97411540D01*
X113675160Y-97401380D01*
X113687860Y-97327720D01*
X113698020Y-97269300D01*
X113708180Y-97228660D01*
X113710720Y-97210880D01*
X113720880Y-97210880D01*
X113756440Y-97208340D01*
X113809780Y-97205800D01*
X113875820Y-97205800D01*
X113941860Y-97205800D01*
X114007900Y-97205800D01*
X114063780Y-97208340D01*
X114104420Y-97210880D01*
X114122200Y-97215960D01*
X114127280Y-97238820D01*
X114137440Y-97282000D01*
X114150140Y-97345500D01*
X114165380Y-97419160D01*
X114167920Y-97431860D01*
X114180620Y-97502980D01*
X114193320Y-97561400D01*
X114200940Y-97602040D01*
X114206020Y-97617280D01*
X114211100Y-97619820D01*
X114241580Y-97635060D01*
X114289840Y-97652840D01*
X114348260Y-97678240D01*
X114485420Y-97734120D01*
X114653060Y-97617280D01*
X114668300Y-97607120D01*
X114729260Y-97566480D01*
X114780060Y-97533460D01*
X114815620Y-97510600D01*
X114828320Y-97502980D01*
X114830860Y-97502980D01*
X114846100Y-97518220D01*
X114879120Y-97548700D01*
X114924840Y-97594420D01*
X114978180Y-97645220D01*
X115018820Y-97685860D01*
X115064540Y-97731580D01*
X115092480Y-97764600D01*
X115110260Y-97784920D01*
X115115340Y-97797620D01*
X115112800Y-97805240D01*
X115102640Y-97823020D01*
X115077240Y-97858580D01*
X115044220Y-97911920D01*
X115003580Y-97970340D01*
X114968020Y-98021140D01*
X114932460Y-98077020D01*
X114909600Y-98117660D01*
X114899440Y-98135440D01*
X114901980Y-98145600D01*
X114914680Y-98178620D01*
X114935000Y-98226880D01*
X114960400Y-98287840D01*
X115018820Y-98419920D01*
X115105180Y-98437700D01*
X115158520Y-98447860D01*
X115232180Y-98460560D01*
X115303300Y-98475800D01*
X115415060Y-98496120D01*
X115417600Y-98899980D01*
X115399820Y-98907600D01*
X115384580Y-98912680D01*
X115343940Y-98922840D01*
X115285520Y-98933000D01*
X115216940Y-98945700D01*
X115155980Y-98958400D01*
X115097560Y-98968560D01*
X115054380Y-98976180D01*
X115036600Y-98981260D01*
X115031520Y-98986340D01*
X115016280Y-99016820D01*
X114995960Y-99062540D01*
X114973100Y-99115880D01*
X114947700Y-99174300D01*
X114927380Y-99225100D01*
X114912140Y-99265740D01*
X114907060Y-99286060D01*
X114914680Y-99301300D01*
X114937540Y-99336860D01*
X114970560Y-99387660D01*
X115011200Y-99446080D01*
X115051840Y-99504500D01*
X115084860Y-99555300D01*
X115110260Y-99590860D01*
X115117880Y-99608640D01*
X115112800Y-99618800D01*
X115089940Y-99646740D01*
X115046760Y-99692460D01*
X114980720Y-99758500D01*
X114968020Y-99768660D01*
X114917220Y-99819460D01*
X114871500Y-99860100D01*
X114841020Y-99888040D01*
X114828320Y-99898200D01*
D13*
X78994000Y-124904500D02*
X81788000Y-124904500D01*
X78994000Y-125476000D02*
X78994000Y-121920000D01*
X78994000Y-121920000D02*
X81788000Y-121920000D01*
X81788000Y-121920000D02*
X81788000Y-125476000D01*
X81788000Y-125476000D02*
X78994000Y-125476000D01*
X84397000Y-117093500D02*
X81603000Y-117093500D01*
X84397000Y-116522000D02*
X84397000Y-120078000D01*
X84397000Y-120078000D02*
X81603000Y-120078000D01*
X81603000Y-120078000D02*
X81603000Y-116522000D01*
X81603000Y-116522000D02*
X84397000Y-116522000D01*
X107950000Y-120015000D02*
X113030000Y-120015000D01*
X107950000Y-115697000D02*
X113030000Y-115697000D01*
X107950000Y-115062000D02*
X107950000Y-120650000D01*
X107950000Y-120650000D02*
X113030000Y-120650000D01*
X113030000Y-120650000D02*
X113030000Y-115062000D01*
X113030000Y-115062000D02*
X107950000Y-115062000D01*
D16*
X112336580Y-122740420D02*
X111437420Y-122740420D01*
X111437420Y-122740420D02*
X111437420Y-122341640D01*
X112336580Y-122341640D02*
X111437420Y-122341640D01*
X112336580Y-122740420D02*
X112336580Y-122341640D01*
X112336580Y-124038360D02*
X111437420Y-124038360D01*
X111437420Y-124038360D02*
X111437420Y-123639580D01*
X112336580Y-123639580D02*
X111437420Y-123639580D01*
X112336580Y-124038360D02*
X112336580Y-123639580D01*
X112336580Y-123190000D02*
X112186720Y-123190000D01*
X112186720Y-123190000D02*
X112186720Y-122890280D01*
X112336580Y-122890280D02*
X112186720Y-122890280D01*
X112336580Y-123190000D02*
X112336580Y-122890280D01*
X111587280Y-123190000D02*
X111437420Y-123190000D01*
X111437420Y-123190000D02*
X111437420Y-122890280D01*
X111587280Y-122890280D02*
X111437420Y-122890280D01*
X111587280Y-123190000D02*
X111587280Y-122890280D01*
X112036860Y-123190000D02*
X111737140Y-123190000D01*
X111737140Y-123190000D02*
X111737140Y-122890280D01*
X112036860Y-122890280D02*
X111737140Y-122890280D01*
X112036860Y-123190000D02*
X112036860Y-122890280D01*
D17*
X112285780Y-122740420D02*
X112285780Y-123639580D01*
X111488220Y-122740420D02*
X111488220Y-123639580D01*
D16*
X110899580Y-122750420D02*
X110000420Y-122750420D01*
X110000420Y-122750420D02*
X110000420Y-122351640D01*
X110899580Y-122351640D02*
X110000420Y-122351640D01*
X110899580Y-122750420D02*
X110899580Y-122351640D01*
X110899580Y-124048360D02*
X110000420Y-124048360D01*
X110000420Y-124048360D02*
X110000420Y-123649580D01*
X110899580Y-123649580D02*
X110000420Y-123649580D01*
X110899580Y-124048360D02*
X110899580Y-123649580D01*
X110899580Y-123200000D02*
X110749720Y-123200000D01*
X110749720Y-123200000D02*
X110749720Y-122900280D01*
X110899580Y-122900280D02*
X110749720Y-122900280D01*
X110899580Y-123200000D02*
X110899580Y-122900280D01*
X110150280Y-123200000D02*
X110000420Y-123200000D01*
X110000420Y-123200000D02*
X110000420Y-122900280D01*
X110150280Y-122900280D02*
X110000420Y-122900280D01*
X110150280Y-123200000D02*
X110150280Y-122900280D01*
X110599860Y-123200000D02*
X110300140Y-123200000D01*
X110300140Y-123200000D02*
X110300140Y-122900280D01*
X110599860Y-122900280D02*
X110300140Y-122900280D01*
X110599860Y-123200000D02*
X110599860Y-122900280D01*
D17*
X110848780Y-122750420D02*
X110848780Y-123649580D01*
X110051220Y-122750420D02*
X110051220Y-123649580D01*
D16*
X109499580Y-122750420D02*
X108600420Y-122750420D01*
X108600420Y-122750420D02*
X108600420Y-122351640D01*
X109499580Y-122351640D02*
X108600420Y-122351640D01*
X109499580Y-122750420D02*
X109499580Y-122351640D01*
X109499580Y-124048360D02*
X108600420Y-124048360D01*
X108600420Y-124048360D02*
X108600420Y-123649580D01*
X109499580Y-123649580D02*
X108600420Y-123649580D01*
X109499580Y-124048360D02*
X109499580Y-123649580D01*
X109499580Y-123200000D02*
X109349720Y-123200000D01*
X109349720Y-123200000D02*
X109349720Y-122900280D01*
X109499580Y-122900280D02*
X109349720Y-122900280D01*
X109499580Y-123200000D02*
X109499580Y-122900280D01*
X108750280Y-123200000D02*
X108600420Y-123200000D01*
X108600420Y-123200000D02*
X108600420Y-122900280D01*
X108750280Y-122900280D02*
X108600420Y-122900280D01*
X108750280Y-123200000D02*
X108750280Y-122900280D01*
X109199860Y-123200000D02*
X108900140Y-123200000D01*
X108900140Y-123200000D02*
X108900140Y-122900280D01*
X109199860Y-122900280D02*
X108900140Y-122900280D01*
X109199860Y-123200000D02*
X109199860Y-122900280D01*
D17*
X109448780Y-122750420D02*
X109448780Y-123649580D01*
X108651220Y-122750420D02*
X108651220Y-123649580D01*
D12*
X105544620Y-89341960D02*
X115943380Y-89341960D01*
X115943380Y-89341960D02*
X115943380Y-81544160D01*
X115943380Y-81544160D02*
X113543080Y-80243680D01*
X113543080Y-80243680D02*
X107944920Y-80243680D01*
X107944920Y-80243680D02*
X105544620Y-81544160D01*
X105544620Y-81544160D02*
X105544620Y-89341960D01*
X92717620Y-89341960D02*
X103116380Y-89341960D01*
X103116380Y-89341960D02*
X103116380Y-81544160D01*
X103116380Y-81544160D02*
X100716080Y-80243680D01*
X100716080Y-80243680D02*
X95117920Y-80243680D01*
X95117920Y-80243680D02*
X92717620Y-81544160D01*
X92717620Y-81544160D02*
X92717620Y-89341960D01*
X79636620Y-89341960D02*
X90035380Y-89341960D01*
X90035380Y-89341960D02*
X90035380Y-81544160D01*
X90035380Y-81544160D02*
X87635080Y-80243680D01*
X87635080Y-80243680D02*
X82036920Y-80243680D01*
X82036920Y-80243680D02*
X79636620Y-81544160D01*
X79636620Y-81544160D02*
X79636620Y-89341960D01*
D13*
X101660000Y-117443000D02*
X101660000Y-115157000D01*
X101660000Y-115157000D02*
X103311000Y-115157000D01*
X105089000Y-117443000D02*
X106740000Y-117443000D01*
X106740000Y-117443000D02*
X106740000Y-115157000D01*
X106740000Y-115157000D02*
X105089000Y-115157000D01*
X103311000Y-117443000D02*
X101660000Y-117443000D01*
X104648000Y-112903000D02*
X104648000Y-110617000D01*
X104648000Y-110617000D02*
X106299000Y-110617000D01*
X108077000Y-112903000D02*
X109728000Y-112903000D01*
X109728000Y-112903000D02*
X109728000Y-110617000D01*
X109728000Y-110617000D02*
X108077000Y-110617000D01*
X106299000Y-112903000D02*
X104648000Y-112903000D01*
X91440000Y-113411000D02*
X91440000Y-111125000D01*
X91440000Y-111125000D02*
X93091000Y-111125000D01*
X94869000Y-113411000D02*
X96520000Y-113411000D01*
X96520000Y-113411000D02*
X96520000Y-111125000D01*
X96520000Y-111125000D02*
X94869000Y-111125000D01*
X93091000Y-113411000D02*
X91440000Y-113411000D01*
X93599000Y-117348000D02*
X93599000Y-115062000D01*
X93599000Y-115062000D02*
X95250000Y-115062000D01*
X97028000Y-117348000D02*
X98679000Y-117348000D01*
X98679000Y-117348000D02*
X98679000Y-115062000D01*
X98679000Y-115062000D02*
X97028000Y-115062000D01*
X95250000Y-117348000D02*
X93599000Y-117348000D01*
X93599000Y-119761000D02*
X93599000Y-117475000D01*
X93599000Y-117475000D02*
X95250000Y-117475000D01*
X97028000Y-119761000D02*
X98679000Y-119761000D01*
X98679000Y-119761000D02*
X98679000Y-117475000D01*
X98679000Y-117475000D02*
X97028000Y-117475000D01*
X95250000Y-119761000D02*
X93599000Y-119761000D01*
X84501500Y-125599620D02*
X84501500Y-124893500D01*
X84501500Y-124893500D02*
X85898500Y-124893500D01*
X85898500Y-124893500D02*
X85898500Y-125599620D01*
X84501500Y-127306500D02*
X84501500Y-126600380D01*
X84501500Y-127306500D02*
X85898500Y-127306500D01*
X85898500Y-127306500D02*
X85898500Y-126600380D01*
X85898500Y-129500380D02*
X85898500Y-130206500D01*
X85898500Y-130206500D02*
X84501500Y-130206500D01*
X84501500Y-130206500D02*
X84501500Y-129500380D01*
X85898500Y-127793500D02*
X85898500Y-128499620D01*
X85898500Y-127793500D02*
X84501500Y-127793500D01*
X84501500Y-127793500D02*
X84501500Y-128499620D01*
X105727500Y-131833620D02*
X105727500Y-131127500D01*
X105727500Y-131127500D02*
X107124500Y-131127500D01*
X107124500Y-131127500D02*
X107124500Y-131833620D01*
X105727500Y-133540500D02*
X105727500Y-132834380D01*
X105727500Y-133540500D02*
X107124500Y-133540500D01*
X107124500Y-133540500D02*
X107124500Y-132834380D01*
X79629000Y-130436620D02*
X79629000Y-129730500D01*
X79629000Y-129730500D02*
X81026000Y-129730500D01*
X81026000Y-129730500D02*
X81026000Y-130436620D01*
X79629000Y-132143500D02*
X79629000Y-131437380D01*
X79629000Y-132143500D02*
X81026000Y-132143500D01*
X81026000Y-132143500D02*
X81026000Y-131437380D01*
X84010500Y-134866380D02*
X84010500Y-135572500D01*
X84010500Y-135572500D02*
X82613500Y-135572500D01*
X82613500Y-135572500D02*
X82613500Y-134866380D01*
X84010500Y-133159500D02*
X84010500Y-133865620D01*
X84010500Y-133159500D02*
X82613500Y-133159500D01*
X82613500Y-133159500D02*
X82613500Y-133865620D01*
X87058500Y-134866380D02*
X87058500Y-135572500D01*
X87058500Y-135572500D02*
X85661500Y-135572500D01*
X85661500Y-135572500D02*
X85661500Y-134866380D01*
X87058500Y-133159500D02*
X87058500Y-133865620D01*
X87058500Y-133159500D02*
X85661500Y-133159500D01*
X85661500Y-133159500D02*
X85661500Y-133865620D01*
X90106500Y-134866380D02*
X90106500Y-135572500D01*
X90106500Y-135572500D02*
X88709500Y-135572500D01*
X88709500Y-135572500D02*
X88709500Y-134866380D01*
X90106500Y-133159500D02*
X90106500Y-133865620D01*
X90106500Y-133159500D02*
X88709500Y-133159500D01*
X88709500Y-133159500D02*
X88709500Y-133865620D01*
X93154500Y-134866380D02*
X93154500Y-135572500D01*
X93154500Y-135572500D02*
X91757500Y-135572500D01*
X91757500Y-135572500D02*
X91757500Y-134866380D01*
X93154500Y-133159500D02*
X93154500Y-133865620D01*
X93154500Y-133159500D02*
X91757500Y-133159500D01*
X91757500Y-133159500D02*
X91757500Y-133865620D01*
X91630500Y-134866380D02*
X91630500Y-135572500D01*
X91630500Y-135572500D02*
X90233500Y-135572500D01*
X90233500Y-135572500D02*
X90233500Y-134866380D01*
X91630500Y-133159500D02*
X91630500Y-133865620D01*
X91630500Y-133159500D02*
X90233500Y-133159500D01*
X90233500Y-133159500D02*
X90233500Y-133865620D01*
X88582500Y-134866380D02*
X88582500Y-135572500D01*
X88582500Y-135572500D02*
X87185500Y-135572500D01*
X87185500Y-135572500D02*
X87185500Y-134866380D01*
X88582500Y-133159500D02*
X88582500Y-133865620D01*
X88582500Y-133159500D02*
X87185500Y-133159500D01*
X87185500Y-133159500D02*
X87185500Y-133865620D01*
X85534500Y-134866380D02*
X85534500Y-135572500D01*
X85534500Y-135572500D02*
X84137500Y-135572500D01*
X84137500Y-135572500D02*
X84137500Y-134866380D01*
X85534500Y-133159500D02*
X85534500Y-133865620D01*
X85534500Y-133159500D02*
X84137500Y-133159500D01*
X84137500Y-133159500D02*
X84137500Y-133865620D01*
X93733620Y-122364500D02*
X93027500Y-122364500D01*
X93027500Y-122364500D02*
X93027500Y-120967500D01*
X93027500Y-120967500D02*
X93733620Y-120967500D01*
X95440500Y-122364500D02*
X94734380Y-122364500D01*
X95440500Y-122364500D02*
X95440500Y-120967500D01*
X95440500Y-120967500D02*
X94734380Y-120967500D01*
X108401500Y-125499620D02*
X108401500Y-124793500D01*
X108401500Y-124793500D02*
X109798500Y-124793500D01*
X109798500Y-124793500D02*
X109798500Y-125499620D01*
X108401500Y-127206500D02*
X108401500Y-126500380D01*
X108401500Y-127206500D02*
X109798500Y-127206500D01*
X109798500Y-127206500D02*
X109798500Y-126500380D01*
X87764620Y-129222500D02*
X87058500Y-129222500D01*
X87058500Y-129222500D02*
X87058500Y-127825500D01*
X87058500Y-127825500D02*
X87764620Y-127825500D01*
X89471500Y-129222500D02*
X88765380Y-129222500D01*
X89471500Y-129222500D02*
X89471500Y-127825500D01*
X89471500Y-127825500D02*
X88765380Y-127825500D01*
X93200380Y-127351500D02*
X93906500Y-127351500D01*
X93906500Y-127351500D02*
X93906500Y-128748500D01*
X93906500Y-128748500D02*
X93200380Y-128748500D01*
X91493500Y-127351500D02*
X92199620Y-127351500D01*
X91493500Y-127351500D02*
X91493500Y-128748500D01*
X91493500Y-128748500D02*
X92199620Y-128748500D01*
X87764620Y-127698500D02*
X87058500Y-127698500D01*
X87058500Y-127698500D02*
X87058500Y-126301500D01*
X87058500Y-126301500D02*
X87764620Y-126301500D01*
X89471500Y-127698500D02*
X88765380Y-127698500D01*
X89471500Y-127698500D02*
X89471500Y-126301500D01*
X89471500Y-126301500D02*
X88765380Y-126301500D01*
X93200380Y-125851500D02*
X93906500Y-125851500D01*
X93906500Y-125851500D02*
X93906500Y-127248500D01*
X93906500Y-127248500D02*
X93200380Y-127248500D01*
X91493500Y-125851500D02*
X92199620Y-125851500D01*
X91493500Y-125851500D02*
X91493500Y-127248500D01*
X91493500Y-127248500D02*
X92199620Y-127248500D01*
X114546380Y-102425500D02*
X115252500Y-102425500D01*
X115252500Y-102425500D02*
X115252500Y-103822500D01*
X115252500Y-103822500D02*
X114546380Y-103822500D01*
X112839500Y-102425500D02*
X113545620Y-102425500D01*
X112839500Y-102425500D02*
X112839500Y-103822500D01*
X112839500Y-103822500D02*
X113545620Y-103822500D01*
X105092500Y-90797380D02*
X105092500Y-91503500D01*
X105092500Y-91503500D02*
X103695500Y-91503500D01*
X103695500Y-91503500D02*
X103695500Y-90797380D01*
X105092500Y-89090500D02*
X105092500Y-89796620D01*
X105092500Y-89090500D02*
X103695500Y-89090500D01*
X103695500Y-89090500D02*
X103695500Y-89796620D01*
X87749620Y-126148500D02*
X87043500Y-126148500D01*
X87043500Y-126148500D02*
X87043500Y-124751500D01*
X87043500Y-124751500D02*
X87749620Y-124751500D01*
X89456500Y-126148500D02*
X88750380Y-126148500D01*
X89456500Y-126148500D02*
X89456500Y-124751500D01*
X89456500Y-124751500D02*
X88750380Y-124751500D01*
X93200380Y-124351500D02*
X93906500Y-124351500D01*
X93906500Y-124351500D02*
X93906500Y-125748500D01*
X93906500Y-125748500D02*
X93200380Y-125748500D01*
X91493500Y-124351500D02*
X92199620Y-124351500D01*
X91493500Y-124351500D02*
X91493500Y-125748500D01*
X91493500Y-125748500D02*
X92199620Y-125748500D01*
X103695500Y-95003620D02*
X103695500Y-94297500D01*
X103695500Y-94297500D02*
X105092500Y-94297500D01*
X105092500Y-94297500D02*
X105092500Y-95003620D01*
X103695500Y-96710500D02*
X103695500Y-96004380D01*
X103695500Y-96710500D02*
X105092500Y-96710500D01*
X105092500Y-96710500D02*
X105092500Y-96004380D01*
X103695500Y-92463620D02*
X103695500Y-91757500D01*
X103695500Y-91757500D02*
X105092500Y-91757500D01*
X105092500Y-91757500D02*
X105092500Y-92463620D01*
X103695500Y-94170500D02*
X103695500Y-93464380D01*
X103695500Y-94170500D02*
X105092500Y-94170500D01*
X105092500Y-94170500D02*
X105092500Y-93464380D01*
X111401500Y-125499620D02*
X111401500Y-124793500D01*
X111401500Y-124793500D02*
X112798500Y-124793500D01*
X112798500Y-124793500D02*
X112798500Y-125499620D01*
X111401500Y-127206500D02*
X111401500Y-126500380D01*
X111401500Y-127206500D02*
X112798500Y-127206500D01*
X112798500Y-127206500D02*
X112798500Y-126500380D01*
X109901500Y-125499620D02*
X109901500Y-124793500D01*
X109901500Y-124793500D02*
X111298500Y-124793500D01*
X111298500Y-124793500D02*
X111298500Y-125499620D01*
X109901500Y-127206500D02*
X109901500Y-126500380D01*
X109901500Y-127206500D02*
X111298500Y-127206500D01*
X111298500Y-127206500D02*
X111298500Y-126500380D01*
X90487500Y-94495620D02*
X90487500Y-93789500D01*
X90487500Y-93789500D02*
X91884500Y-93789500D01*
X91884500Y-93789500D02*
X91884500Y-94495620D01*
X90487500Y-96202500D02*
X90487500Y-95496380D01*
X90487500Y-96202500D02*
X91884500Y-96202500D01*
X91884500Y-96202500D02*
X91884500Y-95496380D01*
X90487500Y-91701620D02*
X90487500Y-90995500D01*
X90487500Y-90995500D02*
X91884500Y-90995500D01*
X91884500Y-90995500D02*
X91884500Y-91701620D01*
X90487500Y-93408500D02*
X90487500Y-92702380D01*
X90487500Y-93408500D02*
X91884500Y-93408500D01*
X91884500Y-93408500D02*
X91884500Y-92702380D01*
X83050380Y-131635500D02*
X83756500Y-131635500D01*
X83756500Y-131635500D02*
X83756500Y-133032500D01*
X83756500Y-133032500D02*
X83050380Y-133032500D01*
X81343500Y-131635500D02*
X82049620Y-131635500D01*
X81343500Y-131635500D02*
X81343500Y-133032500D01*
X81343500Y-133032500D02*
X82049620Y-133032500D01*
D18*
X87376000Y-121920000D02*
X84328000Y-121920000D01*
X84328000Y-121920000D02*
X84328000Y-114808000D01*
X84328000Y-114808000D02*
X87376000Y-114808000D01*
X90424000Y-121920000D02*
X91186000Y-121920000D01*
X91186000Y-121920000D02*
X93472000Y-120396000D01*
X93472000Y-120396000D02*
X93472000Y-116332000D01*
X93472000Y-116332000D02*
X91186000Y-114808000D01*
X91186000Y-114808000D02*
X90424000Y-114808000D01*
D19*
X101465380Y-119237760D02*
X102163880Y-119237760D01*
X100464620Y-119237760D02*
X99766120Y-119237760D01*
X101465380Y-120538240D02*
X102163880Y-120538240D01*
X99766120Y-120538240D02*
X100464620Y-120538240D01*
X102163880Y-120523000D02*
X102163880Y-119253000D01*
X99766120Y-119253000D02*
X99766120Y-120523000D01*
X106791760Y-122308620D02*
X106791760Y-121610120D01*
X106791760Y-123309380D02*
X106791760Y-124007880D01*
X108092240Y-122308620D02*
X108092240Y-121610120D01*
X108092240Y-124007880D02*
X108092240Y-123309380D01*
X108077000Y-121610120D02*
X106807000Y-121610120D01*
X106807000Y-124007880D02*
X108077000Y-124007880D01*
X99829620Y-131460240D02*
X99131120Y-131460240D01*
X100830380Y-131460240D02*
X101528880Y-131460240D01*
X99829620Y-130159760D02*
X99131120Y-130159760D01*
X101528880Y-130159760D02*
X100830380Y-130159760D01*
X99131120Y-130175000D02*
X99131120Y-131445000D01*
X101528880Y-131445000D02*
X101528880Y-130175000D01*
X93987620Y-136413240D02*
X93289120Y-136413240D01*
X94988380Y-136413240D02*
X95686880Y-136413240D01*
X93987620Y-135112760D02*
X93289120Y-135112760D01*
X95686880Y-135112760D02*
X94988380Y-135112760D01*
X93289120Y-135128000D02*
X93289120Y-136398000D01*
X95686880Y-136398000D02*
X95686880Y-135128000D01*
X104513380Y-133207760D02*
X105211880Y-133207760D01*
X103512620Y-133207760D02*
X102814120Y-133207760D01*
X104513380Y-134508240D02*
X105211880Y-134508240D01*
X102814120Y-134508240D02*
X103512620Y-134508240D01*
X105211880Y-134493000D02*
X105211880Y-133223000D01*
X102814120Y-133223000D02*
X102814120Y-134493000D01*
X84439760Y-122435620D02*
X84439760Y-121737120D01*
X84439760Y-123436380D02*
X84439760Y-124134880D01*
X85740240Y-122435620D02*
X85740240Y-121737120D01*
X85740240Y-124134880D02*
X85740240Y-123436380D01*
X85725000Y-121737120D02*
X84455000Y-121737120D01*
X84455000Y-124134880D02*
X85725000Y-124134880D01*
X105267760Y-122308620D02*
X105267760Y-121610120D01*
X105267760Y-123309380D02*
X105267760Y-124007880D01*
X106568240Y-122308620D02*
X106568240Y-121610120D01*
X106568240Y-124007880D02*
X106568240Y-123309380D01*
X106553000Y-121610120D02*
X105283000Y-121610120D01*
X105283000Y-124007880D02*
X106553000Y-124007880D01*
X101465380Y-120634760D02*
X102163880Y-120634760D01*
X100464620Y-120634760D02*
X99766120Y-120634760D01*
X101465380Y-121935240D02*
X102163880Y-121935240D01*
X99766120Y-121935240D02*
X100464620Y-121935240D01*
X102163880Y-121920000D02*
X102163880Y-120650000D01*
X99766120Y-120650000D02*
X99766120Y-121920000D01*
X97012760Y-124340620D02*
X97012760Y-123642120D01*
X97012760Y-125341380D02*
X97012760Y-126039880D01*
X98313240Y-124340620D02*
X98313240Y-123642120D01*
X98313240Y-126039880D02*
X98313240Y-125341380D01*
X98298000Y-123642120D02*
X97028000Y-123642120D01*
X97028000Y-126039880D02*
X98298000Y-126039880D01*
X106949760Y-125499620D02*
X106949760Y-124801120D01*
X106949760Y-126500380D02*
X106949760Y-127198880D01*
X108250240Y-125499620D02*
X108250240Y-124801120D01*
X108250240Y-127198880D02*
X108250240Y-126500380D01*
X108235000Y-124801120D02*
X106965000Y-124801120D01*
X106965000Y-127198880D02*
X108235000Y-127198880D01*
X98036380Y-130159760D02*
X98734880Y-130159760D01*
X97035620Y-130159760D02*
X96337120Y-130159760D01*
X98036380Y-131460240D02*
X98734880Y-131460240D01*
X96337120Y-131460240D02*
X97035620Y-131460240D01*
X98734880Y-131445000D02*
X98734880Y-130175000D01*
X96337120Y-130175000D02*
X96337120Y-131445000D01*
X96662240Y-125341380D02*
X96662240Y-126039880D01*
X96662240Y-124340620D02*
X96662240Y-123642120D01*
X95361760Y-125341380D02*
X95361760Y-126039880D01*
X95361760Y-123642120D02*
X95361760Y-124340620D01*
X95377000Y-126039880D02*
X96647000Y-126039880D01*
X96647000Y-123642120D02*
X95377000Y-123642120D01*
X85699760Y-131299620D02*
X85699760Y-130601120D01*
X85699760Y-132300380D02*
X85699760Y-132998880D01*
X87000240Y-131299620D02*
X87000240Y-130601120D01*
X87000240Y-132998880D02*
X87000240Y-132300380D01*
X86985000Y-130601120D02*
X85715000Y-130601120D01*
X85715000Y-132998880D02*
X86985000Y-132998880D01*
X90249760Y-131299620D02*
X90249760Y-130601120D01*
X90249760Y-132300380D02*
X90249760Y-132998880D01*
X91550240Y-131299620D02*
X91550240Y-130601120D01*
X91550240Y-132998880D02*
X91550240Y-132300380D01*
X91535000Y-130601120D02*
X90265000Y-130601120D01*
X90265000Y-132998880D02*
X91535000Y-132998880D01*
X91805760Y-131325620D02*
X91805760Y-130627120D01*
X91805760Y-132326380D02*
X91805760Y-133024880D01*
X93106240Y-131325620D02*
X93106240Y-130627120D01*
X93106240Y-133024880D02*
X93106240Y-132326380D01*
X93091000Y-130627120D02*
X91821000Y-130627120D01*
X91821000Y-133024880D02*
X93091000Y-133024880D01*
X82438240Y-134866380D02*
X82438240Y-135564880D01*
X82438240Y-133865620D02*
X82438240Y-133167120D01*
X81137760Y-134866380D02*
X81137760Y-135564880D01*
X81137760Y-133167120D02*
X81137760Y-133865620D01*
X81153000Y-135564880D02*
X82423000Y-135564880D01*
X82423000Y-133167120D02*
X81153000Y-133167120D01*
X112119967Y-130099611D02*
X111626053Y-130593525D01*
X112827611Y-129391967D02*
X113321525Y-128898053D01*
X111200389Y-129180033D02*
X110706475Y-129673947D01*
X112401947Y-127978475D02*
X111908033Y-128472389D01*
X110717251Y-129684723D02*
X111615277Y-130582749D01*
X113310749Y-128887277D02*
X112412723Y-127989251D01*
X84343240Y-128262380D02*
X84343240Y-128960880D01*
X84343240Y-127261620D02*
X84343240Y-126563120D01*
X83042760Y-128262380D02*
X83042760Y-128960880D01*
X83042760Y-126563120D02*
X83042760Y-127261620D01*
X83058000Y-128960880D02*
X84328000Y-128960880D01*
X84328000Y-126563120D02*
X83058000Y-126563120D01*
D10*
X81383095Y-122670380D02*
X81383095Y-121670380D01*
X81002142Y-121670380D01*
X80906904Y-121718000D01*
X80859285Y-121765619D01*
X80811666Y-121860857D01*
X80811666Y-122003714D01*
X80859285Y-122098952D01*
X80906904Y-122146571D01*
X81002142Y-122194190D01*
X81383095Y-122194190D01*
X80478333Y-121670380D02*
X79859285Y-121670380D01*
X80192619Y-122051333D01*
X80049761Y-122051333D01*
X79954523Y-122098952D01*
X79906904Y-122146571D01*
X79859285Y-122241809D01*
X79859285Y-122479904D01*
X79906904Y-122575142D01*
X79954523Y-122622761D01*
X80049761Y-122670380D01*
X80335476Y-122670380D01*
X80430714Y-122622761D01*
X80478333Y-122575142D01*
X82248333Y-107700380D02*
X82248333Y-108414666D01*
X82295952Y-108557523D01*
X82391190Y-108652761D01*
X82534047Y-108700380D01*
X82629285Y-108700380D01*
X81248333Y-108700380D02*
X81819761Y-108700380D01*
X81534047Y-108700380D02*
X81534047Y-107700380D01*
X81629285Y-107843238D01*
X81724523Y-107938476D01*
X81819761Y-107986095D01*
X97488333Y-107700380D02*
X97488333Y-108414666D01*
X97535952Y-108557523D01*
X97631190Y-108652761D01*
X97774047Y-108700380D01*
X97869285Y-108700380D01*
X97059761Y-107795619D02*
X97012142Y-107748000D01*
X96916904Y-107700380D01*
X96678809Y-107700380D01*
X96583571Y-107748000D01*
X96535952Y-107795619D01*
X96488333Y-107890857D01*
X96488333Y-107986095D01*
X96535952Y-108128952D01*
X97107380Y-108700380D01*
X96488333Y-108700380D01*
X109934333Y-79887380D02*
X109934333Y-80601666D01*
X109981952Y-80744523D01*
X110077190Y-80839761D01*
X110220047Y-80887380D01*
X110315285Y-80887380D01*
X108981952Y-79887380D02*
X109458142Y-79887380D01*
X109505761Y-80363571D01*
X109458142Y-80315952D01*
X109362904Y-80268333D01*
X109124809Y-80268333D01*
X109029571Y-80315952D01*
X108981952Y-80363571D01*
X108934333Y-80458809D01*
X108934333Y-80696904D01*
X108981952Y-80792142D01*
X109029571Y-80839761D01*
X109124809Y-80887380D01*
X109362904Y-80887380D01*
X109458142Y-80839761D01*
X109505761Y-80792142D01*
X85423333Y-79887380D02*
X85423333Y-80601666D01*
X85470952Y-80744523D01*
X85566190Y-80839761D01*
X85709047Y-80887380D01*
X85804285Y-80887380D01*
X85042380Y-79887380D02*
X84423333Y-79887380D01*
X84756666Y-80268333D01*
X84613809Y-80268333D01*
X84518571Y-80315952D01*
X84470952Y-80363571D01*
X84423333Y-80458809D01*
X84423333Y-80696904D01*
X84470952Y-80792142D01*
X84518571Y-80839761D01*
X84613809Y-80887380D01*
X84899523Y-80887380D01*
X84994761Y-80839761D01*
X85042380Y-80792142D01*
X97996333Y-79887380D02*
X97996333Y-80601666D01*
X98043952Y-80744523D01*
X98139190Y-80839761D01*
X98282047Y-80887380D01*
X98377285Y-80887380D01*
X97091571Y-80220714D02*
X97091571Y-80887380D01*
X97329666Y-79839761D02*
X97567761Y-80554047D01*
X96948714Y-80554047D01*
X86082095Y-110942380D02*
X86082095Y-109942380D01*
X85844000Y-109942380D01*
X85701142Y-109990000D01*
X85605904Y-110085238D01*
X85558285Y-110180476D01*
X85510666Y-110370952D01*
X85510666Y-110513809D01*
X85558285Y-110704285D01*
X85605904Y-110799523D01*
X85701142Y-110894761D01*
X85844000Y-110942380D01*
X86082095Y-110942380D01*
X84653523Y-110275714D02*
X84653523Y-110942380D01*
X84891619Y-109894761D02*
X85129714Y-110609047D01*
X84510666Y-110609047D01*
X90050904Y-111450380D02*
X90050904Y-110450380D01*
X89479476Y-111450380D02*
X89908047Y-110878952D01*
X89479476Y-110450380D02*
X90050904Y-111021809D01*
X82534095Y-112180666D02*
X82057904Y-112180666D01*
X82629333Y-112466380D02*
X82296000Y-111466380D01*
X81962666Y-112466380D01*
D20*
X105591428Y-99350285D02*
X104865714Y-98842285D01*
X105591428Y-98479428D02*
X104067428Y-98479428D01*
X104067428Y-99060000D01*
X104140000Y-99205142D01*
X104212571Y-99277714D01*
X104357714Y-99350285D01*
X104575428Y-99350285D01*
X104720571Y-99277714D01*
X104793142Y-99205142D01*
X104865714Y-99060000D01*
X104865714Y-98479428D01*
X104067428Y-100729142D02*
X104067428Y-100003428D01*
X104793142Y-99930857D01*
X104720571Y-100003428D01*
X104648000Y-100148571D01*
X104648000Y-100511428D01*
X104720571Y-100656571D01*
X104793142Y-100729142D01*
X104938285Y-100801714D01*
X105301142Y-100801714D01*
X105446285Y-100729142D01*
X105518857Y-100656571D01*
X105591428Y-100511428D01*
X105591428Y-100148571D01*
X105518857Y-100003428D01*
X105446285Y-99930857D01*
X104067428Y-101309714D02*
X104067428Y-102253142D01*
X104648000Y-101745142D01*
X104648000Y-101962857D01*
X104720571Y-102108000D01*
X104793142Y-102180571D01*
X104938285Y-102253142D01*
X105301142Y-102253142D01*
X105446285Y-102180571D01*
X105518857Y-102108000D01*
X105591428Y-101962857D01*
X105591428Y-101527428D01*
X105518857Y-101382285D01*
X105446285Y-101309714D01*
X90859428Y-99350285D02*
X90133714Y-98842285D01*
X90859428Y-98479428D02*
X89335428Y-98479428D01*
X89335428Y-99060000D01*
X89408000Y-99205142D01*
X89480571Y-99277714D01*
X89625714Y-99350285D01*
X89843428Y-99350285D01*
X89988571Y-99277714D01*
X90061142Y-99205142D01*
X90133714Y-99060000D01*
X90133714Y-98479428D01*
X89335428Y-100729142D02*
X89335428Y-100003428D01*
X90061142Y-99930857D01*
X89988571Y-100003428D01*
X89916000Y-100148571D01*
X89916000Y-100511428D01*
X89988571Y-100656571D01*
X90061142Y-100729142D01*
X90206285Y-100801714D01*
X90569142Y-100801714D01*
X90714285Y-100729142D01*
X90786857Y-100656571D01*
X90859428Y-100511428D01*
X90859428Y-100148571D01*
X90786857Y-100003428D01*
X90714285Y-99930857D01*
X89843428Y-102108000D02*
X90859428Y-102108000D01*
X89262857Y-101745142D02*
X90351428Y-101382285D01*
X90351428Y-102325714D01*
D19*
X110732328Y-131353862D02*
X110732328Y-130853482D01*
X110613190Y-130853482D01*
X110541707Y-130877310D01*
X110494051Y-130924965D01*
X110470224Y-130972620D01*
X110446396Y-131067930D01*
X110446396Y-131139413D01*
X110470224Y-131234724D01*
X110494051Y-131282379D01*
X110541707Y-131330034D01*
X110613190Y-131353862D01*
X110732328Y-131353862D01*
X109993671Y-130853482D02*
X110231948Y-130853482D01*
X110255775Y-131091758D01*
X110231948Y-131067930D01*
X110184292Y-131044103D01*
X110065154Y-131044103D01*
X110017499Y-131067930D01*
X109993671Y-131091758D01*
X109969844Y-131139413D01*
X109969844Y-131258551D01*
X109993671Y-131306207D01*
X110017499Y-131330034D01*
X110065154Y-131353862D01*
X110184292Y-131353862D01*
X110231948Y-131330034D01*
X110255775Y-131306207D01*
D21*
X101516857Y-135732714D02*
X101008857Y-136494714D01*
X101008857Y-135732714D02*
X101516857Y-136494714D01*
X100754857Y-135805285D02*
X100718571Y-135769000D01*
X100646000Y-135732714D01*
X100464571Y-135732714D01*
X100392000Y-135769000D01*
X100355714Y-135805285D01*
X100319428Y-135877857D01*
X100319428Y-135950428D01*
X100355714Y-136059285D01*
X100791142Y-136494714D01*
X100319428Y-136494714D01*
D19*
X82474707Y-123503327D02*
X82498534Y-123479499D01*
X82522362Y-123408016D01*
X82522362Y-123360361D01*
X82498534Y-123288878D01*
X82450879Y-123241223D01*
X82403224Y-123217395D01*
X82307913Y-123193568D01*
X82236430Y-123193568D01*
X82141120Y-123217395D01*
X82093465Y-123241223D01*
X82045810Y-123288878D01*
X82021982Y-123360361D01*
X82021982Y-123408016D01*
X82045810Y-123479499D01*
X82069637Y-123503327D01*
X82069637Y-123693948D02*
X82045810Y-123717775D01*
X82021982Y-123765430D01*
X82021982Y-123884569D01*
X82045810Y-123932224D01*
X82069637Y-123956051D01*
X82117292Y-123979879D01*
X82164948Y-123979879D01*
X82236430Y-123956051D01*
X82522362Y-123670120D01*
X82522362Y-123979879D01*
X82021982Y-124432604D02*
X82021982Y-124194328D01*
X82260258Y-124170500D01*
X82236430Y-124194328D01*
X82212603Y-124241983D01*
X82212603Y-124361121D01*
X82236430Y-124408776D01*
X82260258Y-124432604D01*
X82307913Y-124456431D01*
X82427051Y-124456431D01*
X82474707Y-124432604D01*
X82498534Y-124408776D01*
X82522362Y-124361121D01*
X82522362Y-124241983D01*
X82498534Y-124194328D01*
X82474707Y-124170500D01*
X82347707Y-114359327D02*
X82371534Y-114335499D01*
X82395362Y-114264016D01*
X82395362Y-114216361D01*
X82371534Y-114144878D01*
X82323879Y-114097223D01*
X82276224Y-114073395D01*
X82180913Y-114049568D01*
X82109430Y-114049568D01*
X82014120Y-114073395D01*
X81966465Y-114097223D01*
X81918810Y-114144878D01*
X81894982Y-114216361D01*
X81894982Y-114264016D01*
X81918810Y-114335499D01*
X81942637Y-114359327D01*
X81894982Y-114526120D02*
X81894982Y-114835879D01*
X82085603Y-114669086D01*
X82085603Y-114740569D01*
X82109430Y-114788224D01*
X82133258Y-114812051D01*
X82180913Y-114835879D01*
X82300051Y-114835879D01*
X82347707Y-114812051D01*
X82371534Y-114788224D01*
X82395362Y-114740569D01*
X82395362Y-114597603D01*
X82371534Y-114549948D01*
X82347707Y-114526120D01*
X81894982Y-115002672D02*
X81894982Y-115312431D01*
X82085603Y-115145638D01*
X82085603Y-115217121D01*
X82109430Y-115264776D01*
X82133258Y-115288604D01*
X82180913Y-115312431D01*
X82300051Y-115312431D01*
X82347707Y-115288604D01*
X82371534Y-115264776D01*
X82395362Y-115217121D01*
X82395362Y-115074155D01*
X82371534Y-115026500D01*
X82347707Y-115002672D01*
X107678707Y-116678327D02*
X107702534Y-116654499D01*
X107726362Y-116583016D01*
X107726362Y-116535361D01*
X107702534Y-116463878D01*
X107654879Y-116416223D01*
X107607224Y-116392395D01*
X107511913Y-116368568D01*
X107440430Y-116368568D01*
X107345120Y-116392395D01*
X107297465Y-116416223D01*
X107249810Y-116463878D01*
X107225982Y-116535361D01*
X107225982Y-116583016D01*
X107249810Y-116654499D01*
X107273637Y-116678327D01*
X107225982Y-117131051D02*
X107225982Y-116892775D01*
X107464258Y-116868948D01*
X107440430Y-116892775D01*
X107416603Y-116940430D01*
X107416603Y-117059569D01*
X107440430Y-117107224D01*
X107464258Y-117131051D01*
X107511913Y-117154879D01*
X107631051Y-117154879D01*
X107678707Y-117131051D01*
X107702534Y-117107224D01*
X107726362Y-117059569D01*
X107726362Y-116940430D01*
X107702534Y-116892775D01*
X107678707Y-116868948D01*
X107726362Y-117631431D02*
X107726362Y-117345500D01*
X107726362Y-117488466D02*
X107225982Y-117488466D01*
X107297465Y-117440810D01*
X107345120Y-117393155D01*
X107368948Y-117345500D01*
D13*
X112174952Y-122029809D02*
X112174952Y-121521809D01*
X112054000Y-121521809D01*
X111981428Y-121546000D01*
X111933047Y-121594380D01*
X111908857Y-121642761D01*
X111884666Y-121739523D01*
X111884666Y-121812095D01*
X111908857Y-121908857D01*
X111933047Y-121957238D01*
X111981428Y-122005619D01*
X112054000Y-122029809D01*
X112174952Y-122029809D01*
X111400857Y-122029809D02*
X111691142Y-122029809D01*
X111546000Y-122029809D02*
X111546000Y-121521809D01*
X111594380Y-121594380D01*
X111642761Y-121642761D01*
X111691142Y-121666952D01*
X110861952Y-122039809D02*
X110861952Y-121531809D01*
X110741000Y-121531809D01*
X110668428Y-121556000D01*
X110620047Y-121604380D01*
X110595857Y-121652761D01*
X110571666Y-121749523D01*
X110571666Y-121822095D01*
X110595857Y-121918857D01*
X110620047Y-121967238D01*
X110668428Y-122015619D01*
X110741000Y-122039809D01*
X110861952Y-122039809D01*
X110378142Y-121580190D02*
X110353952Y-121556000D01*
X110305571Y-121531809D01*
X110184619Y-121531809D01*
X110136238Y-121556000D01*
X110112047Y-121580190D01*
X110087857Y-121628571D01*
X110087857Y-121676952D01*
X110112047Y-121749523D01*
X110402333Y-122039809D01*
X110087857Y-122039809D01*
X109474952Y-122029809D02*
X109474952Y-121521809D01*
X109354000Y-121521809D01*
X109281428Y-121546000D01*
X109233047Y-121594380D01*
X109208857Y-121642761D01*
X109184666Y-121739523D01*
X109184666Y-121812095D01*
X109208857Y-121908857D01*
X109233047Y-121957238D01*
X109281428Y-122005619D01*
X109354000Y-122029809D01*
X109474952Y-122029809D01*
X109015333Y-121521809D02*
X108700857Y-121521809D01*
X108870190Y-121715333D01*
X108797619Y-121715333D01*
X108749238Y-121739523D01*
X108725047Y-121763714D01*
X108700857Y-121812095D01*
X108700857Y-121933047D01*
X108725047Y-121981428D01*
X108749238Y-122005619D01*
X108797619Y-122029809D01*
X108942761Y-122029809D01*
X108991142Y-122005619D01*
X109015333Y-121981428D01*
X100711000Y-116477142D02*
X100747285Y-116513428D01*
X100856142Y-116549714D01*
X100928714Y-116549714D01*
X101037571Y-116513428D01*
X101110142Y-116440857D01*
X101146428Y-116368285D01*
X101182714Y-116223142D01*
X101182714Y-116114285D01*
X101146428Y-115969142D01*
X101110142Y-115896571D01*
X101037571Y-115824000D01*
X100928714Y-115787714D01*
X100856142Y-115787714D01*
X100747285Y-115824000D01*
X100711000Y-115860285D01*
X100348142Y-116549714D02*
X100203000Y-116549714D01*
X100130428Y-116513428D01*
X100094142Y-116477142D01*
X100021571Y-116368285D01*
X99985285Y-116223142D01*
X99985285Y-115932857D01*
X100021571Y-115860285D01*
X100057857Y-115824000D01*
X100130428Y-115787714D01*
X100275571Y-115787714D01*
X100348142Y-115824000D01*
X100384428Y-115860285D01*
X100420714Y-115932857D01*
X100420714Y-116114285D01*
X100384428Y-116186857D01*
X100348142Y-116223142D01*
X100275571Y-116259428D01*
X100130428Y-116259428D01*
X100057857Y-116223142D01*
X100021571Y-116186857D01*
X99985285Y-116114285D01*
X103994857Y-112032142D02*
X104031142Y-112068428D01*
X104140000Y-112104714D01*
X104212571Y-112104714D01*
X104321428Y-112068428D01*
X104394000Y-111995857D01*
X104430285Y-111923285D01*
X104466571Y-111778142D01*
X104466571Y-111669285D01*
X104430285Y-111524142D01*
X104394000Y-111451571D01*
X104321428Y-111379000D01*
X104212571Y-111342714D01*
X104140000Y-111342714D01*
X104031142Y-111379000D01*
X103994857Y-111415285D01*
X103341714Y-111596714D02*
X103341714Y-112104714D01*
X103523142Y-111306428D02*
X103704571Y-111850714D01*
X103232857Y-111850714D01*
X102797428Y-111342714D02*
X102724857Y-111342714D01*
X102652285Y-111379000D01*
X102616000Y-111415285D01*
X102579714Y-111487857D01*
X102543428Y-111633000D01*
X102543428Y-111814428D01*
X102579714Y-111959571D01*
X102616000Y-112032142D01*
X102652285Y-112068428D01*
X102724857Y-112104714D01*
X102797428Y-112104714D01*
X102870000Y-112068428D01*
X102906285Y-112032142D01*
X102942571Y-111959571D01*
X102978857Y-111814428D01*
X102978857Y-111633000D01*
X102942571Y-111487857D01*
X102906285Y-111415285D01*
X102870000Y-111379000D01*
X102797428Y-111342714D01*
X93453857Y-114318142D02*
X93490142Y-114354428D01*
X93599000Y-114390714D01*
X93671571Y-114390714D01*
X93780428Y-114354428D01*
X93853000Y-114281857D01*
X93889285Y-114209285D01*
X93925571Y-114064142D01*
X93925571Y-113955285D01*
X93889285Y-113810142D01*
X93853000Y-113737571D01*
X93780428Y-113665000D01*
X93671571Y-113628714D01*
X93599000Y-113628714D01*
X93490142Y-113665000D01*
X93453857Y-113701285D01*
X92800714Y-113882714D02*
X92800714Y-114390714D01*
X92982142Y-113592428D02*
X93163571Y-114136714D01*
X92691857Y-114136714D01*
X92474142Y-113628714D02*
X92002428Y-113628714D01*
X92256428Y-113919000D01*
X92147571Y-113919000D01*
X92075000Y-113955285D01*
X92038714Y-113991571D01*
X92002428Y-114064142D01*
X92002428Y-114245571D01*
X92038714Y-114318142D01*
X92075000Y-114354428D01*
X92147571Y-114390714D01*
X92365285Y-114390714D01*
X92437857Y-114354428D01*
X92474142Y-114318142D01*
X99041857Y-114572142D02*
X99078142Y-114608428D01*
X99187000Y-114644714D01*
X99259571Y-114644714D01*
X99368428Y-114608428D01*
X99441000Y-114535857D01*
X99477285Y-114463285D01*
X99513571Y-114318142D01*
X99513571Y-114209285D01*
X99477285Y-114064142D01*
X99441000Y-113991571D01*
X99368428Y-113919000D01*
X99259571Y-113882714D01*
X99187000Y-113882714D01*
X99078142Y-113919000D01*
X99041857Y-113955285D01*
X98388714Y-114136714D02*
X98388714Y-114644714D01*
X98570142Y-113846428D02*
X98751571Y-114390714D01*
X98279857Y-114390714D01*
X97663000Y-114136714D02*
X97663000Y-114644714D01*
X97844428Y-113846428D02*
X98025857Y-114390714D01*
X97554142Y-114390714D01*
X98533857Y-120795142D02*
X98570142Y-120831428D01*
X98679000Y-120867714D01*
X98751571Y-120867714D01*
X98860428Y-120831428D01*
X98933000Y-120758857D01*
X98969285Y-120686285D01*
X99005571Y-120541142D01*
X99005571Y-120432285D01*
X98969285Y-120287142D01*
X98933000Y-120214571D01*
X98860428Y-120142000D01*
X98751571Y-120105714D01*
X98679000Y-120105714D01*
X98570142Y-120142000D01*
X98533857Y-120178285D01*
X97880714Y-120359714D02*
X97880714Y-120867714D01*
X98062142Y-120069428D02*
X98243571Y-120613714D01*
X97771857Y-120613714D01*
X97445285Y-120867714D02*
X97300142Y-120867714D01*
X97227571Y-120831428D01*
X97191285Y-120795142D01*
X97118714Y-120686285D01*
X97082428Y-120541142D01*
X97082428Y-120250857D01*
X97118714Y-120178285D01*
X97155000Y-120142000D01*
X97227571Y-120105714D01*
X97372714Y-120105714D01*
X97445285Y-120142000D01*
X97481571Y-120178285D01*
X97517857Y-120250857D01*
X97517857Y-120432285D01*
X97481571Y-120504857D01*
X97445285Y-120541142D01*
X97372714Y-120577428D01*
X97227571Y-120577428D01*
X97155000Y-120541142D01*
X97118714Y-120504857D01*
X97082428Y-120432285D01*
D22*
X86586362Y-127050800D02*
X86348086Y-126898400D01*
X86586362Y-126789542D02*
X86085982Y-126789542D01*
X86085982Y-126963714D01*
X86109810Y-127007257D01*
X86133637Y-127029028D01*
X86181292Y-127050800D01*
X86252775Y-127050800D01*
X86300430Y-127029028D01*
X86324258Y-127007257D01*
X86348086Y-126963714D01*
X86348086Y-126789542D01*
X86085982Y-127203200D02*
X86085982Y-127486228D01*
X86276603Y-127333828D01*
X86276603Y-127399142D01*
X86300430Y-127442685D01*
X86324258Y-127464457D01*
X86371913Y-127486228D01*
X86491051Y-127486228D01*
X86538707Y-127464457D01*
X86562534Y-127442685D01*
X86586362Y-127399142D01*
X86586362Y-127268514D01*
X86562534Y-127224971D01*
X86538707Y-127203200D01*
X86586362Y-129463800D02*
X86348086Y-129311400D01*
X86586362Y-129202542D02*
X86085982Y-129202542D01*
X86085982Y-129376714D01*
X86109810Y-129420257D01*
X86133637Y-129442028D01*
X86181292Y-129463800D01*
X86252775Y-129463800D01*
X86300430Y-129442028D01*
X86324258Y-129420257D01*
X86348086Y-129376714D01*
X86348086Y-129202542D01*
X86252775Y-129855685D02*
X86586362Y-129855685D01*
X86062154Y-129746828D02*
X86419569Y-129637971D01*
X86419569Y-129921000D01*
X106526200Y-134195362D02*
X106678600Y-133957086D01*
X106787457Y-134195362D02*
X106787457Y-133694982D01*
X106613285Y-133694982D01*
X106569742Y-133718810D01*
X106547971Y-133742637D01*
X106526200Y-133790292D01*
X106526200Y-133861775D01*
X106547971Y-133909430D01*
X106569742Y-133933258D01*
X106613285Y-133957086D01*
X106787457Y-133957086D01*
X106112542Y-133694982D02*
X106330257Y-133694982D01*
X106352028Y-133933258D01*
X106330257Y-133909430D01*
X106286714Y-133885603D01*
X106177857Y-133885603D01*
X106134314Y-133909430D01*
X106112542Y-133933258D01*
X106090771Y-133980913D01*
X106090771Y-134100051D01*
X106112542Y-134147707D01*
X106134314Y-134171534D01*
X106177857Y-134195362D01*
X106286714Y-134195362D01*
X106330257Y-134171534D01*
X106352028Y-134147707D01*
X79269862Y-130338800D02*
X79031586Y-130186400D01*
X79269862Y-130077542D02*
X78769482Y-130077542D01*
X78769482Y-130251714D01*
X78793310Y-130295257D01*
X78817137Y-130317028D01*
X78864792Y-130338800D01*
X78936275Y-130338800D01*
X78983930Y-130317028D01*
X79007758Y-130295257D01*
X79031586Y-130251714D01*
X79031586Y-130077542D01*
X78769482Y-130730685D02*
X78769482Y-130643600D01*
X78793310Y-130600057D01*
X78817137Y-130578285D01*
X78888620Y-130534742D01*
X78983930Y-130512971D01*
X79174551Y-130512971D01*
X79222207Y-130534742D01*
X79246034Y-130556514D01*
X79269862Y-130600057D01*
X79269862Y-130687142D01*
X79246034Y-130730685D01*
X79222207Y-130752457D01*
X79174551Y-130774228D01*
X79055413Y-130774228D01*
X79007758Y-130752457D01*
X78983930Y-130730685D01*
X78960103Y-130687142D01*
X78960103Y-130600057D01*
X78983930Y-130556514D01*
X79007758Y-130534742D01*
X79055413Y-130512971D01*
X83388200Y-136243362D02*
X83540600Y-136005086D01*
X83649457Y-136243362D02*
X83649457Y-135742982D01*
X83475285Y-135742982D01*
X83431742Y-135766810D01*
X83409971Y-135790637D01*
X83388200Y-135838292D01*
X83388200Y-135909775D01*
X83409971Y-135957430D01*
X83431742Y-135981258D01*
X83475285Y-136005086D01*
X83649457Y-136005086D01*
X83235800Y-135742982D02*
X82931000Y-135742982D01*
X83126942Y-136243362D01*
X86436200Y-136243362D02*
X86588600Y-136005086D01*
X86697457Y-136243362D02*
X86697457Y-135742982D01*
X86523285Y-135742982D01*
X86479742Y-135766810D01*
X86457971Y-135790637D01*
X86436200Y-135838292D01*
X86436200Y-135909775D01*
X86457971Y-135957430D01*
X86479742Y-135981258D01*
X86523285Y-136005086D01*
X86697457Y-136005086D01*
X86174942Y-135957430D02*
X86218485Y-135933603D01*
X86240257Y-135909775D01*
X86262028Y-135862120D01*
X86262028Y-135838292D01*
X86240257Y-135790637D01*
X86218485Y-135766810D01*
X86174942Y-135742982D01*
X86087857Y-135742982D01*
X86044314Y-135766810D01*
X86022542Y-135790637D01*
X86000771Y-135838292D01*
X86000771Y-135862120D01*
X86022542Y-135909775D01*
X86044314Y-135933603D01*
X86087857Y-135957430D01*
X86174942Y-135957430D01*
X86218485Y-135981258D01*
X86240257Y-136005086D01*
X86262028Y-136052741D01*
X86262028Y-136148051D01*
X86240257Y-136195707D01*
X86218485Y-136219534D01*
X86174942Y-136243362D01*
X86087857Y-136243362D01*
X86044314Y-136219534D01*
X86022542Y-136195707D01*
X86000771Y-136148051D01*
X86000771Y-136052741D01*
X86022542Y-136005086D01*
X86044314Y-135981258D01*
X86087857Y-135957430D01*
X89484200Y-136243362D02*
X89636600Y-136005086D01*
X89745457Y-136243362D02*
X89745457Y-135742982D01*
X89571285Y-135742982D01*
X89527742Y-135766810D01*
X89505971Y-135790637D01*
X89484200Y-135838292D01*
X89484200Y-135909775D01*
X89505971Y-135957430D01*
X89527742Y-135981258D01*
X89571285Y-136005086D01*
X89745457Y-136005086D01*
X89266485Y-136243362D02*
X89179400Y-136243362D01*
X89135857Y-136219534D01*
X89114085Y-136195707D01*
X89070542Y-136124224D01*
X89048771Y-136028913D01*
X89048771Y-135838292D01*
X89070542Y-135790637D01*
X89092314Y-135766810D01*
X89135857Y-135742982D01*
X89222942Y-135742982D01*
X89266485Y-135766810D01*
X89288257Y-135790637D01*
X89310028Y-135838292D01*
X89310028Y-135957430D01*
X89288257Y-136005086D01*
X89266485Y-136028913D01*
X89222942Y-136052741D01*
X89135857Y-136052741D01*
X89092314Y-136028913D01*
X89070542Y-136005086D01*
X89048771Y-135957430D01*
X92749914Y-136243362D02*
X92902314Y-136005086D01*
X93011171Y-136243362D02*
X93011171Y-135742982D01*
X92837000Y-135742982D01*
X92793457Y-135766810D01*
X92771685Y-135790637D01*
X92749914Y-135838292D01*
X92749914Y-135909775D01*
X92771685Y-135957430D01*
X92793457Y-135981258D01*
X92837000Y-136005086D01*
X93011171Y-136005086D01*
X92314485Y-136243362D02*
X92575742Y-136243362D01*
X92445114Y-136243362D02*
X92445114Y-135742982D01*
X92488657Y-135814465D01*
X92532200Y-135862120D01*
X92575742Y-135885948D01*
X92031457Y-135742982D02*
X91987914Y-135742982D01*
X91944371Y-135766810D01*
X91922600Y-135790637D01*
X91900828Y-135838292D01*
X91879057Y-135933603D01*
X91879057Y-136052741D01*
X91900828Y-136148051D01*
X91922600Y-136195707D01*
X91944371Y-136219534D01*
X91987914Y-136243362D01*
X92031457Y-136243362D01*
X92075000Y-136219534D01*
X92096771Y-136195707D01*
X92118542Y-136148051D01*
X92140314Y-136052741D01*
X92140314Y-135933603D01*
X92118542Y-135838292D01*
X92096771Y-135790637D01*
X92075000Y-135766810D01*
X92031457Y-135742982D01*
X91225914Y-136243362D02*
X91378314Y-136005086D01*
X91487171Y-136243362D02*
X91487171Y-135742982D01*
X91313000Y-135742982D01*
X91269457Y-135766810D01*
X91247685Y-135790637D01*
X91225914Y-135838292D01*
X91225914Y-135909775D01*
X91247685Y-135957430D01*
X91269457Y-135981258D01*
X91313000Y-136005086D01*
X91487171Y-136005086D01*
X90790485Y-136243362D02*
X91051742Y-136243362D01*
X90921114Y-136243362D02*
X90921114Y-135742982D01*
X90964657Y-135814465D01*
X91008200Y-135862120D01*
X91051742Y-135885948D01*
X90355057Y-136243362D02*
X90616314Y-136243362D01*
X90485685Y-136243362D02*
X90485685Y-135742982D01*
X90529228Y-135814465D01*
X90572771Y-135862120D01*
X90616314Y-135885948D01*
X88177914Y-136243362D02*
X88330314Y-136005086D01*
X88439171Y-136243362D02*
X88439171Y-135742982D01*
X88265000Y-135742982D01*
X88221457Y-135766810D01*
X88199685Y-135790637D01*
X88177914Y-135838292D01*
X88177914Y-135909775D01*
X88199685Y-135957430D01*
X88221457Y-135981258D01*
X88265000Y-136005086D01*
X88439171Y-136005086D01*
X87742485Y-136243362D02*
X88003742Y-136243362D01*
X87873114Y-136243362D02*
X87873114Y-135742982D01*
X87916657Y-135814465D01*
X87960200Y-135862120D01*
X88003742Y-135885948D01*
X87568314Y-135790637D02*
X87546542Y-135766810D01*
X87503000Y-135742982D01*
X87394142Y-135742982D01*
X87350600Y-135766810D01*
X87328828Y-135790637D01*
X87307057Y-135838292D01*
X87307057Y-135885948D01*
X87328828Y-135957430D01*
X87590085Y-136243362D01*
X87307057Y-136243362D01*
X85129914Y-136243362D02*
X85282314Y-136005086D01*
X85391171Y-136243362D02*
X85391171Y-135742982D01*
X85217000Y-135742982D01*
X85173457Y-135766810D01*
X85151685Y-135790637D01*
X85129914Y-135838292D01*
X85129914Y-135909775D01*
X85151685Y-135957430D01*
X85173457Y-135981258D01*
X85217000Y-136005086D01*
X85391171Y-136005086D01*
X84694485Y-136243362D02*
X84955742Y-136243362D01*
X84825114Y-136243362D02*
X84825114Y-135742982D01*
X84868657Y-135814465D01*
X84912200Y-135862120D01*
X84955742Y-135885948D01*
X84542085Y-135742982D02*
X84259057Y-135742982D01*
X84411457Y-135933603D01*
X84346142Y-135933603D01*
X84302600Y-135957430D01*
X84280828Y-135981258D01*
X84259057Y-136028913D01*
X84259057Y-136148051D01*
X84280828Y-136195707D01*
X84302600Y-136219534D01*
X84346142Y-136243362D01*
X84476771Y-136243362D01*
X84520314Y-136219534D01*
X84542085Y-136195707D01*
X96095362Y-121348085D02*
X95857086Y-121195685D01*
X96095362Y-121086828D02*
X95594982Y-121086828D01*
X95594982Y-121261000D01*
X95618810Y-121304542D01*
X95642637Y-121326314D01*
X95690292Y-121348085D01*
X95761775Y-121348085D01*
X95809430Y-121326314D01*
X95833258Y-121304542D01*
X95857086Y-121261000D01*
X95857086Y-121086828D01*
X95642637Y-121522257D02*
X95618810Y-121544028D01*
X95594982Y-121587571D01*
X95594982Y-121696428D01*
X95618810Y-121739971D01*
X95642637Y-121761742D01*
X95690292Y-121783514D01*
X95737948Y-121783514D01*
X95809430Y-121761742D01*
X96095362Y-121500485D01*
X96095362Y-121783514D01*
X96095362Y-122218942D02*
X96095362Y-121957685D01*
X96095362Y-122088314D02*
X95594982Y-122088314D01*
X95666465Y-122044771D01*
X95714120Y-122001228D01*
X95737948Y-121957685D01*
X109513914Y-128623362D02*
X109666314Y-128385086D01*
X109775171Y-128623362D02*
X109775171Y-128122982D01*
X109601000Y-128122982D01*
X109557457Y-128146810D01*
X109535685Y-128170637D01*
X109513914Y-128218292D01*
X109513914Y-128289775D01*
X109535685Y-128337430D01*
X109557457Y-128361258D01*
X109601000Y-128385086D01*
X109775171Y-128385086D01*
X109339742Y-128170637D02*
X109317971Y-128146810D01*
X109274428Y-128122982D01*
X109165571Y-128122982D01*
X109122028Y-128146810D01*
X109100257Y-128170637D01*
X109078485Y-128218292D01*
X109078485Y-128265948D01*
X109100257Y-128337430D01*
X109361514Y-128623362D01*
X109078485Y-128623362D01*
X108904314Y-128170637D02*
X108882542Y-128146810D01*
X108839000Y-128122982D01*
X108730142Y-128122982D01*
X108686600Y-128146810D01*
X108664828Y-128170637D01*
X108643057Y-128218292D01*
X108643057Y-128265948D01*
X108664828Y-128337430D01*
X108926085Y-128623362D01*
X108643057Y-128623362D01*
X90126362Y-128206085D02*
X89888086Y-128053685D01*
X90126362Y-127944828D02*
X89625982Y-127944828D01*
X89625982Y-128119000D01*
X89649810Y-128162542D01*
X89673637Y-128184314D01*
X89721292Y-128206085D01*
X89792775Y-128206085D01*
X89840430Y-128184314D01*
X89864258Y-128162542D01*
X89888086Y-128119000D01*
X89888086Y-127944828D01*
X89673637Y-128380257D02*
X89649810Y-128402028D01*
X89625982Y-128445571D01*
X89625982Y-128554428D01*
X89649810Y-128597971D01*
X89673637Y-128619742D01*
X89721292Y-128641514D01*
X89768948Y-128641514D01*
X89840430Y-128619742D01*
X90126362Y-128358485D01*
X90126362Y-128641514D01*
X89625982Y-128793914D02*
X89625982Y-129076942D01*
X89816603Y-128924542D01*
X89816603Y-128989857D01*
X89840430Y-129033400D01*
X89864258Y-129055171D01*
X89911913Y-129076942D01*
X90031051Y-129076942D01*
X90078707Y-129055171D01*
X90102534Y-129033400D01*
X90126362Y-128989857D01*
X90126362Y-128859228D01*
X90102534Y-128815685D01*
X90078707Y-128793914D01*
X91291362Y-127780085D02*
X91053086Y-127627685D01*
X91291362Y-127518828D02*
X90790982Y-127518828D01*
X90790982Y-127693000D01*
X90814810Y-127736542D01*
X90838637Y-127758314D01*
X90886292Y-127780085D01*
X90957775Y-127780085D01*
X91005430Y-127758314D01*
X91029258Y-127736542D01*
X91053086Y-127693000D01*
X91053086Y-127518828D01*
X90838637Y-127954257D02*
X90814810Y-127976028D01*
X90790982Y-128019571D01*
X90790982Y-128128428D01*
X90814810Y-128171971D01*
X90838637Y-128193742D01*
X90886292Y-128215514D01*
X90933948Y-128215514D01*
X91005430Y-128193742D01*
X91291362Y-127932485D01*
X91291362Y-128215514D01*
X90957775Y-128607400D02*
X91291362Y-128607400D01*
X90767154Y-128498542D02*
X91124569Y-128389685D01*
X91124569Y-128672714D01*
X90126362Y-126682085D02*
X89888086Y-126529685D01*
X90126362Y-126420828D02*
X89625982Y-126420828D01*
X89625982Y-126595000D01*
X89649810Y-126638542D01*
X89673637Y-126660314D01*
X89721292Y-126682085D01*
X89792775Y-126682085D01*
X89840430Y-126660314D01*
X89864258Y-126638542D01*
X89888086Y-126595000D01*
X89888086Y-126420828D01*
X89673637Y-126856257D02*
X89649810Y-126878028D01*
X89625982Y-126921571D01*
X89625982Y-127030428D01*
X89649810Y-127073971D01*
X89673637Y-127095742D01*
X89721292Y-127117514D01*
X89768948Y-127117514D01*
X89840430Y-127095742D01*
X90126362Y-126834485D01*
X90126362Y-127117514D01*
X89625982Y-127509400D02*
X89625982Y-127422314D01*
X89649810Y-127378771D01*
X89673637Y-127357000D01*
X89745120Y-127313457D01*
X89840430Y-127291685D01*
X90031051Y-127291685D01*
X90078707Y-127313457D01*
X90102534Y-127335228D01*
X90126362Y-127378771D01*
X90126362Y-127465857D01*
X90102534Y-127509400D01*
X90078707Y-127531171D01*
X90031051Y-127552942D01*
X89911913Y-127552942D01*
X89864258Y-127531171D01*
X89840430Y-127509400D01*
X89816603Y-127465857D01*
X89816603Y-127378771D01*
X89840430Y-127335228D01*
X89864258Y-127313457D01*
X89911913Y-127291685D01*
X91291362Y-126280085D02*
X91053086Y-126127685D01*
X91291362Y-126018828D02*
X90790982Y-126018828D01*
X90790982Y-126193000D01*
X90814810Y-126236542D01*
X90838637Y-126258314D01*
X90886292Y-126280085D01*
X90957775Y-126280085D01*
X91005430Y-126258314D01*
X91029258Y-126236542D01*
X91053086Y-126193000D01*
X91053086Y-126018828D01*
X90838637Y-126454257D02*
X90814810Y-126476028D01*
X90790982Y-126519571D01*
X90790982Y-126628428D01*
X90814810Y-126671971D01*
X90838637Y-126693742D01*
X90886292Y-126715514D01*
X90933948Y-126715514D01*
X91005430Y-126693742D01*
X91291362Y-126432485D01*
X91291362Y-126715514D01*
X90790982Y-126867914D02*
X90790982Y-127172714D01*
X91291362Y-126976771D01*
X114212914Y-104620362D02*
X114365314Y-104382086D01*
X114474171Y-104620362D02*
X114474171Y-104119982D01*
X114300000Y-104119982D01*
X114256457Y-104143810D01*
X114234685Y-104167637D01*
X114212914Y-104215292D01*
X114212914Y-104286775D01*
X114234685Y-104334430D01*
X114256457Y-104358258D01*
X114300000Y-104382086D01*
X114474171Y-104382086D01*
X114038742Y-104167637D02*
X114016971Y-104143810D01*
X113973428Y-104119982D01*
X113864571Y-104119982D01*
X113821028Y-104143810D01*
X113799257Y-104167637D01*
X113777485Y-104215292D01*
X113777485Y-104262948D01*
X113799257Y-104334430D01*
X114060514Y-104620362D01*
X113777485Y-104620362D01*
X113559771Y-104620362D02*
X113472685Y-104620362D01*
X113429142Y-104596534D01*
X113407371Y-104572707D01*
X113363828Y-104501224D01*
X113342057Y-104405913D01*
X113342057Y-104215292D01*
X113363828Y-104167637D01*
X113385600Y-104143810D01*
X113429142Y-104119982D01*
X113516228Y-104119982D01*
X113559771Y-104143810D01*
X113581542Y-104167637D01*
X113603314Y-104215292D01*
X113603314Y-104334430D01*
X113581542Y-104382086D01*
X113559771Y-104405913D01*
X113516228Y-104429741D01*
X113429142Y-104429741D01*
X113385600Y-104405913D01*
X113363828Y-104382086D01*
X113342057Y-104334430D01*
X104663914Y-88888362D02*
X104816314Y-88650086D01*
X104925171Y-88888362D02*
X104925171Y-88387982D01*
X104751000Y-88387982D01*
X104707457Y-88411810D01*
X104685685Y-88435637D01*
X104663914Y-88483292D01*
X104663914Y-88554775D01*
X104685685Y-88602430D01*
X104707457Y-88626258D01*
X104751000Y-88650086D01*
X104925171Y-88650086D01*
X104511514Y-88387982D02*
X104228485Y-88387982D01*
X104380885Y-88578603D01*
X104315571Y-88578603D01*
X104272028Y-88602430D01*
X104250257Y-88626258D01*
X104228485Y-88673913D01*
X104228485Y-88793051D01*
X104250257Y-88840707D01*
X104272028Y-88864534D01*
X104315571Y-88888362D01*
X104446200Y-88888362D01*
X104489742Y-88864534D01*
X104511514Y-88840707D01*
X103945457Y-88387982D02*
X103901914Y-88387982D01*
X103858371Y-88411810D01*
X103836600Y-88435637D01*
X103814828Y-88483292D01*
X103793057Y-88578603D01*
X103793057Y-88697741D01*
X103814828Y-88793051D01*
X103836600Y-88840707D01*
X103858371Y-88864534D01*
X103901914Y-88888362D01*
X103945457Y-88888362D01*
X103989000Y-88864534D01*
X104010771Y-88840707D01*
X104032542Y-88793051D01*
X104054314Y-88697741D01*
X104054314Y-88578603D01*
X104032542Y-88483292D01*
X104010771Y-88435637D01*
X103989000Y-88411810D01*
X103945457Y-88387982D01*
X90111362Y-125132085D02*
X89873086Y-124979685D01*
X90111362Y-124870828D02*
X89610982Y-124870828D01*
X89610982Y-125045000D01*
X89634810Y-125088542D01*
X89658637Y-125110314D01*
X89706292Y-125132085D01*
X89777775Y-125132085D01*
X89825430Y-125110314D01*
X89849258Y-125088542D01*
X89873086Y-125045000D01*
X89873086Y-124870828D01*
X89610982Y-125284485D02*
X89610982Y-125567514D01*
X89801603Y-125415114D01*
X89801603Y-125480428D01*
X89825430Y-125523971D01*
X89849258Y-125545742D01*
X89896913Y-125567514D01*
X90016051Y-125567514D01*
X90063707Y-125545742D01*
X90087534Y-125523971D01*
X90111362Y-125480428D01*
X90111362Y-125349800D01*
X90087534Y-125306257D01*
X90063707Y-125284485D01*
X89658637Y-125741685D02*
X89634810Y-125763457D01*
X89610982Y-125807000D01*
X89610982Y-125915857D01*
X89634810Y-125959400D01*
X89658637Y-125981171D01*
X89706292Y-126002942D01*
X89753948Y-126002942D01*
X89825430Y-125981171D01*
X90111362Y-125719914D01*
X90111362Y-126002942D01*
X91291362Y-124780085D02*
X91053086Y-124627685D01*
X91291362Y-124518828D02*
X90790982Y-124518828D01*
X90790982Y-124693000D01*
X90814810Y-124736542D01*
X90838637Y-124758314D01*
X90886292Y-124780085D01*
X90957775Y-124780085D01*
X91005430Y-124758314D01*
X91029258Y-124736542D01*
X91053086Y-124693000D01*
X91053086Y-124518828D01*
X90790982Y-124932485D02*
X90790982Y-125215514D01*
X90981603Y-125063114D01*
X90981603Y-125128428D01*
X91005430Y-125171971D01*
X91029258Y-125193742D01*
X91076913Y-125215514D01*
X91196051Y-125215514D01*
X91243707Y-125193742D01*
X91267534Y-125171971D01*
X91291362Y-125128428D01*
X91291362Y-124997800D01*
X91267534Y-124954257D01*
X91243707Y-124932485D01*
X90790982Y-125367914D02*
X90790982Y-125650942D01*
X90981603Y-125498542D01*
X90981603Y-125563857D01*
X91005430Y-125607400D01*
X91029258Y-125629171D01*
X91076913Y-125650942D01*
X91196051Y-125650942D01*
X91243707Y-125629171D01*
X91267534Y-125607400D01*
X91291362Y-125563857D01*
X91291362Y-125433228D01*
X91267534Y-125389685D01*
X91243707Y-125367914D01*
X103350362Y-95083085D02*
X103112086Y-94930685D01*
X103350362Y-94821828D02*
X102849982Y-94821828D01*
X102849982Y-94996000D01*
X102873810Y-95039542D01*
X102897637Y-95061314D01*
X102945292Y-95083085D01*
X103016775Y-95083085D01*
X103064430Y-95061314D01*
X103088258Y-95039542D01*
X103112086Y-94996000D01*
X103112086Y-94821828D01*
X102849982Y-95235485D02*
X102849982Y-95518514D01*
X103040603Y-95366114D01*
X103040603Y-95431428D01*
X103064430Y-95474971D01*
X103088258Y-95496742D01*
X103135913Y-95518514D01*
X103255051Y-95518514D01*
X103302707Y-95496742D01*
X103326534Y-95474971D01*
X103350362Y-95431428D01*
X103350362Y-95300800D01*
X103326534Y-95257257D01*
X103302707Y-95235485D01*
X102849982Y-95932171D02*
X102849982Y-95714457D01*
X103088258Y-95692685D01*
X103064430Y-95714457D01*
X103040603Y-95758000D01*
X103040603Y-95866857D01*
X103064430Y-95910400D01*
X103088258Y-95932171D01*
X103135913Y-95953942D01*
X103255051Y-95953942D01*
X103302707Y-95932171D01*
X103326534Y-95910400D01*
X103350362Y-95866857D01*
X103350362Y-95758000D01*
X103326534Y-95714457D01*
X103302707Y-95692685D01*
X103477362Y-92543085D02*
X103239086Y-92390685D01*
X103477362Y-92281828D02*
X102976982Y-92281828D01*
X102976982Y-92456000D01*
X103000810Y-92499542D01*
X103024637Y-92521314D01*
X103072292Y-92543085D01*
X103143775Y-92543085D01*
X103191430Y-92521314D01*
X103215258Y-92499542D01*
X103239086Y-92456000D01*
X103239086Y-92281828D01*
X102976982Y-92695485D02*
X102976982Y-92978514D01*
X103167603Y-92826114D01*
X103167603Y-92891428D01*
X103191430Y-92934971D01*
X103215258Y-92956742D01*
X103262913Y-92978514D01*
X103382051Y-92978514D01*
X103429707Y-92956742D01*
X103453534Y-92934971D01*
X103477362Y-92891428D01*
X103477362Y-92760800D01*
X103453534Y-92717257D01*
X103429707Y-92695485D01*
X102976982Y-93370400D02*
X102976982Y-93283314D01*
X103000810Y-93239771D01*
X103024637Y-93218000D01*
X103096120Y-93174457D01*
X103191430Y-93152685D01*
X103382051Y-93152685D01*
X103429707Y-93174457D01*
X103453534Y-93196228D01*
X103477362Y-93239771D01*
X103477362Y-93326857D01*
X103453534Y-93370400D01*
X103429707Y-93392171D01*
X103382051Y-93413942D01*
X103262913Y-93413942D01*
X103215258Y-93392171D01*
X103191430Y-93370400D01*
X103167603Y-93326857D01*
X103167603Y-93239771D01*
X103191430Y-93196228D01*
X103215258Y-93174457D01*
X103262913Y-93152685D01*
X112417914Y-127861362D02*
X112570314Y-127623086D01*
X112679171Y-127861362D02*
X112679171Y-127360982D01*
X112505000Y-127360982D01*
X112461457Y-127384810D01*
X112439685Y-127408637D01*
X112417914Y-127456292D01*
X112417914Y-127527775D01*
X112439685Y-127575430D01*
X112461457Y-127599258D01*
X112505000Y-127623086D01*
X112679171Y-127623086D01*
X112265514Y-127360982D02*
X111982485Y-127360982D01*
X112134885Y-127551603D01*
X112069571Y-127551603D01*
X112026028Y-127575430D01*
X112004257Y-127599258D01*
X111982485Y-127646913D01*
X111982485Y-127766051D01*
X112004257Y-127813707D01*
X112026028Y-127837534D01*
X112069571Y-127861362D01*
X112200200Y-127861362D01*
X112243742Y-127837534D01*
X112265514Y-127813707D01*
X111830085Y-127360982D02*
X111525285Y-127360982D01*
X111721228Y-127861362D01*
X110917914Y-127861362D02*
X111070314Y-127623086D01*
X111179171Y-127861362D02*
X111179171Y-127360982D01*
X111005000Y-127360982D01*
X110961457Y-127384810D01*
X110939685Y-127408637D01*
X110917914Y-127456292D01*
X110917914Y-127527775D01*
X110939685Y-127575430D01*
X110961457Y-127599258D01*
X111005000Y-127623086D01*
X111179171Y-127623086D01*
X110765514Y-127360982D02*
X110482485Y-127360982D01*
X110634885Y-127551603D01*
X110569571Y-127551603D01*
X110526028Y-127575430D01*
X110504257Y-127599258D01*
X110482485Y-127646913D01*
X110482485Y-127766051D01*
X110504257Y-127813707D01*
X110526028Y-127837534D01*
X110569571Y-127861362D01*
X110700200Y-127861362D01*
X110743742Y-127837534D01*
X110765514Y-127813707D01*
X110221228Y-127575430D02*
X110264771Y-127551603D01*
X110286542Y-127527775D01*
X110308314Y-127480120D01*
X110308314Y-127456292D01*
X110286542Y-127408637D01*
X110264771Y-127384810D01*
X110221228Y-127360982D01*
X110134142Y-127360982D01*
X110090600Y-127384810D01*
X110068828Y-127408637D01*
X110047057Y-127456292D01*
X110047057Y-127480120D01*
X110068828Y-127527775D01*
X110090600Y-127551603D01*
X110134142Y-127575430D01*
X110221228Y-127575430D01*
X110264771Y-127599258D01*
X110286542Y-127623086D01*
X110308314Y-127670741D01*
X110308314Y-127766051D01*
X110286542Y-127813707D01*
X110264771Y-127837534D01*
X110221228Y-127861362D01*
X110134142Y-127861362D01*
X110090600Y-127837534D01*
X110068828Y-127813707D01*
X110047057Y-127766051D01*
X110047057Y-127670741D01*
X110068828Y-127623086D01*
X110090600Y-127599258D01*
X110134142Y-127575430D01*
X90142362Y-94702085D02*
X89904086Y-94549685D01*
X90142362Y-94440828D02*
X89641982Y-94440828D01*
X89641982Y-94615000D01*
X89665810Y-94658542D01*
X89689637Y-94680314D01*
X89737292Y-94702085D01*
X89808775Y-94702085D01*
X89856430Y-94680314D01*
X89880258Y-94658542D01*
X89904086Y-94615000D01*
X89904086Y-94440828D01*
X89808775Y-95093971D02*
X90142362Y-95093971D01*
X89618154Y-94985114D02*
X89975569Y-94876257D01*
X89975569Y-95159285D01*
X89641982Y-95289914D02*
X89641982Y-95572942D01*
X89832603Y-95420542D01*
X89832603Y-95485857D01*
X89856430Y-95529400D01*
X89880258Y-95551171D01*
X89927913Y-95572942D01*
X90047051Y-95572942D01*
X90094707Y-95551171D01*
X90118534Y-95529400D01*
X90142362Y-95485857D01*
X90142362Y-95355228D01*
X90118534Y-95311685D01*
X90094707Y-95289914D01*
X90269362Y-92035085D02*
X90031086Y-91882685D01*
X90269362Y-91773828D02*
X89768982Y-91773828D01*
X89768982Y-91948000D01*
X89792810Y-91991542D01*
X89816637Y-92013314D01*
X89864292Y-92035085D01*
X89935775Y-92035085D01*
X89983430Y-92013314D01*
X90007258Y-91991542D01*
X90031086Y-91948000D01*
X90031086Y-91773828D01*
X89935775Y-92426971D02*
X90269362Y-92426971D01*
X89745154Y-92318114D02*
X90102569Y-92209257D01*
X90102569Y-92492285D01*
X89768982Y-92862400D02*
X89768982Y-92775314D01*
X89792810Y-92731771D01*
X89816637Y-92710000D01*
X89888120Y-92666457D01*
X89983430Y-92644685D01*
X90174051Y-92644685D01*
X90221707Y-92666457D01*
X90245534Y-92688228D01*
X90269362Y-92731771D01*
X90269362Y-92818857D01*
X90245534Y-92862400D01*
X90221707Y-92884171D01*
X90174051Y-92905942D01*
X90054913Y-92905942D01*
X90007258Y-92884171D01*
X89983430Y-92862400D01*
X89959603Y-92818857D01*
X89959603Y-92731771D01*
X89983430Y-92688228D01*
X90007258Y-92666457D01*
X90054913Y-92644685D01*
X80998362Y-131441371D02*
X80760086Y-131288971D01*
X80998362Y-131180114D02*
X80497982Y-131180114D01*
X80497982Y-131354285D01*
X80521810Y-131397828D01*
X80545637Y-131419600D01*
X80593292Y-131441371D01*
X80664775Y-131441371D01*
X80712430Y-131419600D01*
X80736258Y-131397828D01*
X80760086Y-131354285D01*
X80760086Y-131180114D01*
X80664775Y-131833257D02*
X80998362Y-131833257D01*
X80474154Y-131724400D02*
X80831569Y-131615542D01*
X80831569Y-131898571D01*
X80497982Y-132159828D02*
X80497982Y-132203371D01*
X80521810Y-132246914D01*
X80545637Y-132268685D01*
X80593292Y-132290457D01*
X80688603Y-132312228D01*
X80807741Y-132312228D01*
X80903051Y-132290457D01*
X80950707Y-132268685D01*
X80974534Y-132246914D01*
X80998362Y-132203371D01*
X80998362Y-132159828D01*
X80974534Y-132116285D01*
X80950707Y-132094514D01*
X80903051Y-132072742D01*
X80807741Y-132050971D01*
X80688603Y-132050971D01*
X80593292Y-132072742D01*
X80545637Y-132094514D01*
X80521810Y-132116285D01*
X80497982Y-132159828D01*
X80545637Y-132486400D02*
X80521810Y-132508171D01*
X80497982Y-132551714D01*
X80497982Y-132660571D01*
X80521810Y-132704114D01*
X80545637Y-132725885D01*
X80593292Y-132747657D01*
X80640948Y-132747657D01*
X80712430Y-132725885D01*
X80998362Y-132464628D01*
X80998362Y-132747657D01*
D18*
X90182095Y-119966619D02*
X90182095Y-120789095D01*
X90133714Y-120885857D01*
X90085333Y-120934238D01*
X89988571Y-120982619D01*
X89795047Y-120982619D01*
X89698285Y-120934238D01*
X89649904Y-120885857D01*
X89601523Y-120789095D01*
X89601523Y-119966619D01*
X89166095Y-120063380D02*
X89117714Y-120015000D01*
X89020952Y-119966619D01*
X88779047Y-119966619D01*
X88682285Y-120015000D01*
X88633904Y-120063380D01*
X88585523Y-120160142D01*
X88585523Y-120256904D01*
X88633904Y-120402047D01*
X89214476Y-120982619D01*
X88585523Y-120982619D01*
D22*
X103293914Y-120081428D02*
X103315685Y-120105619D01*
X103381000Y-120129809D01*
X103424542Y-120129809D01*
X103489857Y-120105619D01*
X103533400Y-120057238D01*
X103555171Y-120008857D01*
X103576942Y-119912095D01*
X103576942Y-119839523D01*
X103555171Y-119742761D01*
X103533400Y-119694380D01*
X103489857Y-119646000D01*
X103424542Y-119621809D01*
X103381000Y-119621809D01*
X103315685Y-119646000D01*
X103293914Y-119670190D01*
X103119742Y-119670190D02*
X103097971Y-119646000D01*
X103054428Y-119621809D01*
X102945571Y-119621809D01*
X102902028Y-119646000D01*
X102880257Y-119670190D01*
X102858485Y-119718571D01*
X102858485Y-119766952D01*
X102880257Y-119839523D01*
X103141514Y-120129809D01*
X102858485Y-120129809D01*
X102466600Y-119621809D02*
X102553685Y-119621809D01*
X102597228Y-119646000D01*
X102619000Y-119670190D01*
X102662542Y-119742761D01*
X102684314Y-119839523D01*
X102684314Y-120033047D01*
X102662542Y-120081428D01*
X102640771Y-120105619D01*
X102597228Y-120129809D01*
X102510142Y-120129809D01*
X102466600Y-120105619D01*
X102444828Y-120081428D01*
X102423057Y-120033047D01*
X102423057Y-119912095D01*
X102444828Y-119863714D01*
X102466600Y-119839523D01*
X102510142Y-119815333D01*
X102597228Y-119815333D01*
X102640771Y-119839523D01*
X102662542Y-119863714D01*
X102684314Y-119912095D01*
X107381428Y-120606085D02*
X107405619Y-120584314D01*
X107429809Y-120519000D01*
X107429809Y-120475457D01*
X107405619Y-120410142D01*
X107357238Y-120366600D01*
X107308857Y-120344828D01*
X107212095Y-120323057D01*
X107139523Y-120323057D01*
X107042761Y-120344828D01*
X106994380Y-120366600D01*
X106946000Y-120410142D01*
X106921809Y-120475457D01*
X106921809Y-120519000D01*
X106946000Y-120584314D01*
X106970190Y-120606085D01*
X106921809Y-121019742D02*
X106921809Y-120802028D01*
X107163714Y-120780257D01*
X107139523Y-120802028D01*
X107115333Y-120845571D01*
X107115333Y-120954428D01*
X107139523Y-120997971D01*
X107163714Y-121019742D01*
X107212095Y-121041514D01*
X107333047Y-121041514D01*
X107381428Y-121019742D01*
X107405619Y-120997971D01*
X107429809Y-120954428D01*
X107429809Y-120845571D01*
X107405619Y-120802028D01*
X107381428Y-120780257D01*
X106970190Y-121215685D02*
X106946000Y-121237457D01*
X106921809Y-121281000D01*
X106921809Y-121389857D01*
X106946000Y-121433400D01*
X106970190Y-121455171D01*
X107018571Y-121476942D01*
X107066952Y-121476942D01*
X107139523Y-121455171D01*
X107429809Y-121193914D01*
X107429809Y-121476942D01*
X100623914Y-129848428D02*
X100645685Y-129872619D01*
X100711000Y-129896809D01*
X100754542Y-129896809D01*
X100819857Y-129872619D01*
X100863400Y-129824238D01*
X100885171Y-129775857D01*
X100906942Y-129679095D01*
X100906942Y-129606523D01*
X100885171Y-129509761D01*
X100863400Y-129461380D01*
X100819857Y-129413000D01*
X100754542Y-129388809D01*
X100711000Y-129388809D01*
X100645685Y-129413000D01*
X100623914Y-129437190D01*
X100471514Y-129388809D02*
X100188485Y-129388809D01*
X100340885Y-129582333D01*
X100275571Y-129582333D01*
X100232028Y-129606523D01*
X100210257Y-129630714D01*
X100188485Y-129679095D01*
X100188485Y-129800047D01*
X100210257Y-129848428D01*
X100232028Y-129872619D01*
X100275571Y-129896809D01*
X100406200Y-129896809D01*
X100449742Y-129872619D01*
X100471514Y-129848428D01*
X99927228Y-129606523D02*
X99970771Y-129582333D01*
X99992542Y-129558142D01*
X100014314Y-129509761D01*
X100014314Y-129485571D01*
X99992542Y-129437190D01*
X99970771Y-129413000D01*
X99927228Y-129388809D01*
X99840142Y-129388809D01*
X99796600Y-129413000D01*
X99774828Y-129437190D01*
X99753057Y-129485571D01*
X99753057Y-129509761D01*
X99774828Y-129558142D01*
X99796600Y-129582333D01*
X99840142Y-129606523D01*
X99927228Y-129606523D01*
X99970771Y-129630714D01*
X99992542Y-129654904D01*
X100014314Y-129703285D01*
X100014314Y-129800047D01*
X99992542Y-129848428D01*
X99970771Y-129872619D01*
X99927228Y-129896809D01*
X99840142Y-129896809D01*
X99796600Y-129872619D01*
X99774828Y-129848428D01*
X99753057Y-129800047D01*
X99753057Y-129703285D01*
X99774828Y-129654904D01*
X99796600Y-129630714D01*
X99840142Y-129606523D01*
X94781914Y-134801428D02*
X94803685Y-134825619D01*
X94869000Y-134849809D01*
X94912542Y-134849809D01*
X94977857Y-134825619D01*
X95021400Y-134777238D01*
X95043171Y-134728857D01*
X95064942Y-134632095D01*
X95064942Y-134559523D01*
X95043171Y-134462761D01*
X95021400Y-134414380D01*
X94977857Y-134366000D01*
X94912542Y-134341809D01*
X94869000Y-134341809D01*
X94803685Y-134366000D01*
X94781914Y-134390190D01*
X94629514Y-134341809D02*
X94346485Y-134341809D01*
X94498885Y-134535333D01*
X94433571Y-134535333D01*
X94390028Y-134559523D01*
X94368257Y-134583714D01*
X94346485Y-134632095D01*
X94346485Y-134753047D01*
X94368257Y-134801428D01*
X94390028Y-134825619D01*
X94433571Y-134849809D01*
X94564200Y-134849809D01*
X94607742Y-134825619D01*
X94629514Y-134801428D01*
X94172314Y-134390190D02*
X94150542Y-134366000D01*
X94107000Y-134341809D01*
X93998142Y-134341809D01*
X93954600Y-134366000D01*
X93932828Y-134390190D01*
X93911057Y-134438571D01*
X93911057Y-134486952D01*
X93932828Y-134559523D01*
X94194085Y-134849809D01*
X93911057Y-134849809D01*
X104306914Y-135182428D02*
X104328685Y-135206619D01*
X104394000Y-135230809D01*
X104437542Y-135230809D01*
X104502857Y-135206619D01*
X104546400Y-135158238D01*
X104568171Y-135109857D01*
X104589942Y-135013095D01*
X104589942Y-134940523D01*
X104568171Y-134843761D01*
X104546400Y-134795380D01*
X104502857Y-134747000D01*
X104437542Y-134722809D01*
X104394000Y-134722809D01*
X104328685Y-134747000D01*
X104306914Y-134771190D01*
X104154514Y-134722809D02*
X103871485Y-134722809D01*
X104023885Y-134916333D01*
X103958571Y-134916333D01*
X103915028Y-134940523D01*
X103893257Y-134964714D01*
X103871485Y-135013095D01*
X103871485Y-135134047D01*
X103893257Y-135182428D01*
X103915028Y-135206619D01*
X103958571Y-135230809D01*
X104089200Y-135230809D01*
X104132742Y-135206619D01*
X104154514Y-135182428D01*
X103436057Y-135230809D02*
X103697314Y-135230809D01*
X103566685Y-135230809D02*
X103566685Y-134722809D01*
X103610228Y-134795380D01*
X103653771Y-134843761D01*
X103697314Y-134867952D01*
X86414428Y-122642085D02*
X86438619Y-122620314D01*
X86462809Y-122555000D01*
X86462809Y-122511457D01*
X86438619Y-122446142D01*
X86390238Y-122402600D01*
X86341857Y-122380828D01*
X86245095Y-122359057D01*
X86172523Y-122359057D01*
X86075761Y-122380828D01*
X86027380Y-122402600D01*
X85979000Y-122446142D01*
X85954809Y-122511457D01*
X85954809Y-122555000D01*
X85979000Y-122620314D01*
X86003190Y-122642085D01*
X86003190Y-122816257D02*
X85979000Y-122838028D01*
X85954809Y-122881571D01*
X85954809Y-122990428D01*
X85979000Y-123033971D01*
X86003190Y-123055742D01*
X86051571Y-123077514D01*
X86099952Y-123077514D01*
X86172523Y-123055742D01*
X86462809Y-122794485D01*
X86462809Y-123077514D01*
X86124142Y-123469400D02*
X86462809Y-123469400D01*
X85930619Y-123360542D02*
X86293476Y-123251685D01*
X86293476Y-123534714D01*
X104981428Y-122506085D02*
X105005619Y-122484314D01*
X105029809Y-122419000D01*
X105029809Y-122375457D01*
X105005619Y-122310142D01*
X104957238Y-122266600D01*
X104908857Y-122244828D01*
X104812095Y-122223057D01*
X104739523Y-122223057D01*
X104642761Y-122244828D01*
X104594380Y-122266600D01*
X104546000Y-122310142D01*
X104521809Y-122375457D01*
X104521809Y-122419000D01*
X104546000Y-122484314D01*
X104570190Y-122506085D01*
X104570190Y-122680257D02*
X104546000Y-122702028D01*
X104521809Y-122745571D01*
X104521809Y-122854428D01*
X104546000Y-122897971D01*
X104570190Y-122919742D01*
X104618571Y-122941514D01*
X104666952Y-122941514D01*
X104739523Y-122919742D01*
X105029809Y-122658485D01*
X105029809Y-122941514D01*
X104521809Y-123224542D02*
X104521809Y-123268085D01*
X104546000Y-123311628D01*
X104570190Y-123333400D01*
X104618571Y-123355171D01*
X104715333Y-123376942D01*
X104836285Y-123376942D01*
X104933047Y-123355171D01*
X104981428Y-123333400D01*
X105005619Y-123311628D01*
X105029809Y-123268085D01*
X105029809Y-123224542D01*
X105005619Y-123181000D01*
X104981428Y-123159228D01*
X104933047Y-123137457D01*
X104836285Y-123115685D01*
X104715333Y-123115685D01*
X104618571Y-123137457D01*
X104570190Y-123159228D01*
X104546000Y-123181000D01*
X104521809Y-123224542D01*
X102293914Y-122681428D02*
X102315685Y-122705619D01*
X102381000Y-122729809D01*
X102424542Y-122729809D01*
X102489857Y-122705619D01*
X102533400Y-122657238D01*
X102555171Y-122608857D01*
X102576942Y-122512095D01*
X102576942Y-122439523D01*
X102555171Y-122342761D01*
X102533400Y-122294380D01*
X102489857Y-122246000D01*
X102424542Y-122221809D01*
X102381000Y-122221809D01*
X102315685Y-122246000D01*
X102293914Y-122270190D01*
X101858485Y-122729809D02*
X102119742Y-122729809D01*
X101989114Y-122729809D02*
X101989114Y-122221809D01*
X102032657Y-122294380D01*
X102076200Y-122342761D01*
X102119742Y-122366952D01*
X101597228Y-122439523D02*
X101640771Y-122415333D01*
X101662542Y-122391142D01*
X101684314Y-122342761D01*
X101684314Y-122318571D01*
X101662542Y-122270190D01*
X101640771Y-122246000D01*
X101597228Y-122221809D01*
X101510142Y-122221809D01*
X101466600Y-122246000D01*
X101444828Y-122270190D01*
X101423057Y-122318571D01*
X101423057Y-122342761D01*
X101444828Y-122391142D01*
X101466600Y-122415333D01*
X101510142Y-122439523D01*
X101597228Y-122439523D01*
X101640771Y-122463714D01*
X101662542Y-122487904D01*
X101684314Y-122536285D01*
X101684314Y-122633047D01*
X101662542Y-122681428D01*
X101640771Y-122705619D01*
X101597228Y-122729809D01*
X101510142Y-122729809D01*
X101466600Y-122705619D01*
X101444828Y-122681428D01*
X101423057Y-122633047D01*
X101423057Y-122536285D01*
X101444828Y-122487904D01*
X101466600Y-122463714D01*
X101510142Y-122439523D01*
X98987428Y-124547085D02*
X99011619Y-124525314D01*
X99035809Y-124460000D01*
X99035809Y-124416457D01*
X99011619Y-124351142D01*
X98963238Y-124307600D01*
X98914857Y-124285828D01*
X98818095Y-124264057D01*
X98745523Y-124264057D01*
X98648761Y-124285828D01*
X98600380Y-124307600D01*
X98552000Y-124351142D01*
X98527809Y-124416457D01*
X98527809Y-124460000D01*
X98552000Y-124525314D01*
X98576190Y-124547085D01*
X99035809Y-124982514D02*
X99035809Y-124721257D01*
X99035809Y-124851885D02*
X98527809Y-124851885D01*
X98600380Y-124808342D01*
X98648761Y-124764800D01*
X98672952Y-124721257D01*
X98527809Y-125134914D02*
X98527809Y-125439714D01*
X99035809Y-125243771D01*
X108924428Y-125706085D02*
X108948619Y-125684314D01*
X108972809Y-125619000D01*
X108972809Y-125575457D01*
X108948619Y-125510142D01*
X108900238Y-125466600D01*
X108851857Y-125444828D01*
X108755095Y-125423057D01*
X108682523Y-125423057D01*
X108585761Y-125444828D01*
X108537380Y-125466600D01*
X108489000Y-125510142D01*
X108464809Y-125575457D01*
X108464809Y-125619000D01*
X108489000Y-125684314D01*
X108513190Y-125706085D01*
X108972809Y-126141514D02*
X108972809Y-125880257D01*
X108972809Y-126010885D02*
X108464809Y-126010885D01*
X108537380Y-125967342D01*
X108585761Y-125923800D01*
X108609952Y-125880257D01*
X108464809Y-126533400D02*
X108464809Y-126446314D01*
X108489000Y-126402771D01*
X108513190Y-126381000D01*
X108585761Y-126337457D01*
X108682523Y-126315685D01*
X108876047Y-126315685D01*
X108924428Y-126337457D01*
X108948619Y-126359228D01*
X108972809Y-126402771D01*
X108972809Y-126489857D01*
X108948619Y-126533400D01*
X108924428Y-126555171D01*
X108876047Y-126576942D01*
X108755095Y-126576942D01*
X108706714Y-126555171D01*
X108682523Y-126533400D01*
X108658333Y-126489857D01*
X108658333Y-126402771D01*
X108682523Y-126359228D01*
X108706714Y-126337457D01*
X108755095Y-126315685D01*
X97793914Y-129881428D02*
X97815685Y-129905619D01*
X97881000Y-129929809D01*
X97924542Y-129929809D01*
X97989857Y-129905619D01*
X98033400Y-129857238D01*
X98055171Y-129808857D01*
X98076942Y-129712095D01*
X98076942Y-129639523D01*
X98055171Y-129542761D01*
X98033400Y-129494380D01*
X97989857Y-129446000D01*
X97924542Y-129421809D01*
X97881000Y-129421809D01*
X97815685Y-129446000D01*
X97793914Y-129470190D01*
X97358485Y-129929809D02*
X97619742Y-129929809D01*
X97489114Y-129929809D02*
X97489114Y-129421809D01*
X97532657Y-129494380D01*
X97576200Y-129542761D01*
X97619742Y-129566952D01*
X96944828Y-129421809D02*
X97162542Y-129421809D01*
X97184314Y-129663714D01*
X97162542Y-129639523D01*
X97119000Y-129615333D01*
X97010142Y-129615333D01*
X96966600Y-129639523D01*
X96944828Y-129663714D01*
X96923057Y-129712095D01*
X96923057Y-129833047D01*
X96944828Y-129881428D01*
X96966600Y-129905619D01*
X97010142Y-129929809D01*
X97119000Y-129929809D01*
X97162542Y-129905619D01*
X97184314Y-129881428D01*
X95050428Y-124547085D02*
X95074619Y-124525314D01*
X95098809Y-124460000D01*
X95098809Y-124416457D01*
X95074619Y-124351142D01*
X95026238Y-124307600D01*
X94977857Y-124285828D01*
X94881095Y-124264057D01*
X94808523Y-124264057D01*
X94711761Y-124285828D01*
X94663380Y-124307600D01*
X94615000Y-124351142D01*
X94590809Y-124416457D01*
X94590809Y-124460000D01*
X94615000Y-124525314D01*
X94639190Y-124547085D01*
X95098809Y-124982514D02*
X95098809Y-124721257D01*
X95098809Y-124851885D02*
X94590809Y-124851885D01*
X94663380Y-124808342D01*
X94711761Y-124764800D01*
X94735952Y-124721257D01*
X94760142Y-125374400D02*
X95098809Y-125374400D01*
X94566619Y-125265542D02*
X94929476Y-125156685D01*
X94929476Y-125439714D01*
X87674428Y-131723800D02*
X87698619Y-131702028D01*
X87722809Y-131636714D01*
X87722809Y-131593171D01*
X87698619Y-131527857D01*
X87650238Y-131484314D01*
X87601857Y-131462542D01*
X87505095Y-131440771D01*
X87432523Y-131440771D01*
X87335761Y-131462542D01*
X87287380Y-131484314D01*
X87239000Y-131527857D01*
X87214809Y-131593171D01*
X87214809Y-131636714D01*
X87239000Y-131702028D01*
X87263190Y-131723800D01*
X87214809Y-131876200D02*
X87214809Y-132181000D01*
X87722809Y-131985057D01*
X90976200Y-130381428D02*
X90997971Y-130405619D01*
X91063285Y-130429809D01*
X91106828Y-130429809D01*
X91172142Y-130405619D01*
X91215685Y-130357238D01*
X91237457Y-130308857D01*
X91259228Y-130212095D01*
X91259228Y-130139523D01*
X91237457Y-130042761D01*
X91215685Y-129994380D01*
X91172142Y-129946000D01*
X91106828Y-129921809D01*
X91063285Y-129921809D01*
X90997971Y-129946000D01*
X90976200Y-129970190D01*
X90584314Y-129921809D02*
X90671400Y-129921809D01*
X90714942Y-129946000D01*
X90736714Y-129970190D01*
X90780257Y-130042761D01*
X90802028Y-130139523D01*
X90802028Y-130333047D01*
X90780257Y-130381428D01*
X90758485Y-130405619D01*
X90714942Y-130429809D01*
X90627857Y-130429809D01*
X90584314Y-130405619D01*
X90562542Y-130381428D01*
X90540771Y-130333047D01*
X90540771Y-130212095D01*
X90562542Y-130163714D01*
X90584314Y-130139523D01*
X90627857Y-130115333D01*
X90714942Y-130115333D01*
X90758485Y-130139523D01*
X90780257Y-130163714D01*
X90802028Y-130212095D01*
X92576200Y-130381428D02*
X92597971Y-130405619D01*
X92663285Y-130429809D01*
X92706828Y-130429809D01*
X92772142Y-130405619D01*
X92815685Y-130357238D01*
X92837457Y-130308857D01*
X92859228Y-130212095D01*
X92859228Y-130139523D01*
X92837457Y-130042761D01*
X92815685Y-129994380D01*
X92772142Y-129946000D01*
X92706828Y-129921809D01*
X92663285Y-129921809D01*
X92597971Y-129946000D01*
X92576200Y-129970190D01*
X92162542Y-129921809D02*
X92380257Y-129921809D01*
X92402028Y-130163714D01*
X92380257Y-130139523D01*
X92336714Y-130115333D01*
X92227857Y-130115333D01*
X92184314Y-130139523D01*
X92162542Y-130163714D01*
X92140771Y-130212095D01*
X92140771Y-130333047D01*
X92162542Y-130381428D01*
X92184314Y-130405619D01*
X92227857Y-130429809D01*
X92336714Y-130429809D01*
X92380257Y-130405619D01*
X92402028Y-130381428D01*
X81876200Y-136181428D02*
X81897971Y-136205619D01*
X81963285Y-136229809D01*
X82006828Y-136229809D01*
X82072142Y-136205619D01*
X82115685Y-136157238D01*
X82137457Y-136108857D01*
X82159228Y-136012095D01*
X82159228Y-135939523D01*
X82137457Y-135842761D01*
X82115685Y-135794380D01*
X82072142Y-135746000D01*
X82006828Y-135721809D01*
X81963285Y-135721809D01*
X81897971Y-135746000D01*
X81876200Y-135770190D01*
X81484314Y-135891142D02*
X81484314Y-136229809D01*
X81593171Y-135697619D02*
X81702028Y-136060476D01*
X81419000Y-136060476D01*
X111387947Y-128552184D02*
X111420447Y-128553895D01*
X111483737Y-128524816D01*
X111514526Y-128494026D01*
X111543605Y-128430737D01*
X111540184Y-128365737D01*
X111521368Y-128316132D01*
X111468342Y-128232316D01*
X111417026Y-128181000D01*
X111333211Y-128127974D01*
X111283605Y-128109158D01*
X111218605Y-128105737D01*
X111155316Y-128134816D01*
X111124527Y-128165606D01*
X111095448Y-128228895D01*
X111097158Y-128261395D01*
X110955185Y-128334948D02*
X110755053Y-128535079D01*
X110999658Y-128564158D01*
X110953474Y-128610342D01*
X110939790Y-128658237D01*
X110941500Y-128690737D01*
X110960316Y-128740342D01*
X111045842Y-128825868D01*
X111095448Y-128844684D01*
X111127948Y-128846395D01*
X111175842Y-128832710D01*
X111268211Y-128740342D01*
X111281895Y-128692447D01*
X111280184Y-128659947D01*
X82781428Y-127223800D02*
X82805619Y-127202028D01*
X82829809Y-127136714D01*
X82829809Y-127093171D01*
X82805619Y-127027857D01*
X82757238Y-126984314D01*
X82708857Y-126962542D01*
X82612095Y-126940771D01*
X82539523Y-126940771D01*
X82442761Y-126962542D01*
X82394380Y-126984314D01*
X82346000Y-127027857D01*
X82321809Y-127093171D01*
X82321809Y-127136714D01*
X82346000Y-127202028D01*
X82370190Y-127223800D01*
X82370190Y-127397971D02*
X82346000Y-127419742D01*
X82321809Y-127463285D01*
X82321809Y-127572142D01*
X82346000Y-127615685D01*
X82370190Y-127637457D01*
X82418571Y-127659228D01*
X82466952Y-127659228D01*
X82539523Y-127637457D01*
X82829809Y-127376200D01*
X82829809Y-127659228D01*
%LPC*%
D23*
X80463500Y-127958500D03*
D24*
X82613500Y-130758500D03*
X82613500Y-125158500D03*
D25*
X90805000Y-137160000D03*
X88265000Y-137160000D03*
X85725000Y-137160000D03*
X83185000Y-137160000D03*
D26*
X80645000Y-137160000D03*
X80645000Y-119888000D03*
D25*
X80645000Y-117348000D03*
X80645000Y-114808000D03*
X80645000Y-112268000D03*
D26*
X80645000Y-105918000D03*
D25*
X83185000Y-105918000D03*
X80645000Y-103378000D03*
X83185000Y-103378000D03*
D26*
X95885000Y-105918000D03*
D25*
X98425000Y-105918000D03*
X95885000Y-103378000D03*
X98425000Y-103378000D03*
D26*
X108331000Y-78105000D03*
D25*
X110871000Y-78105000D03*
X108331000Y-75565000D03*
X110871000Y-75565000D03*
D26*
X83820000Y-78105000D03*
D25*
X86360000Y-78105000D03*
X83820000Y-75565000D03*
X86360000Y-75565000D03*
X98933000Y-75565000D03*
X96393000Y-75565000D03*
X98933000Y-78105000D03*
D26*
X96393000Y-78105000D03*
D27*
X89494360Y-113030000D03*
X84495640Y-113030000D03*
D28*
X114300000Y-126253240D03*
X114300000Y-128254760D03*
X114300000Y-130253740D03*
X114300000Y-132255260D03*
X114300000Y-124254260D03*
X114300000Y-122252740D03*
D29*
X102362000Y-99822000D03*
X107442000Y-99822000D03*
D30*
X102362000Y-103949500D03*
X107442000Y-103949500D03*
D29*
X87630000Y-99822000D03*
X92710000Y-99822000D03*
D30*
X87630000Y-103949500D03*
X92710000Y-103949500D03*
D31*
X108633260Y-133096000D03*
X112092740Y-133096000D03*
D32*
X97033080Y-134853680D03*
X97033080Y-132354320D03*
X100832920Y-132354320D03*
X100832920Y-134853680D03*
D33*
X108712000Y-136398000D03*
X111252000Y-136398000D03*
X113792000Y-136398000D03*
D34*
X92000000Y-77000000D03*
X103500000Y-77000000D03*
D35*
X80391000Y-125222000D03*
X80391000Y-122174000D03*
X83000000Y-116776000D03*
X83000000Y-119824000D03*
D36*
X110490000Y-120431560D03*
X110490000Y-115280440D03*
D37*
X111887000Y-123939300D03*
X111887000Y-122440700D03*
X110450000Y-123949300D03*
X110450000Y-122450700D03*
X109050000Y-123949300D03*
X109050000Y-122450700D03*
D38*
X110744000Y-84142580D03*
D39*
X114554000Y-94744540D03*
X113284000Y-94744540D03*
X112014000Y-94744540D03*
X109474000Y-94744540D03*
X108204000Y-94744540D03*
X106934000Y-94744540D03*
D38*
X97917000Y-84142580D03*
D39*
X101727000Y-94744540D03*
X100457000Y-94744540D03*
X99187000Y-94744540D03*
X96647000Y-94744540D03*
X95377000Y-94744540D03*
X94107000Y-94744540D03*
D38*
X84836000Y-84142580D03*
D39*
X88646000Y-94744540D03*
X87376000Y-94744540D03*
X86106000Y-94744540D03*
X83566000Y-94744540D03*
X82296000Y-94744540D03*
X81026000Y-94744540D03*
D34*
X114000000Y-142000000D03*
X81500000Y-142000000D03*
D40*
X102549000Y-116300000D03*
X105851000Y-116300000D03*
X105537000Y-111760000D03*
X108839000Y-111760000D03*
X92329000Y-112268000D03*
X95631000Y-112268000D03*
X94488000Y-116205000D03*
X97790000Y-116205000D03*
X94488000Y-118618000D03*
X97790000Y-118618000D03*
D41*
X85200000Y-125338000D03*
X85200000Y-126862000D03*
X85200000Y-129762000D03*
X85200000Y-128238000D03*
X106426000Y-131572000D03*
X106426000Y-133096000D03*
X80327500Y-130175000D03*
X80327500Y-131699000D03*
X83312000Y-135128000D03*
X83312000Y-133604000D03*
X86360000Y-135128000D03*
X86360000Y-133604000D03*
X89408000Y-135128000D03*
X89408000Y-133604000D03*
X92456000Y-135128000D03*
X92456000Y-133604000D03*
X90932000Y-135128000D03*
X90932000Y-133604000D03*
X87884000Y-135128000D03*
X87884000Y-133604000D03*
X84836000Y-135128000D03*
X84836000Y-133604000D03*
D42*
X93472000Y-121666000D03*
X94996000Y-121666000D03*
D41*
X109100000Y-125238000D03*
X109100000Y-126762000D03*
D42*
X87503000Y-128524000D03*
X89027000Y-128524000D03*
X93462000Y-128050000D03*
X91938000Y-128050000D03*
X87503000Y-127000000D03*
X89027000Y-127000000D03*
X93462000Y-126550000D03*
X91938000Y-126550000D03*
X114808000Y-103124000D03*
X113284000Y-103124000D03*
D41*
X104394000Y-91059000D03*
X104394000Y-89535000D03*
D42*
X87488000Y-125450000D03*
X89012000Y-125450000D03*
X93462000Y-125050000D03*
X91938000Y-125050000D03*
D41*
X104394000Y-94742000D03*
X104394000Y-96266000D03*
X104394000Y-92202000D03*
X104394000Y-93726000D03*
X112100000Y-125238000D03*
X112100000Y-126762000D03*
X110600000Y-125238000D03*
X110600000Y-126762000D03*
X91186000Y-94234000D03*
X91186000Y-95758000D03*
X91186000Y-91440000D03*
X91186000Y-92964000D03*
D42*
X83312000Y-132334000D03*
X81788000Y-132334000D03*
D43*
X92202000Y-118364000D03*
D44*
X85598000Y-118364000D03*
X85598000Y-116078000D03*
X85598000Y-120650000D03*
D45*
X114300000Y-118018560D03*
D46*
X114300000Y-114015520D03*
X114300000Y-116017040D03*
X114300000Y-112016540D03*
X114300000Y-110015020D03*
X114300000Y-108013500D03*
X114300000Y-106014520D03*
D42*
X100203000Y-119888000D03*
X101727000Y-119888000D03*
D41*
X107442000Y-123571000D03*
X107442000Y-122047000D03*
D42*
X101092000Y-130810000D03*
X99568000Y-130810000D03*
X95250000Y-135763000D03*
X93726000Y-135763000D03*
X103251000Y-133858000D03*
X104775000Y-133858000D03*
D41*
X85090000Y-123698000D03*
X85090000Y-122174000D03*
X105918000Y-123571000D03*
X105918000Y-122047000D03*
D42*
X100203000Y-121285000D03*
X101727000Y-121285000D03*
D41*
X97663000Y-125603000D03*
X97663000Y-124079000D03*
X107600000Y-126762000D03*
X107600000Y-125238000D03*
D42*
X96774000Y-130810000D03*
X98298000Y-130810000D03*
D41*
X96012000Y-124079000D03*
X96012000Y-125603000D03*
X86350000Y-132562000D03*
X86350000Y-131038000D03*
X90900000Y-132562000D03*
X90900000Y-131038000D03*
X92456000Y-132588000D03*
X92456000Y-131064000D03*
X81788000Y-133604000D03*
X81788000Y-135128000D03*
D47*
X112552815Y-128747185D03*
D10*
G36*
X112373210Y-128118567D02*
G01*
X113181433Y-128926790D01*
X112732420Y-129375803D01*
X111924197Y-128567580D01*
X112373210Y-128118567D01*
X112373210Y-128118567D01*
G37*
D47*
X111475185Y-129824815D03*
D10*
G36*
X111295580Y-129196197D02*
G01*
X112103803Y-130004420D01*
X111654790Y-130453433D01*
X110846567Y-129645210D01*
X111295580Y-129196197D01*
X111295580Y-129196197D01*
G37*
D41*
X83693000Y-127000000D03*
X83693000Y-128524000D03*
D48*
G36*
X87503000Y-96329500D02*
G01*
X87505440Y-96354276D01*
X87512667Y-96378101D01*
X87524403Y-96400057D01*
X87540197Y-96419303D01*
X88646000Y-97525106D01*
X88646000Y-102362000D01*
X85471000Y-102362000D01*
X85471000Y-101727000D01*
X85468560Y-101702224D01*
X85461333Y-101678399D01*
X85449597Y-101656443D01*
X85433803Y-101637197D01*
X85414557Y-101621403D01*
X85392601Y-101609667D01*
X85375544Y-101603980D01*
X80518000Y-100358456D01*
X80518000Y-94234000D01*
X87503000Y-94234000D01*
X87503000Y-96329500D01*
X87503000Y-96329500D01*
G37*
X87503000Y-96329500D02*
X87505440Y-96354276D01*
X87512667Y-96378101D01*
X87524403Y-96400057D01*
X87540197Y-96419303D01*
X88646000Y-97525106D01*
X88646000Y-102362000D01*
X85471000Y-102362000D01*
X85471000Y-101727000D01*
X85468560Y-101702224D01*
X85461333Y-101678399D01*
X85449597Y-101656443D01*
X85433803Y-101637197D01*
X85414557Y-101621403D01*
X85392601Y-101609667D01*
X85375544Y-101603980D01*
X80518000Y-100358456D01*
X80518000Y-94234000D01*
X87503000Y-94234000D01*
X87503000Y-96329500D01*
G36*
X113411000Y-101293394D02*
G01*
X112215394Y-102489000D01*
X106680000Y-102489000D01*
X106680000Y-100711000D01*
X106679223Y-100696975D01*
X106426000Y-98417968D01*
X106426000Y-94234000D01*
X113411000Y-94234000D01*
X113411000Y-101293394D01*
X113411000Y-101293394D01*
G37*
X113411000Y-101293394D02*
X112215394Y-102489000D01*
X106680000Y-102489000D01*
X106680000Y-100711000D01*
X106679223Y-100696975D01*
X106426000Y-98417968D01*
X106426000Y-94234000D01*
X113411000Y-94234000D01*
X113411000Y-101293394D01*
G36*
X100711000Y-97155000D02*
G01*
X100713440Y-97179776D01*
X100720667Y-97203601D01*
X100732403Y-97225557D01*
X100748197Y-97244803D01*
X100767443Y-97260597D01*
X100789399Y-97272333D01*
X100813224Y-97279560D01*
X100838000Y-97282000D01*
X101219000Y-97282000D01*
X101219000Y-101600000D01*
X92837000Y-101600000D01*
X92837000Y-94234000D01*
X100711000Y-94234000D01*
X100711000Y-97155000D01*
X100711000Y-97155000D01*
G37*
X100711000Y-97155000D02*
X100713440Y-97179776D01*
X100720667Y-97203601D01*
X100732403Y-97225557D01*
X100748197Y-97244803D01*
X100767443Y-97260597D01*
X100789399Y-97272333D01*
X100813224Y-97279560D01*
X100838000Y-97282000D01*
X101219000Y-97282000D01*
X101219000Y-101600000D01*
X92837000Y-101600000D01*
X92837000Y-94234000D01*
X100711000Y-94234000D01*
X100711000Y-97155000D01*
M02*
