G04 #@! TF.GenerationSoftware,KiCad,Pcbnew,(5.1.2)-1*
G04 #@! TF.CreationDate,2021-03-05T10:29:45+00:00*
G04 #@! TF.ProjectId,BLDC_4,424c4443-5f34-42e6-9b69-6361645f7063,A*
G04 #@! TF.SameCoordinates,Original*
G04 #@! TF.FileFunction,Legend,Top*
G04 #@! TF.FilePolarity,Positive*
%FSLAX46Y46*%
G04 Gerber Fmt 4.6, Leading zero omitted, Abs format (unit mm)*
G04 Created by KiCad (PCBNEW (5.1.2)-1) date 2021-03-05 10:29:45*
%MOMM*%
%LPD*%
G04 APERTURE LIST*
%ADD10C,0.150000*%
%ADD11C,0.250000*%
%ADD12C,0.120000*%
%ADD13C,0.381000*%
%ADD14C,0.066040*%
%ADD15C,0.152400*%
%ADD16C,0.127000*%
%ADD17C,0.119380*%
%ADD18C,0.175000*%
%ADD19C,0.304800*%
%ADD20C,0.149860*%
%ADD21C,0.114300*%
%ADD22O,1.100000X2.200000*%
%ADD23O,1.100000X1.800000*%
%ADD24R,1.500000X0.450000*%
%ADD25O,1.700000X1.700000*%
%ADD26R,1.700000X1.700000*%
%ADD27C,1.300480*%
%ADD28R,10.800080X8.150860*%
%ADD29R,0.899160X3.200400*%
%ADD30O,1.524000X3.048000*%
%ADD31C,4.064000*%
%ADD32R,1.849120X5.499100*%
%ADD33R,2.997200X7.498080*%
%ADD34R,5.000000X4.000000*%
%ADD35R,0.300000X1.300480*%
%ADD36R,1.300480X0.300000*%
%ADD37R,0.299720X1.501140*%
%ADD38R,7.000240X3.599180*%
%ADD39R,1.524000X2.032000*%
%ADD40R,2.032000X1.524000*%
%ADD41R,0.635000X1.143000*%
%ADD42R,1.143000X0.635000*%
%ADD43R,1.399540X0.599440*%
%ADD44R,1.300000X1.300000*%
%ADD45C,1.300000*%
%ADD46C,0.635000*%
%ADD47C,0.254000*%
G04 APERTURE END LIST*
D10*
X91511500Y-105155904D02*
X91463880Y-105251142D01*
X91463880Y-105394000D01*
X91511500Y-105536857D01*
X91606738Y-105632095D01*
X91701976Y-105679714D01*
X91892452Y-105727333D01*
X92035309Y-105727333D01*
X92225785Y-105679714D01*
X92321023Y-105632095D01*
X92416261Y-105536857D01*
X92463880Y-105394000D01*
X92463880Y-105298761D01*
X92416261Y-105155904D01*
X92368642Y-105108285D01*
X92035309Y-105108285D01*
X92035309Y-105298761D01*
X92463880Y-104679714D02*
X91463880Y-104679714D01*
X92463880Y-104108285D01*
X91463880Y-104108285D01*
X92463880Y-103632095D02*
X91463880Y-103632095D01*
X91463880Y-103394000D01*
X91511500Y-103251142D01*
X91606738Y-103155904D01*
X91701976Y-103108285D01*
X91892452Y-103060666D01*
X92035309Y-103060666D01*
X92225785Y-103108285D01*
X92321023Y-103155904D01*
X92416261Y-103251142D01*
X92463880Y-103394000D01*
X92463880Y-103632095D01*
X80454666Y-107529380D02*
X80788000Y-108529380D01*
X81121333Y-107529380D01*
X82026095Y-108434142D02*
X81978476Y-108481761D01*
X81835619Y-108529380D01*
X81740380Y-108529380D01*
X81597523Y-108481761D01*
X81502285Y-108386523D01*
X81454666Y-108291285D01*
X81407047Y-108100809D01*
X81407047Y-107957952D01*
X81454666Y-107767476D01*
X81502285Y-107672238D01*
X81597523Y-107577000D01*
X81740380Y-107529380D01*
X81835619Y-107529380D01*
X81978476Y-107577000D01*
X82026095Y-107624619D01*
X83026095Y-108434142D02*
X82978476Y-108481761D01*
X82835619Y-108529380D01*
X82740380Y-108529380D01*
X82597523Y-108481761D01*
X82502285Y-108386523D01*
X82454666Y-108291285D01*
X82407047Y-108100809D01*
X82407047Y-107957952D01*
X82454666Y-107767476D01*
X82502285Y-107672238D01*
X82597523Y-107577000D01*
X82740380Y-107529380D01*
X82835619Y-107529380D01*
X82978476Y-107577000D01*
X83026095Y-107624619D01*
X82942071Y-112118785D02*
X82942071Y-111833071D01*
X82656357Y-111804500D01*
X82684928Y-111833071D01*
X82713500Y-111890214D01*
X82713500Y-112033071D01*
X82684928Y-112090214D01*
X82656357Y-112118785D01*
X82599214Y-112147357D01*
X82456357Y-112147357D01*
X82399214Y-112118785D01*
X82370642Y-112090214D01*
X82342071Y-112033071D01*
X82342071Y-111890214D01*
X82370642Y-111833071D01*
X82399214Y-111804500D01*
X82742071Y-112347357D02*
X82342071Y-112490214D01*
X82742071Y-112633071D01*
X82526214Y-113981000D02*
X82497642Y-113952428D01*
X82469071Y-113866714D01*
X82469071Y-113809571D01*
X82497642Y-113723857D01*
X82554785Y-113666714D01*
X82611928Y-113638142D01*
X82726214Y-113609571D01*
X82811928Y-113609571D01*
X82926214Y-113638142D01*
X82983357Y-113666714D01*
X83040500Y-113723857D01*
X83069071Y-113809571D01*
X83069071Y-113866714D01*
X83040500Y-113952428D01*
X83011928Y-113981000D01*
X82640500Y-114209571D02*
X82640500Y-114495285D01*
X82469071Y-114152428D02*
X83069071Y-114352428D01*
X82469071Y-114552428D01*
X82469071Y-114752428D02*
X83069071Y-114752428D01*
X82469071Y-115095285D01*
X83069071Y-115095285D01*
X82469071Y-115381000D02*
X83069071Y-115381000D01*
X82783357Y-115381000D02*
X82783357Y-115723857D01*
X82469071Y-115723857D02*
X83069071Y-115723857D01*
X82526214Y-116782928D02*
X82497642Y-116754357D01*
X82469071Y-116668642D01*
X82469071Y-116611500D01*
X82497642Y-116525785D01*
X82554785Y-116468642D01*
X82611928Y-116440071D01*
X82726214Y-116411500D01*
X82811928Y-116411500D01*
X82926214Y-116440071D01*
X82983357Y-116468642D01*
X83040500Y-116525785D01*
X83069071Y-116611500D01*
X83069071Y-116668642D01*
X83040500Y-116754357D01*
X83011928Y-116782928D01*
X82640500Y-117011500D02*
X82640500Y-117297214D01*
X82469071Y-116954357D02*
X83069071Y-117154357D01*
X82469071Y-117354357D01*
X82469071Y-117554357D02*
X83069071Y-117554357D01*
X82469071Y-117897214D01*
X83069071Y-117897214D01*
X82469071Y-118468642D02*
X82469071Y-118182928D01*
X83069071Y-118182928D01*
X79495785Y-134735928D02*
X79838642Y-134735928D01*
X79667214Y-135335928D02*
X79667214Y-134735928D01*
X80038642Y-135021642D02*
X80238642Y-135021642D01*
X80324357Y-135335928D02*
X80038642Y-135335928D01*
X80038642Y-134735928D01*
X80324357Y-134735928D01*
X80581500Y-135335928D02*
X80581500Y-134735928D01*
X80781500Y-135164500D01*
X80981500Y-134735928D01*
X80981500Y-135335928D01*
X81267214Y-135335928D02*
X81267214Y-134735928D01*
X81495785Y-134735928D01*
X81552928Y-134764500D01*
X81581500Y-134793071D01*
X81610071Y-134850214D01*
X81610071Y-134935928D01*
X81581500Y-134993071D01*
X81552928Y-135021642D01*
X81495785Y-135050214D01*
X81267214Y-135050214D01*
X82791357Y-135399428D02*
X82791357Y-134799428D01*
X82791357Y-135085142D02*
X83134214Y-135085142D01*
X83134214Y-135399428D02*
X83134214Y-134799428D01*
X83734214Y-135399428D02*
X83391357Y-135399428D01*
X83562785Y-135399428D02*
X83562785Y-134799428D01*
X83505642Y-134885142D01*
X83448500Y-134942285D01*
X83391357Y-134970857D01*
X85204357Y-135399428D02*
X85204357Y-134799428D01*
X85204357Y-135085142D02*
X85547214Y-135085142D01*
X85547214Y-135399428D02*
X85547214Y-134799428D01*
X85804357Y-134856571D02*
X85832928Y-134828000D01*
X85890071Y-134799428D01*
X86032928Y-134799428D01*
X86090071Y-134828000D01*
X86118642Y-134856571D01*
X86147214Y-134913714D01*
X86147214Y-134970857D01*
X86118642Y-135056571D01*
X85775785Y-135399428D01*
X86147214Y-135399428D01*
X87871357Y-135462928D02*
X87871357Y-134862928D01*
X87871357Y-135148642D02*
X88214214Y-135148642D01*
X88214214Y-135462928D02*
X88214214Y-134862928D01*
X88442785Y-134862928D02*
X88814214Y-134862928D01*
X88614214Y-135091500D01*
X88699928Y-135091500D01*
X88757071Y-135120071D01*
X88785642Y-135148642D01*
X88814214Y-135205785D01*
X88814214Y-135348642D01*
X88785642Y-135405785D01*
X88757071Y-135434357D01*
X88699928Y-135462928D01*
X88528500Y-135462928D01*
X88471357Y-135434357D01*
X88442785Y-135405785D01*
X90347857Y-134891500D02*
X90290714Y-134862928D01*
X90205000Y-134862928D01*
X90119285Y-134891500D01*
X90062142Y-134948642D01*
X90033571Y-135005785D01*
X90005000Y-135120071D01*
X90005000Y-135205785D01*
X90033571Y-135320071D01*
X90062142Y-135377214D01*
X90119285Y-135434357D01*
X90205000Y-135462928D01*
X90262142Y-135462928D01*
X90347857Y-135434357D01*
X90376428Y-135405785D01*
X90376428Y-135205785D01*
X90262142Y-135205785D01*
X90633571Y-135462928D02*
X90633571Y-134862928D01*
X90976428Y-135462928D01*
X90976428Y-134862928D01*
X91262142Y-135462928D02*
X91262142Y-134862928D01*
X91405000Y-134862928D01*
X91490714Y-134891500D01*
X91547857Y-134948642D01*
X91576428Y-135005785D01*
X91605000Y-135120071D01*
X91605000Y-135205785D01*
X91576428Y-135320071D01*
X91547857Y-135377214D01*
X91490714Y-135434357D01*
X91405000Y-135462928D01*
X91262142Y-135462928D01*
X82913500Y-119430857D02*
X82942071Y-119373714D01*
X82942071Y-119288000D01*
X82913500Y-119202285D01*
X82856357Y-119145142D01*
X82799214Y-119116571D01*
X82684928Y-119088000D01*
X82599214Y-119088000D01*
X82484928Y-119116571D01*
X82427785Y-119145142D01*
X82370642Y-119202285D01*
X82342071Y-119288000D01*
X82342071Y-119345142D01*
X82370642Y-119430857D01*
X82399214Y-119459428D01*
X82599214Y-119459428D01*
X82599214Y-119345142D01*
X82342071Y-119716571D02*
X82942071Y-119716571D01*
X82342071Y-120059428D01*
X82942071Y-120059428D01*
X82342071Y-120345142D02*
X82942071Y-120345142D01*
X82942071Y-120488000D01*
X82913500Y-120573714D01*
X82856357Y-120630857D01*
X82799214Y-120659428D01*
X82684928Y-120688000D01*
X82599214Y-120688000D01*
X82484928Y-120659428D01*
X82427785Y-120630857D01*
X82370642Y-120573714D01*
X82342071Y-120488000D01*
X82342071Y-120345142D01*
D11*
X114688095Y-137926000D02*
X114592857Y-137878380D01*
X114450000Y-137878380D01*
X114307142Y-137926000D01*
X114211904Y-138021238D01*
X114164285Y-138116476D01*
X114116666Y-138306952D01*
X114116666Y-138449809D01*
X114164285Y-138640285D01*
X114211904Y-138735523D01*
X114307142Y-138830761D01*
X114450000Y-138878380D01*
X114545238Y-138878380D01*
X114688095Y-138830761D01*
X114735714Y-138783142D01*
X114735714Y-138449809D01*
X114545238Y-138449809D01*
X115164285Y-138878380D02*
X115164285Y-137878380D01*
X115735714Y-138878380D01*
X115735714Y-137878380D01*
X116211904Y-138878380D02*
X116211904Y-137878380D01*
X116450000Y-137878380D01*
X116592857Y-137926000D01*
X116688095Y-138021238D01*
X116735714Y-138116476D01*
X116783333Y-138306952D01*
X116783333Y-138449809D01*
X116735714Y-138640285D01*
X116688095Y-138735523D01*
X116592857Y-138830761D01*
X116450000Y-138878380D01*
X116211904Y-138878380D01*
D10*
X105081009Y-99004380D02*
X105081009Y-98004380D01*
X105458380Y-99004380D02*
X105175352Y-98432952D01*
X105458380Y-98004380D02*
X105081009Y-98575809D01*
X105741409Y-99004380D02*
X105741409Y-98337714D01*
X105741409Y-98004380D02*
X105709961Y-98052000D01*
X105741409Y-98099619D01*
X105772857Y-98052000D01*
X105741409Y-98004380D01*
X105741409Y-98099619D01*
X106055885Y-98337714D02*
X106055885Y-99004380D01*
X106055885Y-98432952D02*
X106087333Y-98385333D01*
X106150228Y-98337714D01*
X106244571Y-98337714D01*
X106307466Y-98385333D01*
X106338914Y-98480571D01*
X106338914Y-99004380D01*
X106936419Y-98337714D02*
X106936419Y-99147238D01*
X106904971Y-99242476D01*
X106873523Y-99290095D01*
X106810628Y-99337714D01*
X106716285Y-99337714D01*
X106653390Y-99290095D01*
X106936419Y-98956761D02*
X106873523Y-99004380D01*
X106747733Y-99004380D01*
X106684838Y-98956761D01*
X106653390Y-98909142D01*
X106621942Y-98813904D01*
X106621942Y-98528190D01*
X106653390Y-98432952D01*
X106684838Y-98385333D01*
X106747733Y-98337714D01*
X106873523Y-98337714D01*
X106936419Y-98385333D01*
X107533923Y-99004380D02*
X107533923Y-98004380D01*
X107533923Y-98956761D02*
X107471028Y-99004380D01*
X107345238Y-99004380D01*
X107282342Y-98956761D01*
X107250895Y-98909142D01*
X107219447Y-98813904D01*
X107219447Y-98528190D01*
X107250895Y-98432952D01*
X107282342Y-98385333D01*
X107345238Y-98337714D01*
X107471028Y-98337714D01*
X107533923Y-98385333D01*
X107942742Y-99004380D02*
X107879847Y-98956761D01*
X107848400Y-98909142D01*
X107816952Y-98813904D01*
X107816952Y-98528190D01*
X107848400Y-98432952D01*
X107879847Y-98385333D01*
X107942742Y-98337714D01*
X108037085Y-98337714D01*
X108099980Y-98385333D01*
X108131428Y-98432952D01*
X108162876Y-98528190D01*
X108162876Y-98813904D01*
X108131428Y-98909142D01*
X108099980Y-98956761D01*
X108037085Y-99004380D01*
X107942742Y-99004380D01*
X108445904Y-99004380D02*
X108445904Y-98337714D01*
X108445904Y-98432952D02*
X108477352Y-98385333D01*
X108540247Y-98337714D01*
X108634590Y-98337714D01*
X108697485Y-98385333D01*
X108728933Y-98480571D01*
X108728933Y-99004380D01*
X108728933Y-98480571D02*
X108760380Y-98385333D01*
X108823276Y-98337714D01*
X108917619Y-98337714D01*
X108980514Y-98385333D01*
X109011961Y-98480571D01*
X109011961Y-99004380D01*
X109735257Y-98004380D02*
X110112628Y-98004380D01*
X109923942Y-99004380D02*
X109923942Y-98004380D01*
X110584342Y-98956761D02*
X110521447Y-99004380D01*
X110395657Y-99004380D01*
X110332761Y-98956761D01*
X110301314Y-98861523D01*
X110301314Y-98480571D01*
X110332761Y-98385333D01*
X110395657Y-98337714D01*
X110521447Y-98337714D01*
X110584342Y-98385333D01*
X110615790Y-98480571D01*
X110615790Y-98575809D01*
X110301314Y-98671047D01*
X111181847Y-98956761D02*
X111118952Y-99004380D01*
X110993161Y-99004380D01*
X110930266Y-98956761D01*
X110898819Y-98909142D01*
X110867371Y-98813904D01*
X110867371Y-98528190D01*
X110898819Y-98432952D01*
X110930266Y-98385333D01*
X110993161Y-98337714D01*
X111118952Y-98337714D01*
X111181847Y-98385333D01*
X111464876Y-99004380D02*
X111464876Y-98004380D01*
X111747904Y-99004380D02*
X111747904Y-98480571D01*
X111716457Y-98385333D01*
X111653561Y-98337714D01*
X111559219Y-98337714D01*
X111496323Y-98385333D01*
X111464876Y-98432952D01*
X112062380Y-98337714D02*
X112062380Y-99004380D01*
X112062380Y-98432952D02*
X112093828Y-98385333D01*
X112156723Y-98337714D01*
X112251066Y-98337714D01*
X112313961Y-98385333D01*
X112345409Y-98480571D01*
X112345409Y-99004380D01*
X112754228Y-99004380D02*
X112691333Y-98956761D01*
X112659885Y-98909142D01*
X112628438Y-98813904D01*
X112628438Y-98528190D01*
X112659885Y-98432952D01*
X112691333Y-98385333D01*
X112754228Y-98337714D01*
X112848571Y-98337714D01*
X112911466Y-98385333D01*
X112942914Y-98432952D01*
X112974361Y-98528190D01*
X112974361Y-98813904D01*
X112942914Y-98909142D01*
X112911466Y-98956761D01*
X112848571Y-99004380D01*
X112754228Y-99004380D01*
X113351733Y-99004380D02*
X113288838Y-98956761D01*
X113257390Y-98861523D01*
X113257390Y-98004380D01*
X113697657Y-99004380D02*
X113634761Y-98956761D01*
X113603314Y-98909142D01*
X113571866Y-98813904D01*
X113571866Y-98528190D01*
X113603314Y-98432952D01*
X113634761Y-98385333D01*
X113697657Y-98337714D01*
X113792000Y-98337714D01*
X113854895Y-98385333D01*
X113886342Y-98432952D01*
X113917790Y-98528190D01*
X113917790Y-98813904D01*
X113886342Y-98909142D01*
X113854895Y-98956761D01*
X113792000Y-99004380D01*
X113697657Y-99004380D01*
X114483847Y-98337714D02*
X114483847Y-99147238D01*
X114452400Y-99242476D01*
X114420952Y-99290095D01*
X114358057Y-99337714D01*
X114263714Y-99337714D01*
X114200819Y-99290095D01*
X114483847Y-98956761D02*
X114420952Y-99004380D01*
X114295161Y-99004380D01*
X114232266Y-98956761D01*
X114200819Y-98909142D01*
X114169371Y-98813904D01*
X114169371Y-98528190D01*
X114200819Y-98432952D01*
X114232266Y-98385333D01*
X114295161Y-98337714D01*
X114420952Y-98337714D01*
X114483847Y-98385333D01*
X114798323Y-99004380D02*
X114798323Y-98337714D01*
X114798323Y-98004380D02*
X114766876Y-98052000D01*
X114798323Y-98099619D01*
X114829771Y-98052000D01*
X114798323Y-98004380D01*
X114798323Y-98099619D01*
X115364380Y-98956761D02*
X115301485Y-99004380D01*
X115175695Y-99004380D01*
X115112800Y-98956761D01*
X115081352Y-98861523D01*
X115081352Y-98480571D01*
X115112800Y-98385333D01*
X115175695Y-98337714D01*
X115301485Y-98337714D01*
X115364380Y-98385333D01*
X115395828Y-98480571D01*
X115395828Y-98575809D01*
X115081352Y-98671047D01*
X115647409Y-98956761D02*
X115710304Y-99004380D01*
X115836095Y-99004380D01*
X115898990Y-98956761D01*
X115930438Y-98861523D01*
X115930438Y-98813904D01*
X115898990Y-98718666D01*
X115836095Y-98671047D01*
X115741752Y-98671047D01*
X115678857Y-98623428D01*
X115647409Y-98528190D01*
X115647409Y-98480571D01*
X115678857Y-98385333D01*
X115741752Y-98337714D01*
X115836095Y-98337714D01*
X115898990Y-98385333D01*
X110293476Y-99909380D02*
X110560142Y-100909380D01*
X110826809Y-99909380D01*
X111093476Y-100385571D02*
X111360142Y-100385571D01*
X111474428Y-100909380D02*
X111093476Y-100909380D01*
X111093476Y-99909380D01*
X111474428Y-99909380D01*
X111779190Y-100861761D02*
X111893476Y-100909380D01*
X112083952Y-100909380D01*
X112160142Y-100861761D01*
X112198238Y-100814142D01*
X112236333Y-100718904D01*
X112236333Y-100623666D01*
X112198238Y-100528428D01*
X112160142Y-100480809D01*
X112083952Y-100433190D01*
X111931571Y-100385571D01*
X111855380Y-100337952D01*
X111817285Y-100290333D01*
X111779190Y-100195095D01*
X111779190Y-100099857D01*
X111817285Y-100004619D01*
X111855380Y-99957000D01*
X111931571Y-99909380D01*
X112122047Y-99909380D01*
X112236333Y-99957000D01*
X113036333Y-100814142D02*
X112998238Y-100861761D01*
X112883952Y-100909380D01*
X112807761Y-100909380D01*
X112693476Y-100861761D01*
X112617285Y-100766523D01*
X112579190Y-100671285D01*
X112541095Y-100480809D01*
X112541095Y-100337952D01*
X112579190Y-100147476D01*
X112617285Y-100052238D01*
X112693476Y-99957000D01*
X112807761Y-99909380D01*
X112883952Y-99909380D01*
X112998238Y-99957000D01*
X113036333Y-100004619D01*
X114331571Y-100242714D02*
X114331571Y-100909380D01*
X114141095Y-99861761D02*
X113950619Y-100576047D01*
X114445857Y-100576047D01*
X114750619Y-100814142D02*
X114788714Y-100861761D01*
X114750619Y-100909380D01*
X114712523Y-100861761D01*
X114750619Y-100814142D01*
X114750619Y-100909380D01*
X115055380Y-100909380D02*
X115474428Y-100242714D01*
X115055380Y-100242714D02*
X115474428Y-100909380D01*
D12*
X83363500Y-129958500D02*
X83363500Y-132108500D01*
X79813500Y-132108500D02*
X79813500Y-129208500D01*
X83363500Y-123808500D02*
X79813500Y-123808500D01*
X79813500Y-123808500D02*
X79813500Y-126708500D01*
X83363500Y-132108500D02*
X79813500Y-132108500D01*
X83363500Y-125958500D02*
X83363500Y-123808500D01*
X83363500Y-126258500D02*
X83363500Y-126858500D01*
X82613500Y-126258500D02*
X83363500Y-126258500D01*
D13*
X112798860Y-134053580D02*
X113901220Y-134053580D01*
X117099080Y-134053580D02*
X114698780Y-134053580D01*
X112798860Y-120454420D02*
X113901220Y-120454420D01*
X117099080Y-120454420D02*
X114698780Y-120454420D01*
X112798860Y-123253500D02*
X112798860Y-120454420D01*
X117099080Y-120454420D02*
X117099080Y-134053580D01*
X112798860Y-134053580D02*
X112798860Y-131254500D01*
X79509620Y-86807040D02*
X89908380Y-86807040D01*
X89908380Y-86807040D02*
X89908380Y-94604840D01*
X89908380Y-94604840D02*
X87508080Y-95905320D01*
X87508080Y-95905320D02*
X81909920Y-95905320D01*
X81909920Y-95905320D02*
X79509620Y-94604840D01*
X79509620Y-94604840D02*
X79509620Y-86807040D01*
D14*
X110998000Y-136652000D02*
X111506000Y-136652000D01*
X111506000Y-136652000D02*
X111506000Y-136144000D01*
X110998000Y-136144000D02*
X111506000Y-136144000D01*
X110998000Y-136652000D02*
X110998000Y-136144000D01*
X108458000Y-136652000D02*
X108966000Y-136652000D01*
X108966000Y-136652000D02*
X108966000Y-136144000D01*
X108458000Y-136144000D02*
X108966000Y-136144000D01*
X108458000Y-136652000D02*
X108458000Y-136144000D01*
X113538000Y-136652000D02*
X114046000Y-136652000D01*
X114046000Y-136652000D02*
X114046000Y-136144000D01*
X113538000Y-136144000D02*
X114046000Y-136144000D01*
X113538000Y-136652000D02*
X113538000Y-136144000D01*
D15*
X108077000Y-135128000D02*
X109347000Y-135128000D01*
X109347000Y-135128000D02*
X109982000Y-135763000D01*
X109982000Y-135763000D02*
X109982000Y-137033000D01*
X109982000Y-137033000D02*
X109347000Y-137668000D01*
X109982000Y-135763000D02*
X110617000Y-135128000D01*
X110617000Y-135128000D02*
X111887000Y-135128000D01*
X111887000Y-135128000D02*
X112522000Y-135763000D01*
X112522000Y-135763000D02*
X112522000Y-137033000D01*
X112522000Y-137033000D02*
X111887000Y-137668000D01*
X111887000Y-137668000D02*
X110617000Y-137668000D01*
X110617000Y-137668000D02*
X109982000Y-137033000D01*
X107442000Y-135763000D02*
X107442000Y-137033000D01*
X108077000Y-135128000D02*
X107442000Y-135763000D01*
X107442000Y-137033000D02*
X108077000Y-137668000D01*
X109347000Y-137668000D02*
X108077000Y-137668000D01*
X112522000Y-135763000D02*
X113157000Y-135128000D01*
X113157000Y-135128000D02*
X114427000Y-135128000D01*
X114427000Y-135128000D02*
X115062000Y-135763000D01*
X115062000Y-135763000D02*
X115062000Y-137033000D01*
X115062000Y-137033000D02*
X114427000Y-137668000D01*
X114427000Y-137668000D02*
X113157000Y-137668000D01*
X113157000Y-137668000D02*
X112522000Y-137033000D01*
D13*
X94286000Y-77000000D02*
G75*
G03X94286000Y-77000000I-2286000J0D01*
G01*
X105786000Y-77000000D02*
G75*
G03X105786000Y-77000000I-2286000J0D01*
G01*
D16*
X93055440Y-97282000D02*
X93055440Y-102362000D01*
X88737440Y-97282000D02*
X88737440Y-102362000D01*
X88102440Y-97282000D02*
X93690440Y-97282000D01*
X93690440Y-97282000D02*
X93690440Y-102362000D01*
X93690440Y-102362000D02*
X88102440Y-102362000D01*
X88102440Y-102362000D02*
X88102440Y-97282000D01*
D13*
X91899740Y-115062000D02*
G75*
G03X91899740Y-115062000I-2999740J0D01*
G01*
X86598760Y-111861600D02*
X86598760Y-118262400D01*
X91201240Y-118262400D02*
X91201240Y-111861600D01*
X92900500Y-115062000D02*
G75*
G03X92900500Y-115062000I-4000500J0D01*
G01*
D10*
X82290000Y-79262000D02*
X82290000Y-74662000D01*
X82290000Y-74662000D02*
X87890000Y-74662000D01*
X87890000Y-74662000D02*
X87890000Y-79262000D01*
X87890000Y-79262000D02*
X82290000Y-79262000D01*
X94990000Y-79262000D02*
X94990000Y-74662000D01*
X94990000Y-74662000D02*
X100590000Y-74662000D01*
X100590000Y-74662000D02*
X100590000Y-79262000D01*
X100590000Y-79262000D02*
X94990000Y-79262000D01*
X106674000Y-79262000D02*
X106674000Y-74662000D01*
X106674000Y-74662000D02*
X112274000Y-74662000D01*
X112274000Y-74662000D02*
X112274000Y-79262000D01*
X112274000Y-79262000D02*
X106674000Y-79262000D01*
D13*
X105544620Y-86807040D02*
X115943380Y-86807040D01*
X115943380Y-86807040D02*
X115943380Y-94604840D01*
X115943380Y-94604840D02*
X113543080Y-95905320D01*
X113543080Y-95905320D02*
X107944920Y-95905320D01*
X107944920Y-95905320D02*
X105544620Y-94604840D01*
X105544620Y-94604840D02*
X105544620Y-86807040D01*
X92717620Y-86807040D02*
X103116380Y-86807040D01*
X103116380Y-86807040D02*
X103116380Y-94604840D01*
X103116380Y-94604840D02*
X100716080Y-95905320D01*
X100716080Y-95905320D02*
X95117920Y-95905320D01*
X95117920Y-95905320D02*
X92717620Y-94604840D01*
X92717620Y-94604840D02*
X92717620Y-86807040D01*
D16*
X105333800Y-136067800D02*
X96342200Y-136067800D01*
X105841800Y-135559800D02*
X105841800Y-126568200D01*
X96342200Y-126060200D02*
X105333800Y-126060200D01*
X95834200Y-135559800D02*
X95834200Y-126568200D01*
X97231200Y-135051800D02*
G75*
G03X97231200Y-135051800I-381000J0D01*
G01*
X96342200Y-136067800D02*
X95834200Y-135559800D01*
X105841800Y-135559800D02*
X105333800Y-136067800D01*
X105333800Y-126060200D02*
X105841800Y-126568200D01*
X95834200Y-126568200D02*
X96342200Y-126060200D01*
X94457520Y-118823740D02*
X109456220Y-118823740D01*
X109456220Y-112824260D02*
X94457520Y-112824260D01*
X109456220Y-112824260D02*
X109456220Y-118823740D01*
X94457520Y-118823740D02*
X94457520Y-112824260D01*
X95379738Y-118181120D02*
G75*
G03X95379738Y-118181120I-406598J0D01*
G01*
D13*
X116286000Y-142000000D02*
G75*
G03X116286000Y-142000000I-2286000J0D01*
G01*
X83786000Y-142000000D02*
G75*
G03X83786000Y-142000000I-2286000J0D01*
G01*
D16*
X96520000Y-99568000D02*
X96520000Y-101854000D01*
X96520000Y-101854000D02*
X98171000Y-101854000D01*
X99949000Y-99568000D02*
X101600000Y-99568000D01*
X101600000Y-99568000D02*
X101600000Y-101854000D01*
X101600000Y-101854000D02*
X99949000Y-101854000D01*
X98171000Y-99568000D02*
X96520000Y-99568000D01*
X96520000Y-97028000D02*
X96520000Y-99314000D01*
X96520000Y-99314000D02*
X98171000Y-99314000D01*
X99949000Y-97028000D02*
X101600000Y-97028000D01*
X101600000Y-97028000D02*
X101600000Y-99314000D01*
X101600000Y-99314000D02*
X99949000Y-99314000D01*
X98171000Y-97028000D02*
X96520000Y-97028000D01*
X109855000Y-118237000D02*
X112141000Y-118237000D01*
X112141000Y-118237000D02*
X112141000Y-116586000D01*
X109855000Y-114808000D02*
X109855000Y-113157000D01*
X109855000Y-113157000D02*
X112141000Y-113157000D01*
X112141000Y-113157000D02*
X112141000Y-114808000D01*
X109855000Y-116586000D02*
X109855000Y-118237000D01*
X114561620Y-102171500D02*
X113855500Y-102171500D01*
X113855500Y-102171500D02*
X113855500Y-103568500D01*
X113855500Y-103568500D02*
X114561620Y-103568500D01*
X116268500Y-102171500D02*
X115562380Y-102171500D01*
X116268500Y-102171500D02*
X116268500Y-103568500D01*
X116268500Y-103568500D02*
X115562380Y-103568500D01*
X111061500Y-129532380D02*
X111061500Y-130238500D01*
X111061500Y-130238500D02*
X112458500Y-130238500D01*
X112458500Y-130238500D02*
X112458500Y-129532380D01*
X111061500Y-127825500D02*
X111061500Y-128531620D01*
X111061500Y-127825500D02*
X112458500Y-127825500D01*
X112458500Y-127825500D02*
X112458500Y-128531620D01*
X86621620Y-119697500D02*
X85915500Y-119697500D01*
X85915500Y-119697500D02*
X85915500Y-121094500D01*
X85915500Y-121094500D02*
X86621620Y-121094500D01*
X88328500Y-119697500D02*
X87622380Y-119697500D01*
X88328500Y-119697500D02*
X88328500Y-121094500D01*
X88328500Y-121094500D02*
X87622380Y-121094500D01*
X89161620Y-119697500D02*
X88455500Y-119697500D01*
X88455500Y-119697500D02*
X88455500Y-121094500D01*
X88455500Y-121094500D02*
X89161620Y-121094500D01*
X90868500Y-119697500D02*
X90162380Y-119697500D01*
X90868500Y-119697500D02*
X90868500Y-121094500D01*
X90868500Y-121094500D02*
X90162380Y-121094500D01*
X94495620Y-122999500D02*
X93789500Y-122999500D01*
X93789500Y-122999500D02*
X93789500Y-124396500D01*
X93789500Y-124396500D02*
X94495620Y-124396500D01*
X96202500Y-122999500D02*
X95496380Y-122999500D01*
X96202500Y-122999500D02*
X96202500Y-124396500D01*
X96202500Y-124396500D02*
X95496380Y-124396500D01*
X97726500Y-122181620D02*
X97726500Y-121475500D01*
X97726500Y-121475500D02*
X96329500Y-121475500D01*
X96329500Y-121475500D02*
X96329500Y-122181620D01*
X97726500Y-123888500D02*
X97726500Y-123182380D01*
X97726500Y-123888500D02*
X96329500Y-123888500D01*
X96329500Y-123888500D02*
X96329500Y-123182380D01*
X92590620Y-109537500D02*
X91884500Y-109537500D01*
X91884500Y-109537500D02*
X91884500Y-110934500D01*
X91884500Y-110934500D02*
X92590620Y-110934500D01*
X94297500Y-109537500D02*
X93591380Y-109537500D01*
X94297500Y-109537500D02*
X94297500Y-110934500D01*
X94297500Y-110934500D02*
X93591380Y-110934500D01*
X114109500Y-78478380D02*
X114109500Y-79184500D01*
X114109500Y-79184500D02*
X115506500Y-79184500D01*
X115506500Y-79184500D02*
X115506500Y-78478380D01*
X114109500Y-76771500D02*
X114109500Y-77477620D01*
X114109500Y-76771500D02*
X115506500Y-76771500D01*
X115506500Y-76771500D02*
X115506500Y-77477620D01*
X105092500Y-83573620D02*
X105092500Y-82867500D01*
X105092500Y-82867500D02*
X103695500Y-82867500D01*
X103695500Y-82867500D02*
X103695500Y-83573620D01*
X105092500Y-85280500D02*
X105092500Y-84574380D01*
X105092500Y-85280500D02*
X103695500Y-85280500D01*
X103695500Y-85280500D02*
X103695500Y-84574380D01*
X92138500Y-82430620D02*
X92138500Y-81724500D01*
X92138500Y-81724500D02*
X90741500Y-81724500D01*
X90741500Y-81724500D02*
X90741500Y-82430620D01*
X92138500Y-84137500D02*
X92138500Y-83431380D01*
X92138500Y-84137500D02*
X90741500Y-84137500D01*
X90741500Y-84137500D02*
X90741500Y-83431380D01*
X107505500Y-106179620D02*
X107505500Y-105473500D01*
X107505500Y-105473500D02*
X106108500Y-105473500D01*
X106108500Y-105473500D02*
X106108500Y-106179620D01*
X107505500Y-107886500D02*
X107505500Y-107180380D01*
X107505500Y-107886500D02*
X106108500Y-107886500D01*
X106108500Y-107886500D02*
X106108500Y-107180380D01*
X109029500Y-106179620D02*
X109029500Y-105473500D01*
X109029500Y-105473500D02*
X107632500Y-105473500D01*
X107632500Y-105473500D02*
X107632500Y-106179620D01*
X109029500Y-107886500D02*
X109029500Y-107180380D01*
X109029500Y-107886500D02*
X107632500Y-107886500D01*
X107632500Y-107886500D02*
X107632500Y-107180380D01*
X110553500Y-106179620D02*
X110553500Y-105473500D01*
X110553500Y-105473500D02*
X109156500Y-105473500D01*
X109156500Y-105473500D02*
X109156500Y-106179620D01*
X110553500Y-107886500D02*
X110553500Y-107180380D01*
X110553500Y-107886500D02*
X109156500Y-107886500D01*
X109156500Y-107886500D02*
X109156500Y-107180380D01*
X112077500Y-106179620D02*
X112077500Y-105473500D01*
X112077500Y-105473500D02*
X110680500Y-105473500D01*
X110680500Y-105473500D02*
X110680500Y-106179620D01*
X112077500Y-107886500D02*
X112077500Y-107180380D01*
X112077500Y-107886500D02*
X110680500Y-107886500D01*
X110680500Y-107886500D02*
X110680500Y-107180380D01*
X88892380Y-126682500D02*
X89598500Y-126682500D01*
X89598500Y-126682500D02*
X89598500Y-125285500D01*
X89598500Y-125285500D02*
X88892380Y-125285500D01*
X87185500Y-126682500D02*
X87891620Y-126682500D01*
X87185500Y-126682500D02*
X87185500Y-125285500D01*
X87185500Y-125285500D02*
X87891620Y-125285500D01*
X88900380Y-128333500D02*
X89606500Y-128333500D01*
X89606500Y-128333500D02*
X89606500Y-126936500D01*
X89606500Y-126936500D02*
X88900380Y-126936500D01*
X87193500Y-128333500D02*
X87899620Y-128333500D01*
X87193500Y-128333500D02*
X87193500Y-126936500D01*
X87193500Y-126936500D02*
X87899620Y-126936500D01*
X86500380Y-123198500D02*
X87206500Y-123198500D01*
X87206500Y-123198500D02*
X87206500Y-121801500D01*
X87206500Y-121801500D02*
X86500380Y-121801500D01*
X84793500Y-123198500D02*
X85499620Y-123198500D01*
X84793500Y-123198500D02*
X84793500Y-121801500D01*
X84793500Y-121801500D02*
X85499620Y-121801500D01*
X90578000Y-133717000D02*
X90705000Y-133717000D01*
X90705000Y-133717000D02*
X90705000Y-128383000D01*
X86895000Y-128383000D02*
X86895000Y-133717000D01*
X86895000Y-133717000D02*
X90578000Y-133717000D01*
X88292000Y-133717000D02*
X88292000Y-133209000D01*
X88292000Y-133209000D02*
X89308000Y-133209000D01*
X89308000Y-133209000D02*
X89308000Y-133717000D01*
X86895000Y-128383000D02*
X90705000Y-128383000D01*
D13*
X112600740Y-120015000D02*
X112600740Y-104013000D01*
X116601240Y-104513380D02*
X116601240Y-119514620D01*
X117099080Y-120015000D02*
X117099080Y-104013000D01*
X116601240Y-107116880D02*
X116100860Y-107116880D01*
X116100860Y-107116880D02*
X116100860Y-106918760D01*
X116100860Y-106918760D02*
X116601240Y-106918760D01*
X116601240Y-111117380D02*
X116100860Y-111117380D01*
X116100860Y-111117380D02*
X116100860Y-110919260D01*
X116100860Y-110919260D02*
X116601240Y-110919260D01*
X116100860Y-108917740D02*
X116601240Y-108917740D01*
X116100860Y-109115860D02*
X116100860Y-108917740D01*
X116601240Y-109115860D02*
X116100860Y-109115860D01*
X116100860Y-114917220D02*
X116601240Y-114917220D01*
X116100860Y-115115340D02*
X116100860Y-114917220D01*
X116601240Y-115115340D02*
X116100860Y-115115340D01*
X116100860Y-116918740D02*
X116601240Y-116918740D01*
X116100860Y-117116860D02*
X116100860Y-116918740D01*
X116601240Y-117116860D02*
X116100860Y-117116860D01*
X116601240Y-113116360D02*
X116100860Y-113116360D01*
X116100860Y-113116360D02*
X116100860Y-112918240D01*
X116100860Y-112918240D02*
X116601240Y-112918240D01*
X113799620Y-104015540D02*
X113799620Y-104515920D01*
X115100100Y-104515920D02*
X115100100Y-104015540D01*
X115100100Y-119517160D02*
X115100100Y-120017540D01*
X113799620Y-119517160D02*
X113799620Y-120017540D01*
X112600740Y-117518180D02*
X113101120Y-117518180D01*
X113101120Y-117518180D02*
X113101120Y-119517160D01*
X113101120Y-119517160D02*
X116601240Y-119517160D01*
X116601240Y-104515920D02*
X113101120Y-104515920D01*
X113101120Y-104515920D02*
X113101120Y-106514900D01*
X113101120Y-106514900D02*
X112600740Y-106514900D01*
X112600740Y-120017540D02*
X117099080Y-120017540D01*
X112600740Y-104015540D02*
X117099080Y-104015540D01*
X112600740Y-118318280D02*
X112400080Y-118318280D01*
X112400080Y-118318280D02*
X112400080Y-118618000D01*
X112400080Y-118618000D02*
X112600740Y-118618000D01*
D17*
X92349760Y-131450380D02*
X92349760Y-132148880D01*
X92349760Y-130449620D02*
X92349760Y-129751120D01*
X93650240Y-131450380D02*
X93650240Y-132148880D01*
X93650240Y-129751120D02*
X93650240Y-130449620D01*
X93635000Y-132148880D02*
X92365000Y-132148880D01*
X92365000Y-129751120D02*
X93635000Y-129751120D01*
X111109760Y-126992380D02*
X111109760Y-127690880D01*
X111109760Y-125991620D02*
X111109760Y-125293120D01*
X112410240Y-126992380D02*
X112410240Y-127690880D01*
X112410240Y-125293120D02*
X112410240Y-125991620D01*
X112395000Y-127690880D02*
X111125000Y-127690880D01*
X111125000Y-125293120D02*
X112395000Y-125293120D01*
X110990380Y-109362240D02*
X111688880Y-109362240D01*
X109989620Y-109362240D02*
X109291120Y-109362240D01*
X110990380Y-108061760D02*
X111688880Y-108061760D01*
X109291120Y-108061760D02*
X109989620Y-108061760D01*
X111688880Y-108077000D02*
X111688880Y-109347000D01*
X109291120Y-109347000D02*
X109291120Y-108077000D01*
X95877380Y-137810240D02*
X96575880Y-137810240D01*
X94876620Y-137810240D02*
X94178120Y-137810240D01*
X95877380Y-136509760D02*
X96575880Y-136509760D01*
X94178120Y-136509760D02*
X94876620Y-136509760D01*
X96575880Y-136525000D02*
X96575880Y-137795000D01*
X94178120Y-137795000D02*
X94178120Y-136525000D01*
X108196380Y-109362240D02*
X108894880Y-109362240D01*
X107195620Y-109362240D02*
X106497120Y-109362240D01*
X108196380Y-108061760D02*
X108894880Y-108061760D01*
X106497120Y-108061760D02*
X107195620Y-108061760D01*
X108894880Y-108077000D02*
X108894880Y-109347000D01*
X106497120Y-109347000D02*
X106497120Y-108077000D01*
X103639620Y-107426760D02*
X102941120Y-107426760D01*
X104640380Y-107426760D02*
X105338880Y-107426760D01*
X103639620Y-108727240D02*
X102941120Y-108727240D01*
X105338880Y-108727240D02*
X104640380Y-108727240D01*
X102941120Y-108712000D02*
X102941120Y-107442000D01*
X105338880Y-107442000D02*
X105338880Y-108712000D01*
X101226620Y-104759760D02*
X100528120Y-104759760D01*
X102227380Y-104759760D02*
X102925880Y-104759760D01*
X101226620Y-106060240D02*
X100528120Y-106060240D01*
X102925880Y-106060240D02*
X102227380Y-106060240D01*
X100528120Y-106045000D02*
X100528120Y-104775000D01*
X102925880Y-104775000D02*
X102925880Y-106045000D01*
X98940620Y-108061760D02*
X98242120Y-108061760D01*
X99941380Y-108061760D02*
X100639880Y-108061760D01*
X98940620Y-109362240D02*
X98242120Y-109362240D01*
X100639880Y-109362240D02*
X99941380Y-109362240D01*
X98242120Y-109347000D02*
X98242120Y-108077000D01*
X100639880Y-108077000D02*
X100639880Y-109347000D01*
X95892620Y-108823760D02*
X95194120Y-108823760D01*
X96893380Y-108823760D02*
X97591880Y-108823760D01*
X95892620Y-110124240D02*
X95194120Y-110124240D01*
X97591880Y-110124240D02*
X96893380Y-110124240D01*
X95194120Y-110109000D02*
X95194120Y-108839000D01*
X97591880Y-108839000D02*
X97591880Y-110109000D01*
X109100620Y-121269760D02*
X108402120Y-121269760D01*
X110101380Y-121269760D02*
X110799880Y-121269760D01*
X109100620Y-122570240D02*
X108402120Y-122570240D01*
X110799880Y-122570240D02*
X110101380Y-122570240D01*
X108402120Y-122555000D02*
X108402120Y-121285000D01*
X110799880Y-121285000D02*
X110799880Y-122555000D01*
X102989380Y-123332240D02*
X103687880Y-123332240D01*
X101988620Y-123332240D02*
X101290120Y-123332240D01*
X102989380Y-122031760D02*
X103687880Y-122031760D01*
X101290120Y-122031760D02*
X101988620Y-122031760D01*
X103687880Y-122047000D02*
X103687880Y-123317000D01*
X101290120Y-123317000D02*
X101290120Y-122047000D01*
X92313760Y-123436380D02*
X92313760Y-124134880D01*
X92313760Y-122435620D02*
X92313760Y-121737120D01*
X93614240Y-123436380D02*
X93614240Y-124134880D01*
X93614240Y-121737120D02*
X93614240Y-122435620D01*
X93599000Y-124134880D02*
X92329000Y-124134880D01*
X92329000Y-121737120D02*
X93599000Y-121737120D01*
X95496380Y-122824240D02*
X96194880Y-122824240D01*
X94495620Y-122824240D02*
X93797120Y-122824240D01*
X95496380Y-121523760D02*
X96194880Y-121523760D01*
X93797120Y-121523760D02*
X94495620Y-121523760D01*
X96194880Y-121539000D02*
X96194880Y-122809000D01*
X93797120Y-122809000D02*
X93797120Y-121539000D01*
X93741240Y-126753620D02*
X93741240Y-126055120D01*
X93741240Y-127754380D02*
X93741240Y-128452880D01*
X92440760Y-126753620D02*
X92440760Y-126055120D01*
X92440760Y-128452880D02*
X92440760Y-127754380D01*
X92456000Y-126055120D02*
X93726000Y-126055120D01*
X93726000Y-128452880D02*
X92456000Y-128452880D01*
X99202240Y-122181620D02*
X99202240Y-121483120D01*
X99202240Y-123182380D02*
X99202240Y-123880880D01*
X97901760Y-122181620D02*
X97901760Y-121483120D01*
X97901760Y-123880880D02*
X97901760Y-123182380D01*
X97917000Y-121483120D02*
X99187000Y-121483120D01*
X99187000Y-123880880D02*
X97917000Y-123880880D01*
X111938611Y-132693967D02*
X112432525Y-132200053D01*
X111230967Y-133401611D02*
X110737053Y-133895525D01*
X111019033Y-131774389D02*
X111512947Y-131280475D01*
X109817475Y-132975947D02*
X110311389Y-132482033D01*
X111523723Y-131291251D02*
X112421749Y-132189277D01*
X110726277Y-133884749D02*
X109828251Y-132986723D01*
X107680760Y-126611380D02*
X107680760Y-127309880D01*
X107680760Y-125610620D02*
X107680760Y-124912120D01*
X108981240Y-126611380D02*
X108981240Y-127309880D01*
X108981240Y-124912120D02*
X108981240Y-125610620D01*
X108966000Y-127309880D02*
X107696000Y-127309880D01*
X107696000Y-124912120D02*
X108966000Y-124912120D01*
D10*
X79454476Y-122451880D02*
X80121142Y-123451880D01*
X80121142Y-122451880D02*
X79454476Y-123451880D01*
X81025904Y-123451880D02*
X80454476Y-123451880D01*
X80740190Y-123451880D02*
X80740190Y-122451880D01*
X80644952Y-122594738D01*
X80549714Y-122689976D01*
X80454476Y-122737595D01*
X79398904Y-134056380D02*
X79398904Y-133056380D01*
X79779857Y-133056380D01*
X79875095Y-133104000D01*
X79922714Y-133151619D01*
X79970333Y-133246857D01*
X79970333Y-133389714D01*
X79922714Y-133484952D01*
X79875095Y-133532571D01*
X79779857Y-133580190D01*
X79398904Y-133580190D01*
X80922714Y-134056380D02*
X80351285Y-134056380D01*
X80637000Y-134056380D02*
X80637000Y-133056380D01*
X80541761Y-133199238D01*
X80446523Y-133294476D01*
X80351285Y-133342095D01*
D11*
X116752380Y-135938095D02*
X115752380Y-135938095D01*
X115752380Y-135557142D01*
X115800000Y-135461904D01*
X115847619Y-135414285D01*
X115942857Y-135366666D01*
X116085714Y-135366666D01*
X116180952Y-135414285D01*
X116228571Y-135461904D01*
X116276190Y-135557142D01*
X116276190Y-135938095D01*
X115847619Y-134985714D02*
X115800000Y-134938095D01*
X115752380Y-134842857D01*
X115752380Y-134604761D01*
X115800000Y-134509523D01*
X115847619Y-134461904D01*
X115942857Y-134414285D01*
X116038095Y-134414285D01*
X116180952Y-134461904D01*
X116752380Y-135033333D01*
X116752380Y-134414285D01*
D18*
X106798333Y-138619666D02*
X106798333Y-137919666D01*
X107198333Y-138619666D02*
X106898333Y-138219666D01*
X107198333Y-137919666D02*
X106798333Y-138319666D01*
X107865000Y-138619666D02*
X107465000Y-138619666D01*
X107665000Y-138619666D02*
X107665000Y-137919666D01*
X107598333Y-138019666D01*
X107531666Y-138086333D01*
X107465000Y-138119666D01*
D17*
X89939767Y-96698707D02*
X89915939Y-96722534D01*
X89844456Y-96746362D01*
X89796801Y-96746362D01*
X89725318Y-96722534D01*
X89677663Y-96674879D01*
X89653835Y-96627224D01*
X89630008Y-96531913D01*
X89630008Y-96460430D01*
X89653835Y-96365120D01*
X89677663Y-96317465D01*
X89725318Y-96269810D01*
X89796801Y-96245982D01*
X89844456Y-96245982D01*
X89915939Y-96269810D01*
X89939767Y-96293637D01*
X90106560Y-96245982D02*
X90416319Y-96245982D01*
X90249526Y-96436603D01*
X90321009Y-96436603D01*
X90368664Y-96460430D01*
X90392491Y-96484258D01*
X90416319Y-96531913D01*
X90416319Y-96651051D01*
X90392491Y-96698707D01*
X90368664Y-96722534D01*
X90321009Y-96746362D01*
X90178043Y-96746362D01*
X90130388Y-96722534D01*
X90106560Y-96698707D01*
X90583112Y-96245982D02*
X90916699Y-96245982D01*
X90702250Y-96746362D01*
D19*
X86246000Y-110789428D02*
X85520285Y-110789428D01*
X85520285Y-109265428D01*
X87552285Y-110789428D02*
X86681428Y-110789428D01*
X87116857Y-110789428D02*
X87116857Y-109265428D01*
X86971714Y-109483142D01*
X86826571Y-109628285D01*
X86681428Y-109700857D01*
X79456642Y-76762428D02*
X79456642Y-75238428D01*
X80037214Y-75238428D01*
X80182357Y-75311000D01*
X80254928Y-75383571D01*
X80327500Y-75528714D01*
X80327500Y-75746428D01*
X80254928Y-75891571D01*
X80182357Y-75964142D01*
X80037214Y-76036714D01*
X79456642Y-76036714D01*
X81633785Y-75238428D02*
X81343500Y-75238428D01*
X81198357Y-75311000D01*
X81125785Y-75383571D01*
X80980642Y-75601285D01*
X80908071Y-75891571D01*
X80908071Y-76472142D01*
X80980642Y-76617285D01*
X81053214Y-76689857D01*
X81198357Y-76762428D01*
X81488642Y-76762428D01*
X81633785Y-76689857D01*
X81706357Y-76617285D01*
X81778928Y-76472142D01*
X81778928Y-76109285D01*
X81706357Y-75964142D01*
X81633785Y-75891571D01*
X81488642Y-75819000D01*
X81198357Y-75819000D01*
X81053214Y-75891571D01*
X80980642Y-75964142D01*
X80908071Y-76109285D01*
D10*
X93757142Y-75029428D02*
X93757142Y-74429428D01*
X93985714Y-74429428D01*
X94042857Y-74458000D01*
X94071428Y-74486571D01*
X94100000Y-74543714D01*
X94100000Y-74629428D01*
X94071428Y-74686571D01*
X94042857Y-74715142D01*
X93985714Y-74743714D01*
X93757142Y-74743714D01*
X94300000Y-74429428D02*
X94700000Y-74429428D01*
X94442857Y-75029428D01*
D19*
X112984642Y-76381428D02*
X112984642Y-74857428D01*
X113565214Y-74857428D01*
X113710357Y-74930000D01*
X113782928Y-75002571D01*
X113855500Y-75147714D01*
X113855500Y-75365428D01*
X113782928Y-75510571D01*
X113710357Y-75583142D01*
X113565214Y-75655714D01*
X112984642Y-75655714D01*
X114581214Y-76381428D02*
X114871500Y-76381428D01*
X115016642Y-76308857D01*
X115089214Y-76236285D01*
X115234357Y-76018571D01*
X115306928Y-75728285D01*
X115306928Y-75147714D01*
X115234357Y-75002571D01*
X115161785Y-74930000D01*
X115016642Y-74857428D01*
X114726357Y-74857428D01*
X114581214Y-74930000D01*
X114508642Y-75002571D01*
X114436071Y-75147714D01*
X114436071Y-75510571D01*
X114508642Y-75655714D01*
X114581214Y-75728285D01*
X114726357Y-75800857D01*
X115016642Y-75800857D01*
X115161785Y-75728285D01*
X115234357Y-75655714D01*
X115306928Y-75510571D01*
D20*
X105220104Y-136749669D02*
X105220104Y-137356245D01*
X105255785Y-137427607D01*
X105291466Y-137463288D01*
X105362828Y-137498969D01*
X105505552Y-137498969D01*
X105576914Y-137463288D01*
X105612595Y-137427607D01*
X105648276Y-137356245D01*
X105648276Y-136749669D01*
X106397576Y-137498969D02*
X105969404Y-137498969D01*
X106183490Y-137498969D02*
X106183490Y-136749669D01*
X106112128Y-136856711D01*
X106040766Y-136928073D01*
X105969404Y-136963754D01*
X101283104Y-116683669D02*
X101283104Y-117290245D01*
X101318785Y-117361607D01*
X101354466Y-117397288D01*
X101425828Y-117432969D01*
X101568552Y-117432969D01*
X101639914Y-117397288D01*
X101675595Y-117361607D01*
X101711276Y-117290245D01*
X101711276Y-116683669D01*
X101996723Y-116683669D02*
X102460576Y-116683669D01*
X102210809Y-116969116D01*
X102317852Y-116969116D01*
X102389214Y-117004797D01*
X102424895Y-117040478D01*
X102460576Y-117111840D01*
X102460576Y-117290245D01*
X102424895Y-117361607D01*
X102389214Y-117397288D01*
X102317852Y-117432969D01*
X102103766Y-117432969D01*
X102032404Y-117397288D01*
X101996723Y-117361607D01*
D16*
X98806000Y-102634142D02*
X98769714Y-102670428D01*
X98660857Y-102706714D01*
X98588285Y-102706714D01*
X98479428Y-102670428D01*
X98406857Y-102597857D01*
X98370571Y-102525285D01*
X98334285Y-102380142D01*
X98334285Y-102271285D01*
X98370571Y-102126142D01*
X98406857Y-102053571D01*
X98479428Y-101981000D01*
X98588285Y-101944714D01*
X98660857Y-101944714D01*
X98769714Y-101981000D01*
X98806000Y-102017285D01*
X99531714Y-102706714D02*
X99096285Y-102706714D01*
X99314000Y-102706714D02*
X99314000Y-101944714D01*
X99241428Y-102053571D01*
X99168857Y-102126142D01*
X99096285Y-102162428D01*
X102489000Y-98062142D02*
X102452714Y-98098428D01*
X102343857Y-98134714D01*
X102271285Y-98134714D01*
X102162428Y-98098428D01*
X102089857Y-98025857D01*
X102053571Y-97953285D01*
X102017285Y-97808142D01*
X102017285Y-97699285D01*
X102053571Y-97554142D01*
X102089857Y-97481571D01*
X102162428Y-97409000D01*
X102271285Y-97372714D01*
X102343857Y-97372714D01*
X102452714Y-97409000D01*
X102489000Y-97445285D01*
X102924428Y-97699285D02*
X102851857Y-97663000D01*
X102815571Y-97626714D01*
X102779285Y-97554142D01*
X102779285Y-97517857D01*
X102815571Y-97445285D01*
X102851857Y-97409000D01*
X102924428Y-97372714D01*
X103069571Y-97372714D01*
X103142142Y-97409000D01*
X103178428Y-97445285D01*
X103214714Y-97517857D01*
X103214714Y-97554142D01*
X103178428Y-97626714D01*
X103142142Y-97663000D01*
X103069571Y-97699285D01*
X102924428Y-97699285D01*
X102851857Y-97735571D01*
X102815571Y-97771857D01*
X102779285Y-97844428D01*
X102779285Y-97989571D01*
X102815571Y-98062142D01*
X102851857Y-98098428D01*
X102924428Y-98134714D01*
X103069571Y-98134714D01*
X103142142Y-98098428D01*
X103178428Y-98062142D01*
X103214714Y-97989571D01*
X103214714Y-97844428D01*
X103178428Y-97771857D01*
X103142142Y-97735571D01*
X103069571Y-97699285D01*
X112159142Y-119996857D02*
X112195428Y-120033142D01*
X112231714Y-120142000D01*
X112231714Y-120214571D01*
X112195428Y-120323428D01*
X112122857Y-120396000D01*
X112050285Y-120432285D01*
X111905142Y-120468571D01*
X111796285Y-120468571D01*
X111651142Y-120432285D01*
X111578571Y-120396000D01*
X111506000Y-120323428D01*
X111469714Y-120214571D01*
X111469714Y-120142000D01*
X111506000Y-120033142D01*
X111542285Y-119996857D01*
X111469714Y-119742857D02*
X111469714Y-119271142D01*
X111760000Y-119525142D01*
X111760000Y-119416285D01*
X111796285Y-119343714D01*
X111832571Y-119307428D01*
X111905142Y-119271142D01*
X112086571Y-119271142D01*
X112159142Y-119307428D01*
X112195428Y-119343714D01*
X112231714Y-119416285D01*
X112231714Y-119634000D01*
X112195428Y-119706571D01*
X112159142Y-119742857D01*
X112231714Y-118908285D02*
X112231714Y-118763142D01*
X112195428Y-118690571D01*
X112159142Y-118654285D01*
X112050285Y-118581714D01*
X111905142Y-118545428D01*
X111614857Y-118545428D01*
X111542285Y-118581714D01*
X111506000Y-118618000D01*
X111469714Y-118690571D01*
X111469714Y-118835714D01*
X111506000Y-118908285D01*
X111542285Y-118944571D01*
X111614857Y-118980857D01*
X111796285Y-118980857D01*
X111868857Y-118944571D01*
X111905142Y-118908285D01*
X111941428Y-118835714D01*
X111941428Y-118690571D01*
X111905142Y-118618000D01*
X111868857Y-118581714D01*
X111796285Y-118545428D01*
D21*
X113510362Y-102819200D02*
X113272086Y-102971600D01*
X113510362Y-103080457D02*
X113009982Y-103080457D01*
X113009982Y-102906285D01*
X113033810Y-102862742D01*
X113057637Y-102840971D01*
X113105292Y-102819200D01*
X113176775Y-102819200D01*
X113224430Y-102840971D01*
X113248258Y-102862742D01*
X113272086Y-102906285D01*
X113272086Y-103080457D01*
X113510362Y-102383771D02*
X113510362Y-102645028D01*
X113510362Y-102514400D02*
X113009982Y-102514400D01*
X113081465Y-102557942D01*
X113129120Y-102601485D01*
X113152948Y-102645028D01*
X111683800Y-131036362D02*
X111531400Y-130798086D01*
X111422542Y-131036362D02*
X111422542Y-130535982D01*
X111596714Y-130535982D01*
X111640257Y-130559810D01*
X111662028Y-130583637D01*
X111683800Y-130631292D01*
X111683800Y-130702775D01*
X111662028Y-130750430D01*
X111640257Y-130774258D01*
X111596714Y-130798086D01*
X111422542Y-130798086D01*
X111857971Y-130583637D02*
X111879742Y-130559810D01*
X111923285Y-130535982D01*
X112032142Y-130535982D01*
X112075685Y-130559810D01*
X112097457Y-130583637D01*
X112119228Y-130631292D01*
X112119228Y-130678948D01*
X112097457Y-130750430D01*
X111836200Y-131036362D01*
X112119228Y-131036362D01*
X88983362Y-120713914D02*
X88745086Y-120866314D01*
X88983362Y-120975171D02*
X88482982Y-120975171D01*
X88482982Y-120801000D01*
X88506810Y-120757457D01*
X88530637Y-120735685D01*
X88578292Y-120713914D01*
X88649775Y-120713914D01*
X88697430Y-120735685D01*
X88721258Y-120757457D01*
X88745086Y-120801000D01*
X88745086Y-120975171D01*
X88983362Y-120278485D02*
X88983362Y-120539742D01*
X88983362Y-120409114D02*
X88482982Y-120409114D01*
X88554465Y-120452657D01*
X88602120Y-120496200D01*
X88625948Y-120539742D01*
X88482982Y-120126085D02*
X88482982Y-119821285D01*
X88983362Y-120017228D01*
X91523362Y-120713914D02*
X91285086Y-120866314D01*
X91523362Y-120975171D02*
X91022982Y-120975171D01*
X91022982Y-120801000D01*
X91046810Y-120757457D01*
X91070637Y-120735685D01*
X91118292Y-120713914D01*
X91189775Y-120713914D01*
X91237430Y-120735685D01*
X91261258Y-120757457D01*
X91285086Y-120801000D01*
X91285086Y-120975171D01*
X91523362Y-120278485D02*
X91523362Y-120539742D01*
X91523362Y-120409114D02*
X91022982Y-120409114D01*
X91094465Y-120452657D01*
X91142120Y-120496200D01*
X91165948Y-120539742D01*
X91237430Y-120017228D02*
X91213603Y-120060771D01*
X91189775Y-120082542D01*
X91142120Y-120104314D01*
X91118292Y-120104314D01*
X91070637Y-120082542D01*
X91046810Y-120060771D01*
X91022982Y-120017228D01*
X91022982Y-119930142D01*
X91046810Y-119886600D01*
X91070637Y-119864828D01*
X91118292Y-119843057D01*
X91142120Y-119843057D01*
X91189775Y-119864828D01*
X91213603Y-119886600D01*
X91237430Y-119930142D01*
X91237430Y-120017228D01*
X91261258Y-120060771D01*
X91285086Y-120082542D01*
X91332741Y-120104314D01*
X91428051Y-120104314D01*
X91475707Y-120082542D01*
X91499534Y-120060771D01*
X91523362Y-120017228D01*
X91523362Y-119930142D01*
X91499534Y-119886600D01*
X91475707Y-119864828D01*
X91428051Y-119843057D01*
X91332741Y-119843057D01*
X91285086Y-119864828D01*
X91261258Y-119886600D01*
X91237430Y-119930142D01*
X94321085Y-125194362D02*
X94168685Y-124956086D01*
X94059828Y-125194362D02*
X94059828Y-124693982D01*
X94234000Y-124693982D01*
X94277542Y-124717810D01*
X94299314Y-124741637D01*
X94321085Y-124789292D01*
X94321085Y-124860775D01*
X94299314Y-124908430D01*
X94277542Y-124932258D01*
X94234000Y-124956086D01*
X94059828Y-124956086D01*
X94756514Y-125194362D02*
X94495257Y-125194362D01*
X94625885Y-125194362D02*
X94625885Y-124693982D01*
X94582342Y-124765465D01*
X94538800Y-124813120D01*
X94495257Y-124836948D01*
X94974228Y-125194362D02*
X95061314Y-125194362D01*
X95104857Y-125170534D01*
X95126628Y-125146707D01*
X95170171Y-125075224D01*
X95191942Y-124979913D01*
X95191942Y-124789292D01*
X95170171Y-124741637D01*
X95148400Y-124717810D01*
X95104857Y-124693982D01*
X95017771Y-124693982D01*
X94974228Y-124717810D01*
X94952457Y-124741637D01*
X94930685Y-124789292D01*
X94930685Y-124908430D01*
X94952457Y-124956086D01*
X94974228Y-124979913D01*
X95017771Y-125003741D01*
X95104857Y-125003741D01*
X95148400Y-124979913D01*
X95170171Y-124956086D01*
X95191942Y-124908430D01*
X96607085Y-121257362D02*
X96454685Y-121019086D01*
X96345828Y-121257362D02*
X96345828Y-120756982D01*
X96520000Y-120756982D01*
X96563542Y-120780810D01*
X96585314Y-120804637D01*
X96607085Y-120852292D01*
X96607085Y-120923775D01*
X96585314Y-120971430D01*
X96563542Y-120995258D01*
X96520000Y-121019086D01*
X96345828Y-121019086D01*
X96781257Y-120804637D02*
X96803028Y-120780810D01*
X96846571Y-120756982D01*
X96955428Y-120756982D01*
X96998971Y-120780810D01*
X97020742Y-120804637D01*
X97042514Y-120852292D01*
X97042514Y-120899948D01*
X97020742Y-120971430D01*
X96759485Y-121257362D01*
X97042514Y-121257362D01*
X97325542Y-120756982D02*
X97369085Y-120756982D01*
X97412628Y-120780810D01*
X97434400Y-120804637D01*
X97456171Y-120852292D01*
X97477942Y-120947603D01*
X97477942Y-121066741D01*
X97456171Y-121162051D01*
X97434400Y-121209707D01*
X97412628Y-121233534D01*
X97369085Y-121257362D01*
X97325542Y-121257362D01*
X97282000Y-121233534D01*
X97260228Y-121209707D01*
X97238457Y-121162051D01*
X97216685Y-121066741D01*
X97216685Y-120947603D01*
X97238457Y-120852292D01*
X97260228Y-120804637D01*
X97282000Y-120780810D01*
X97325542Y-120756982D01*
X93813085Y-111732362D02*
X93660685Y-111494086D01*
X93551828Y-111732362D02*
X93551828Y-111231982D01*
X93726000Y-111231982D01*
X93769542Y-111255810D01*
X93791314Y-111279637D01*
X93813085Y-111327292D01*
X93813085Y-111398775D01*
X93791314Y-111446430D01*
X93769542Y-111470258D01*
X93726000Y-111494086D01*
X93551828Y-111494086D01*
X93987257Y-111279637D02*
X94009028Y-111255810D01*
X94052571Y-111231982D01*
X94161428Y-111231982D01*
X94204971Y-111255810D01*
X94226742Y-111279637D01*
X94248514Y-111327292D01*
X94248514Y-111374948D01*
X94226742Y-111446430D01*
X93965485Y-111732362D01*
X94248514Y-111732362D01*
X94662171Y-111231982D02*
X94444457Y-111231982D01*
X94422685Y-111470258D01*
X94444457Y-111446430D01*
X94488000Y-111422603D01*
X94596857Y-111422603D01*
X94640400Y-111446430D01*
X94662171Y-111470258D01*
X94683942Y-111517913D01*
X94683942Y-111637051D01*
X94662171Y-111684707D01*
X94640400Y-111708534D01*
X94596857Y-111732362D01*
X94488000Y-111732362D01*
X94444457Y-111708534D01*
X94422685Y-111684707D01*
X116304362Y-78144914D02*
X116066086Y-78297314D01*
X116304362Y-78406171D02*
X115803982Y-78406171D01*
X115803982Y-78232000D01*
X115827810Y-78188457D01*
X115851637Y-78166685D01*
X115899292Y-78144914D01*
X115970775Y-78144914D01*
X116018430Y-78166685D01*
X116042258Y-78188457D01*
X116066086Y-78232000D01*
X116066086Y-78406171D01*
X115851637Y-77970742D02*
X115827810Y-77948971D01*
X115803982Y-77905428D01*
X115803982Y-77796571D01*
X115827810Y-77753028D01*
X115851637Y-77731257D01*
X115899292Y-77709485D01*
X115946948Y-77709485D01*
X116018430Y-77731257D01*
X116304362Y-77992514D01*
X116304362Y-77709485D01*
X116018430Y-77448228D02*
X115994603Y-77491771D01*
X115970775Y-77513542D01*
X115923120Y-77535314D01*
X115899292Y-77535314D01*
X115851637Y-77513542D01*
X115827810Y-77491771D01*
X115803982Y-77448228D01*
X115803982Y-77361142D01*
X115827810Y-77317600D01*
X115851637Y-77295828D01*
X115899292Y-77274057D01*
X115923120Y-77274057D01*
X115970775Y-77295828D01*
X115994603Y-77317600D01*
X116018430Y-77361142D01*
X116018430Y-77448228D01*
X116042258Y-77491771D01*
X116066086Y-77513542D01*
X116113741Y-77535314D01*
X116209051Y-77535314D01*
X116256707Y-77513542D01*
X116280534Y-77491771D01*
X116304362Y-77448228D01*
X116304362Y-77361142D01*
X116280534Y-77317600D01*
X116256707Y-77295828D01*
X116209051Y-77274057D01*
X116113741Y-77274057D01*
X116066086Y-77295828D01*
X116042258Y-77317600D01*
X116018430Y-77361142D01*
X104100085Y-82522362D02*
X103947685Y-82284086D01*
X103838828Y-82522362D02*
X103838828Y-82021982D01*
X104013000Y-82021982D01*
X104056542Y-82045810D01*
X104078314Y-82069637D01*
X104100085Y-82117292D01*
X104100085Y-82188775D01*
X104078314Y-82236430D01*
X104056542Y-82260258D01*
X104013000Y-82284086D01*
X103838828Y-82284086D01*
X104252485Y-82021982D02*
X104535514Y-82021982D01*
X104383114Y-82212603D01*
X104448428Y-82212603D01*
X104491971Y-82236430D01*
X104513742Y-82260258D01*
X104535514Y-82307913D01*
X104535514Y-82427051D01*
X104513742Y-82474707D01*
X104491971Y-82498534D01*
X104448428Y-82522362D01*
X104317800Y-82522362D01*
X104274257Y-82498534D01*
X104252485Y-82474707D01*
X104927400Y-82188775D02*
X104927400Y-82522362D01*
X104818542Y-81998154D02*
X104709685Y-82355569D01*
X104992714Y-82355569D01*
X90003085Y-81252362D02*
X89850685Y-81014086D01*
X89741828Y-81252362D02*
X89741828Y-80751982D01*
X89916000Y-80751982D01*
X89959542Y-80775810D01*
X89981314Y-80799637D01*
X90003085Y-80847292D01*
X90003085Y-80918775D01*
X89981314Y-80966430D01*
X89959542Y-80990258D01*
X89916000Y-81014086D01*
X89741828Y-81014086D01*
X90394971Y-80918775D02*
X90394971Y-81252362D01*
X90286114Y-80728154D02*
X90177257Y-81085569D01*
X90460285Y-81085569D01*
X90612685Y-80799637D02*
X90634457Y-80775810D01*
X90678000Y-80751982D01*
X90786857Y-80751982D01*
X90830400Y-80775810D01*
X90852171Y-80799637D01*
X90873942Y-80847292D01*
X90873942Y-80894948D01*
X90852171Y-80966430D01*
X90590914Y-81252362D01*
X90873942Y-81252362D01*
X106513085Y-105255362D02*
X106360685Y-105017086D01*
X106251828Y-105255362D02*
X106251828Y-104754982D01*
X106426000Y-104754982D01*
X106469542Y-104778810D01*
X106491314Y-104802637D01*
X106513085Y-104850292D01*
X106513085Y-104921775D01*
X106491314Y-104969430D01*
X106469542Y-104993258D01*
X106426000Y-105017086D01*
X106251828Y-105017086D01*
X106904971Y-104921775D02*
X106904971Y-105255362D01*
X106796114Y-104731154D02*
X106687257Y-105088569D01*
X106970285Y-105088569D01*
X107209771Y-104969430D02*
X107166228Y-104945603D01*
X107144457Y-104921775D01*
X107122685Y-104874120D01*
X107122685Y-104850292D01*
X107144457Y-104802637D01*
X107166228Y-104778810D01*
X107209771Y-104754982D01*
X107296857Y-104754982D01*
X107340400Y-104778810D01*
X107362171Y-104802637D01*
X107383942Y-104850292D01*
X107383942Y-104874120D01*
X107362171Y-104921775D01*
X107340400Y-104945603D01*
X107296857Y-104969430D01*
X107209771Y-104969430D01*
X107166228Y-104993258D01*
X107144457Y-105017086D01*
X107122685Y-105064741D01*
X107122685Y-105160051D01*
X107144457Y-105207707D01*
X107166228Y-105231534D01*
X107209771Y-105255362D01*
X107296857Y-105255362D01*
X107340400Y-105231534D01*
X107362171Y-105207707D01*
X107383942Y-105160051D01*
X107383942Y-105064741D01*
X107362171Y-105017086D01*
X107340400Y-104993258D01*
X107296857Y-104969430D01*
X108037085Y-104239362D02*
X107884685Y-104001086D01*
X107775828Y-104239362D02*
X107775828Y-103738982D01*
X107950000Y-103738982D01*
X107993542Y-103762810D01*
X108015314Y-103786637D01*
X108037085Y-103834292D01*
X108037085Y-103905775D01*
X108015314Y-103953430D01*
X107993542Y-103977258D01*
X107950000Y-104001086D01*
X107775828Y-104001086D01*
X108428971Y-103905775D02*
X108428971Y-104239362D01*
X108320114Y-103715154D02*
X108211257Y-104072569D01*
X108494285Y-104072569D01*
X108690228Y-104239362D02*
X108777314Y-104239362D01*
X108820857Y-104215534D01*
X108842628Y-104191707D01*
X108886171Y-104120224D01*
X108907942Y-104024913D01*
X108907942Y-103834292D01*
X108886171Y-103786637D01*
X108864400Y-103762810D01*
X108820857Y-103738982D01*
X108733771Y-103738982D01*
X108690228Y-103762810D01*
X108668457Y-103786637D01*
X108646685Y-103834292D01*
X108646685Y-103953430D01*
X108668457Y-104001086D01*
X108690228Y-104024913D01*
X108733771Y-104048741D01*
X108820857Y-104048741D01*
X108864400Y-104024913D01*
X108886171Y-104001086D01*
X108907942Y-103953430D01*
X109688085Y-105255362D02*
X109535685Y-105017086D01*
X109426828Y-105255362D02*
X109426828Y-104754982D01*
X109601000Y-104754982D01*
X109644542Y-104778810D01*
X109666314Y-104802637D01*
X109688085Y-104850292D01*
X109688085Y-104921775D01*
X109666314Y-104969430D01*
X109644542Y-104993258D01*
X109601000Y-105017086D01*
X109426828Y-105017086D01*
X110101742Y-104754982D02*
X109884028Y-104754982D01*
X109862257Y-104993258D01*
X109884028Y-104969430D01*
X109927571Y-104945603D01*
X110036428Y-104945603D01*
X110079971Y-104969430D01*
X110101742Y-104993258D01*
X110123514Y-105040913D01*
X110123514Y-105160051D01*
X110101742Y-105207707D01*
X110079971Y-105231534D01*
X110036428Y-105255362D01*
X109927571Y-105255362D01*
X109884028Y-105231534D01*
X109862257Y-105207707D01*
X110406542Y-104754982D02*
X110450085Y-104754982D01*
X110493628Y-104778810D01*
X110515400Y-104802637D01*
X110537171Y-104850292D01*
X110558942Y-104945603D01*
X110558942Y-105064741D01*
X110537171Y-105160051D01*
X110515400Y-105207707D01*
X110493628Y-105231534D01*
X110450085Y-105255362D01*
X110406542Y-105255362D01*
X110363000Y-105231534D01*
X110341228Y-105207707D01*
X110319457Y-105160051D01*
X110297685Y-105064741D01*
X110297685Y-104945603D01*
X110319457Y-104850292D01*
X110341228Y-104802637D01*
X110363000Y-104778810D01*
X110406542Y-104754982D01*
X111085085Y-104239362D02*
X110932685Y-104001086D01*
X110823828Y-104239362D02*
X110823828Y-103738982D01*
X110998000Y-103738982D01*
X111041542Y-103762810D01*
X111063314Y-103786637D01*
X111085085Y-103834292D01*
X111085085Y-103905775D01*
X111063314Y-103953430D01*
X111041542Y-103977258D01*
X110998000Y-104001086D01*
X110823828Y-104001086D01*
X111498742Y-103738982D02*
X111281028Y-103738982D01*
X111259257Y-103977258D01*
X111281028Y-103953430D01*
X111324571Y-103929603D01*
X111433428Y-103929603D01*
X111476971Y-103953430D01*
X111498742Y-103977258D01*
X111520514Y-104024913D01*
X111520514Y-104144051D01*
X111498742Y-104191707D01*
X111476971Y-104215534D01*
X111433428Y-104239362D01*
X111324571Y-104239362D01*
X111281028Y-104215534D01*
X111259257Y-104191707D01*
X111955942Y-104239362D02*
X111694685Y-104239362D01*
X111825314Y-104239362D02*
X111825314Y-103738982D01*
X111781771Y-103810465D01*
X111738228Y-103858120D01*
X111694685Y-103881948D01*
X85586371Y-126168362D02*
X85433971Y-125930086D01*
X85325114Y-126168362D02*
X85325114Y-125667982D01*
X85499285Y-125667982D01*
X85542828Y-125691810D01*
X85564600Y-125715637D01*
X85586371Y-125763292D01*
X85586371Y-125834775D01*
X85564600Y-125882430D01*
X85542828Y-125906258D01*
X85499285Y-125930086D01*
X85325114Y-125930086D01*
X86021800Y-126168362D02*
X85760542Y-126168362D01*
X85891171Y-126168362D02*
X85891171Y-125667982D01*
X85847628Y-125739465D01*
X85804085Y-125787120D01*
X85760542Y-125810948D01*
X86304828Y-125667982D02*
X86348371Y-125667982D01*
X86391914Y-125691810D01*
X86413685Y-125715637D01*
X86435457Y-125763292D01*
X86457228Y-125858603D01*
X86457228Y-125977741D01*
X86435457Y-126073051D01*
X86413685Y-126120707D01*
X86391914Y-126144534D01*
X86348371Y-126168362D01*
X86304828Y-126168362D01*
X86261285Y-126144534D01*
X86239514Y-126120707D01*
X86217742Y-126073051D01*
X86195971Y-125977741D01*
X86195971Y-125858603D01*
X86217742Y-125763292D01*
X86239514Y-125715637D01*
X86261285Y-125691810D01*
X86304828Y-125667982D01*
X86609628Y-125667982D02*
X86892657Y-125667982D01*
X86740257Y-125858603D01*
X86805571Y-125858603D01*
X86849114Y-125882430D01*
X86870885Y-125906258D01*
X86892657Y-125953913D01*
X86892657Y-126073051D01*
X86870885Y-126120707D01*
X86849114Y-126144534D01*
X86805571Y-126168362D01*
X86674942Y-126168362D01*
X86631400Y-126144534D01*
X86609628Y-126120707D01*
X87880371Y-126575362D02*
X87727971Y-126337086D01*
X87619114Y-126575362D02*
X87619114Y-126074982D01*
X87793285Y-126074982D01*
X87836828Y-126098810D01*
X87858600Y-126122637D01*
X87880371Y-126170292D01*
X87880371Y-126241775D01*
X87858600Y-126289430D01*
X87836828Y-126313258D01*
X87793285Y-126337086D01*
X87619114Y-126337086D01*
X88315800Y-126575362D02*
X88054542Y-126575362D01*
X88185171Y-126575362D02*
X88185171Y-126074982D01*
X88141628Y-126146465D01*
X88098085Y-126194120D01*
X88054542Y-126217948D01*
X88598828Y-126074982D02*
X88642371Y-126074982D01*
X88685914Y-126098810D01*
X88707685Y-126122637D01*
X88729457Y-126170292D01*
X88751228Y-126265603D01*
X88751228Y-126384741D01*
X88729457Y-126480051D01*
X88707685Y-126527707D01*
X88685914Y-126551534D01*
X88642371Y-126575362D01*
X88598828Y-126575362D01*
X88555285Y-126551534D01*
X88533514Y-126527707D01*
X88511742Y-126480051D01*
X88489971Y-126384741D01*
X88489971Y-126265603D01*
X88511742Y-126170292D01*
X88533514Y-126122637D01*
X88555285Y-126098810D01*
X88598828Y-126074982D01*
X89143114Y-126241775D02*
X89143114Y-126575362D01*
X89034257Y-126051154D02*
X88925400Y-126408569D01*
X89208428Y-126408569D01*
X87983362Y-122812628D02*
X87745086Y-122965028D01*
X87983362Y-123073885D02*
X87482982Y-123073885D01*
X87482982Y-122899714D01*
X87506810Y-122856171D01*
X87530637Y-122834400D01*
X87578292Y-122812628D01*
X87649775Y-122812628D01*
X87697430Y-122834400D01*
X87721258Y-122856171D01*
X87745086Y-122899714D01*
X87745086Y-123073885D01*
X87649775Y-122420742D02*
X87983362Y-122420742D01*
X87459154Y-122529600D02*
X87816569Y-122638457D01*
X87816569Y-122355428D01*
X87482982Y-122094171D02*
X87482982Y-122050628D01*
X87506810Y-122007085D01*
X87530637Y-121985314D01*
X87578292Y-121963542D01*
X87673603Y-121941771D01*
X87792741Y-121941771D01*
X87888051Y-121963542D01*
X87935707Y-121985314D01*
X87959534Y-122007085D01*
X87983362Y-122050628D01*
X87983362Y-122094171D01*
X87959534Y-122137714D01*
X87935707Y-122159485D01*
X87888051Y-122181257D01*
X87792741Y-122203028D01*
X87673603Y-122203028D01*
X87578292Y-122181257D01*
X87530637Y-122159485D01*
X87506810Y-122137714D01*
X87482982Y-122094171D01*
X87983362Y-121506342D02*
X87983362Y-121767600D01*
X87983362Y-121636971D02*
X87482982Y-121636971D01*
X87554465Y-121680514D01*
X87602120Y-121724057D01*
X87625948Y-121767600D01*
D15*
X84400000Y-133416666D02*
X84400000Y-133983333D01*
X84433333Y-134050000D01*
X84466666Y-134083333D01*
X84533333Y-134116666D01*
X84666666Y-134116666D01*
X84733333Y-134083333D01*
X84766666Y-134050000D01*
X84800000Y-133983333D01*
X84800000Y-133416666D01*
X85433333Y-133650000D02*
X85433333Y-134116666D01*
X85266666Y-133383333D02*
X85100000Y-133883333D01*
X85533333Y-133883333D01*
X85933333Y-133416666D02*
X86000000Y-133416666D01*
X86066666Y-133450000D01*
X86100000Y-133483333D01*
X86133333Y-133550000D01*
X86166666Y-133683333D01*
X86166666Y-133850000D01*
X86133333Y-133983333D01*
X86100000Y-134050000D01*
X86066666Y-134083333D01*
X86000000Y-134116666D01*
X85933333Y-134116666D01*
X85866666Y-134083333D01*
X85833333Y-134050000D01*
X85800000Y-133983333D01*
X85766666Y-133850000D01*
X85766666Y-133683333D01*
X85800000Y-133550000D01*
X85833333Y-133483333D01*
X85866666Y-133450000D01*
X85933333Y-133416666D01*
X86833333Y-134116666D02*
X86433333Y-134116666D01*
X86633333Y-134116666D02*
X86633333Y-133416666D01*
X86566666Y-133516666D01*
X86500000Y-133583333D01*
X86433333Y-133616666D01*
D19*
X112195428Y-112757857D02*
X110671428Y-112757857D01*
X110671428Y-112177285D01*
X110744000Y-112032142D01*
X110816571Y-111959571D01*
X110961714Y-111887000D01*
X111179428Y-111887000D01*
X111324571Y-111959571D01*
X111397142Y-112032142D01*
X111469714Y-112177285D01*
X111469714Y-112757857D01*
X110671428Y-111379000D02*
X110671428Y-110435571D01*
X111252000Y-110943571D01*
X111252000Y-110725857D01*
X111324571Y-110580714D01*
X111397142Y-110508142D01*
X111542285Y-110435571D01*
X111905142Y-110435571D01*
X112050285Y-110508142D01*
X112122857Y-110580714D01*
X112195428Y-110725857D01*
X112195428Y-111161285D01*
X112122857Y-111306428D01*
X112050285Y-111379000D01*
D21*
X92981428Y-133611628D02*
X93005619Y-133633400D01*
X93029809Y-133698714D01*
X93029809Y-133742257D01*
X93005619Y-133807571D01*
X92957238Y-133851114D01*
X92908857Y-133872885D01*
X92812095Y-133894657D01*
X92739523Y-133894657D01*
X92642761Y-133872885D01*
X92594380Y-133851114D01*
X92546000Y-133807571D01*
X92521809Y-133742257D01*
X92521809Y-133698714D01*
X92546000Y-133633400D01*
X92570190Y-133611628D01*
X92691142Y-133219742D02*
X93029809Y-133219742D01*
X92497619Y-133328600D02*
X92860476Y-133437457D01*
X92860476Y-133154428D01*
X92521809Y-132893171D02*
X92521809Y-132849628D01*
X92546000Y-132806085D01*
X92570190Y-132784314D01*
X92618571Y-132762542D01*
X92715333Y-132740771D01*
X92836285Y-132740771D01*
X92933047Y-132762542D01*
X92981428Y-132784314D01*
X93005619Y-132806085D01*
X93029809Y-132849628D01*
X93029809Y-132893171D01*
X93005619Y-132936714D01*
X92981428Y-132958485D01*
X92933047Y-132980257D01*
X92836285Y-133002028D01*
X92715333Y-133002028D01*
X92618571Y-132980257D01*
X92570190Y-132958485D01*
X92546000Y-132936714D01*
X92521809Y-132893171D01*
X93029809Y-132305342D02*
X93029809Y-132566600D01*
X93029809Y-132435971D02*
X92521809Y-132435971D01*
X92594380Y-132479514D01*
X92642761Y-132523057D01*
X92666952Y-132566600D01*
X113084428Y-126785914D02*
X113108619Y-126807685D01*
X113132809Y-126873000D01*
X113132809Y-126916542D01*
X113108619Y-126981857D01*
X113060238Y-127025400D01*
X113011857Y-127047171D01*
X112915095Y-127068942D01*
X112842523Y-127068942D01*
X112745761Y-127047171D01*
X112697380Y-127025400D01*
X112649000Y-126981857D01*
X112624809Y-126916542D01*
X112624809Y-126873000D01*
X112649000Y-126807685D01*
X112673190Y-126785914D01*
X112794142Y-126394028D02*
X113132809Y-126394028D01*
X112600619Y-126502885D02*
X112963476Y-126611742D01*
X112963476Y-126328714D01*
X113132809Y-125915057D02*
X113132809Y-126176314D01*
X113132809Y-126045685D02*
X112624809Y-126045685D01*
X112697380Y-126089228D01*
X112745761Y-126132771D01*
X112769952Y-126176314D01*
X110206085Y-110081428D02*
X110184314Y-110105619D01*
X110119000Y-110129809D01*
X110075457Y-110129809D01*
X110010142Y-110105619D01*
X109966600Y-110057238D01*
X109944828Y-110008857D01*
X109923057Y-109912095D01*
X109923057Y-109839523D01*
X109944828Y-109742761D01*
X109966600Y-109694380D01*
X110010142Y-109646000D01*
X110075457Y-109621809D01*
X110119000Y-109621809D01*
X110184314Y-109646000D01*
X110206085Y-109670190D01*
X110358485Y-109621809D02*
X110641514Y-109621809D01*
X110489114Y-109815333D01*
X110554428Y-109815333D01*
X110597971Y-109839523D01*
X110619742Y-109863714D01*
X110641514Y-109912095D01*
X110641514Y-110033047D01*
X110619742Y-110081428D01*
X110597971Y-110105619D01*
X110554428Y-110129809D01*
X110423800Y-110129809D01*
X110380257Y-110105619D01*
X110358485Y-110081428D01*
X111033400Y-109621809D02*
X110946314Y-109621809D01*
X110902771Y-109646000D01*
X110881000Y-109670190D01*
X110837457Y-109742761D01*
X110815685Y-109839523D01*
X110815685Y-110033047D01*
X110837457Y-110081428D01*
X110859228Y-110105619D01*
X110902771Y-110129809D01*
X110989857Y-110129809D01*
X111033400Y-110105619D01*
X111055171Y-110081428D01*
X111076942Y-110033047D01*
X111076942Y-109912095D01*
X111055171Y-109863714D01*
X111033400Y-109839523D01*
X110989857Y-109815333D01*
X110902771Y-109815333D01*
X110859228Y-109839523D01*
X110837457Y-109863714D01*
X110815685Y-109912095D01*
X95106085Y-138581428D02*
X95084314Y-138605619D01*
X95019000Y-138629809D01*
X94975457Y-138629809D01*
X94910142Y-138605619D01*
X94866600Y-138557238D01*
X94844828Y-138508857D01*
X94823057Y-138412095D01*
X94823057Y-138339523D01*
X94844828Y-138242761D01*
X94866600Y-138194380D01*
X94910142Y-138146000D01*
X94975457Y-138121809D01*
X95019000Y-138121809D01*
X95084314Y-138146000D01*
X95106085Y-138170190D01*
X95258485Y-138121809D02*
X95541514Y-138121809D01*
X95389114Y-138315333D01*
X95454428Y-138315333D01*
X95497971Y-138339523D01*
X95519742Y-138363714D01*
X95541514Y-138412095D01*
X95541514Y-138533047D01*
X95519742Y-138581428D01*
X95497971Y-138605619D01*
X95454428Y-138629809D01*
X95323800Y-138629809D01*
X95280257Y-138605619D01*
X95258485Y-138581428D01*
X95955171Y-138121809D02*
X95737457Y-138121809D01*
X95715685Y-138363714D01*
X95737457Y-138339523D01*
X95781000Y-138315333D01*
X95889857Y-138315333D01*
X95933400Y-138339523D01*
X95955171Y-138363714D01*
X95976942Y-138412095D01*
X95976942Y-138533047D01*
X95955171Y-138581428D01*
X95933400Y-138605619D01*
X95889857Y-138629809D01*
X95781000Y-138629809D01*
X95737457Y-138605619D01*
X95715685Y-138581428D01*
X107406085Y-109981428D02*
X107384314Y-110005619D01*
X107319000Y-110029809D01*
X107275457Y-110029809D01*
X107210142Y-110005619D01*
X107166600Y-109957238D01*
X107144828Y-109908857D01*
X107123057Y-109812095D01*
X107123057Y-109739523D01*
X107144828Y-109642761D01*
X107166600Y-109594380D01*
X107210142Y-109546000D01*
X107275457Y-109521809D01*
X107319000Y-109521809D01*
X107384314Y-109546000D01*
X107406085Y-109570190D01*
X107558485Y-109521809D02*
X107841514Y-109521809D01*
X107689114Y-109715333D01*
X107754428Y-109715333D01*
X107797971Y-109739523D01*
X107819742Y-109763714D01*
X107841514Y-109812095D01*
X107841514Y-109933047D01*
X107819742Y-109981428D01*
X107797971Y-110005619D01*
X107754428Y-110029809D01*
X107623800Y-110029809D01*
X107580257Y-110005619D01*
X107558485Y-109981428D01*
X108233400Y-109691142D02*
X108233400Y-110029809D01*
X108124542Y-109497619D02*
X108015685Y-109860476D01*
X108298714Y-109860476D01*
X103846085Y-109401428D02*
X103824314Y-109425619D01*
X103759000Y-109449809D01*
X103715457Y-109449809D01*
X103650142Y-109425619D01*
X103606600Y-109377238D01*
X103584828Y-109328857D01*
X103563057Y-109232095D01*
X103563057Y-109159523D01*
X103584828Y-109062761D01*
X103606600Y-109014380D01*
X103650142Y-108966000D01*
X103715457Y-108941809D01*
X103759000Y-108941809D01*
X103824314Y-108966000D01*
X103846085Y-108990190D01*
X103998485Y-108941809D02*
X104281514Y-108941809D01*
X104129114Y-109135333D01*
X104194428Y-109135333D01*
X104237971Y-109159523D01*
X104259742Y-109183714D01*
X104281514Y-109232095D01*
X104281514Y-109353047D01*
X104259742Y-109401428D01*
X104237971Y-109425619D01*
X104194428Y-109449809D01*
X104063800Y-109449809D01*
X104020257Y-109425619D01*
X103998485Y-109401428D01*
X104564542Y-108941809D02*
X104608085Y-108941809D01*
X104651628Y-108966000D01*
X104673400Y-108990190D01*
X104695171Y-109038571D01*
X104716942Y-109135333D01*
X104716942Y-109256285D01*
X104695171Y-109353047D01*
X104673400Y-109401428D01*
X104651628Y-109425619D01*
X104608085Y-109449809D01*
X104564542Y-109449809D01*
X104521000Y-109425619D01*
X104499228Y-109401428D01*
X104477457Y-109353047D01*
X104455685Y-109256285D01*
X104455685Y-109135333D01*
X104477457Y-109038571D01*
X104499228Y-108990190D01*
X104521000Y-108966000D01*
X104564542Y-108941809D01*
X101433085Y-106734428D02*
X101411314Y-106758619D01*
X101346000Y-106782809D01*
X101302457Y-106782809D01*
X101237142Y-106758619D01*
X101193600Y-106710238D01*
X101171828Y-106661857D01*
X101150057Y-106565095D01*
X101150057Y-106492523D01*
X101171828Y-106395761D01*
X101193600Y-106347380D01*
X101237142Y-106299000D01*
X101302457Y-106274809D01*
X101346000Y-106274809D01*
X101411314Y-106299000D01*
X101433085Y-106323190D01*
X101607257Y-106323190D02*
X101629028Y-106299000D01*
X101672571Y-106274809D01*
X101781428Y-106274809D01*
X101824971Y-106299000D01*
X101846742Y-106323190D01*
X101868514Y-106371571D01*
X101868514Y-106419952D01*
X101846742Y-106492523D01*
X101585485Y-106782809D01*
X101868514Y-106782809D01*
X102086228Y-106782809D02*
X102173314Y-106782809D01*
X102216857Y-106758619D01*
X102238628Y-106734428D01*
X102282171Y-106661857D01*
X102303942Y-106565095D01*
X102303942Y-106371571D01*
X102282171Y-106323190D01*
X102260400Y-106299000D01*
X102216857Y-106274809D01*
X102129771Y-106274809D01*
X102086228Y-106299000D01*
X102064457Y-106323190D01*
X102042685Y-106371571D01*
X102042685Y-106492523D01*
X102064457Y-106540904D01*
X102086228Y-106565095D01*
X102129771Y-106589285D01*
X102216857Y-106589285D01*
X102260400Y-106565095D01*
X102282171Y-106540904D01*
X102303942Y-106492523D01*
X99147085Y-110036428D02*
X99125314Y-110060619D01*
X99060000Y-110084809D01*
X99016457Y-110084809D01*
X98951142Y-110060619D01*
X98907600Y-110012238D01*
X98885828Y-109963857D01*
X98864057Y-109867095D01*
X98864057Y-109794523D01*
X98885828Y-109697761D01*
X98907600Y-109649380D01*
X98951142Y-109601000D01*
X99016457Y-109576809D01*
X99060000Y-109576809D01*
X99125314Y-109601000D01*
X99147085Y-109625190D01*
X99321257Y-109625190D02*
X99343028Y-109601000D01*
X99386571Y-109576809D01*
X99495428Y-109576809D01*
X99538971Y-109601000D01*
X99560742Y-109625190D01*
X99582514Y-109673571D01*
X99582514Y-109721952D01*
X99560742Y-109794523D01*
X99299485Y-110084809D01*
X99582514Y-110084809D01*
X99843771Y-109794523D02*
X99800228Y-109770333D01*
X99778457Y-109746142D01*
X99756685Y-109697761D01*
X99756685Y-109673571D01*
X99778457Y-109625190D01*
X99800228Y-109601000D01*
X99843771Y-109576809D01*
X99930857Y-109576809D01*
X99974400Y-109601000D01*
X99996171Y-109625190D01*
X100017942Y-109673571D01*
X100017942Y-109697761D01*
X99996171Y-109746142D01*
X99974400Y-109770333D01*
X99930857Y-109794523D01*
X99843771Y-109794523D01*
X99800228Y-109818714D01*
X99778457Y-109842904D01*
X99756685Y-109891285D01*
X99756685Y-109988047D01*
X99778457Y-110036428D01*
X99800228Y-110060619D01*
X99843771Y-110084809D01*
X99930857Y-110084809D01*
X99974400Y-110060619D01*
X99996171Y-110036428D01*
X100017942Y-109988047D01*
X100017942Y-109891285D01*
X99996171Y-109842904D01*
X99974400Y-109818714D01*
X99930857Y-109794523D01*
X96099085Y-110798428D02*
X96077314Y-110822619D01*
X96012000Y-110846809D01*
X95968457Y-110846809D01*
X95903142Y-110822619D01*
X95859600Y-110774238D01*
X95837828Y-110725857D01*
X95816057Y-110629095D01*
X95816057Y-110556523D01*
X95837828Y-110459761D01*
X95859600Y-110411380D01*
X95903142Y-110363000D01*
X95968457Y-110338809D01*
X96012000Y-110338809D01*
X96077314Y-110363000D01*
X96099085Y-110387190D01*
X96273257Y-110387190D02*
X96295028Y-110363000D01*
X96338571Y-110338809D01*
X96447428Y-110338809D01*
X96490971Y-110363000D01*
X96512742Y-110387190D01*
X96534514Y-110435571D01*
X96534514Y-110483952D01*
X96512742Y-110556523D01*
X96251485Y-110846809D01*
X96534514Y-110846809D01*
X96686914Y-110338809D02*
X96991714Y-110338809D01*
X96795771Y-110846809D01*
X109306085Y-120981428D02*
X109284314Y-121005619D01*
X109219000Y-121029809D01*
X109175457Y-121029809D01*
X109110142Y-121005619D01*
X109066600Y-120957238D01*
X109044828Y-120908857D01*
X109023057Y-120812095D01*
X109023057Y-120739523D01*
X109044828Y-120642761D01*
X109066600Y-120594380D01*
X109110142Y-120546000D01*
X109175457Y-120521809D01*
X109219000Y-120521809D01*
X109284314Y-120546000D01*
X109306085Y-120570190D01*
X109480257Y-120570190D02*
X109502028Y-120546000D01*
X109545571Y-120521809D01*
X109654428Y-120521809D01*
X109697971Y-120546000D01*
X109719742Y-120570190D01*
X109741514Y-120618571D01*
X109741514Y-120666952D01*
X109719742Y-120739523D01*
X109458485Y-121029809D01*
X109741514Y-121029809D01*
X109893914Y-120521809D02*
X110176942Y-120521809D01*
X110024542Y-120715333D01*
X110089857Y-120715333D01*
X110133400Y-120739523D01*
X110155171Y-120763714D01*
X110176942Y-120812095D01*
X110176942Y-120933047D01*
X110155171Y-120981428D01*
X110133400Y-121005619D01*
X110089857Y-121029809D01*
X109959228Y-121029809D01*
X109915685Y-121005619D01*
X109893914Y-120981428D01*
X101906085Y-121681428D02*
X101884314Y-121705619D01*
X101819000Y-121729809D01*
X101775457Y-121729809D01*
X101710142Y-121705619D01*
X101666600Y-121657238D01*
X101644828Y-121608857D01*
X101623057Y-121512095D01*
X101623057Y-121439523D01*
X101644828Y-121342761D01*
X101666600Y-121294380D01*
X101710142Y-121246000D01*
X101775457Y-121221809D01*
X101819000Y-121221809D01*
X101884314Y-121246000D01*
X101906085Y-121270190D01*
X102080257Y-121270190D02*
X102102028Y-121246000D01*
X102145571Y-121221809D01*
X102254428Y-121221809D01*
X102297971Y-121246000D01*
X102319742Y-121270190D01*
X102341514Y-121318571D01*
X102341514Y-121366952D01*
X102319742Y-121439523D01*
X102058485Y-121729809D01*
X102341514Y-121729809D01*
X102515685Y-121270190D02*
X102537457Y-121246000D01*
X102581000Y-121221809D01*
X102689857Y-121221809D01*
X102733400Y-121246000D01*
X102755171Y-121270190D01*
X102776942Y-121318571D01*
X102776942Y-121366952D01*
X102755171Y-121439523D01*
X102493914Y-121729809D01*
X102776942Y-121729809D01*
X92606085Y-121481428D02*
X92584314Y-121505619D01*
X92519000Y-121529809D01*
X92475457Y-121529809D01*
X92410142Y-121505619D01*
X92366600Y-121457238D01*
X92344828Y-121408857D01*
X92323057Y-121312095D01*
X92323057Y-121239523D01*
X92344828Y-121142761D01*
X92366600Y-121094380D01*
X92410142Y-121046000D01*
X92475457Y-121021809D01*
X92519000Y-121021809D01*
X92584314Y-121046000D01*
X92606085Y-121070190D01*
X92780257Y-121070190D02*
X92802028Y-121046000D01*
X92845571Y-121021809D01*
X92954428Y-121021809D01*
X92997971Y-121046000D01*
X93019742Y-121070190D01*
X93041514Y-121118571D01*
X93041514Y-121166952D01*
X93019742Y-121239523D01*
X92758485Y-121529809D01*
X93041514Y-121529809D01*
X93476942Y-121529809D02*
X93215685Y-121529809D01*
X93346314Y-121529809D02*
X93346314Y-121021809D01*
X93302771Y-121094380D01*
X93259228Y-121142761D01*
X93215685Y-121166952D01*
X95006085Y-121281428D02*
X94984314Y-121305619D01*
X94919000Y-121329809D01*
X94875457Y-121329809D01*
X94810142Y-121305619D01*
X94766600Y-121257238D01*
X94744828Y-121208857D01*
X94723057Y-121112095D01*
X94723057Y-121039523D01*
X94744828Y-120942761D01*
X94766600Y-120894380D01*
X94810142Y-120846000D01*
X94875457Y-120821809D01*
X94919000Y-120821809D01*
X94984314Y-120846000D01*
X95006085Y-120870190D01*
X95441514Y-121329809D02*
X95180257Y-121329809D01*
X95310885Y-121329809D02*
X95310885Y-120821809D01*
X95267342Y-120894380D01*
X95223800Y-120942761D01*
X95180257Y-120966952D01*
X95659228Y-121329809D02*
X95746314Y-121329809D01*
X95789857Y-121305619D01*
X95811628Y-121281428D01*
X95855171Y-121208857D01*
X95876942Y-121112095D01*
X95876942Y-120918571D01*
X95855171Y-120870190D01*
X95833400Y-120846000D01*
X95789857Y-120821809D01*
X95702771Y-120821809D01*
X95659228Y-120846000D01*
X95637457Y-120870190D01*
X95615685Y-120918571D01*
X95615685Y-121039523D01*
X95637457Y-121087904D01*
X95659228Y-121112095D01*
X95702771Y-121136285D01*
X95789857Y-121136285D01*
X95833400Y-121112095D01*
X95855171Y-121087904D01*
X95876942Y-121039523D01*
X92129428Y-127547914D02*
X92153619Y-127569685D01*
X92177809Y-127635000D01*
X92177809Y-127678542D01*
X92153619Y-127743857D01*
X92105238Y-127787400D01*
X92056857Y-127809171D01*
X91960095Y-127830942D01*
X91887523Y-127830942D01*
X91790761Y-127809171D01*
X91742380Y-127787400D01*
X91694000Y-127743857D01*
X91669809Y-127678542D01*
X91669809Y-127635000D01*
X91694000Y-127569685D01*
X91718190Y-127547914D01*
X92177809Y-127112485D02*
X92177809Y-127373742D01*
X92177809Y-127243114D02*
X91669809Y-127243114D01*
X91742380Y-127286657D01*
X91790761Y-127330200D01*
X91814952Y-127373742D01*
X91669809Y-126960085D02*
X91669809Y-126677057D01*
X91863333Y-126829457D01*
X91863333Y-126764142D01*
X91887523Y-126720600D01*
X91911714Y-126698828D01*
X91960095Y-126677057D01*
X92081047Y-126677057D01*
X92129428Y-126698828D01*
X92153619Y-126720600D01*
X92177809Y-126764142D01*
X92177809Y-126894771D01*
X92153619Y-126938314D01*
X92129428Y-126960085D01*
X98206085Y-121181428D02*
X98184314Y-121205619D01*
X98119000Y-121229809D01*
X98075457Y-121229809D01*
X98010142Y-121205619D01*
X97966600Y-121157238D01*
X97944828Y-121108857D01*
X97923057Y-121012095D01*
X97923057Y-120939523D01*
X97944828Y-120842761D01*
X97966600Y-120794380D01*
X98010142Y-120746000D01*
X98075457Y-120721809D01*
X98119000Y-120721809D01*
X98184314Y-120746000D01*
X98206085Y-120770190D01*
X98641514Y-121229809D02*
X98380257Y-121229809D01*
X98510885Y-121229809D02*
X98510885Y-120721809D01*
X98467342Y-120794380D01*
X98423800Y-120842761D01*
X98380257Y-120866952D01*
X98815685Y-120770190D02*
X98837457Y-120746000D01*
X98881000Y-120721809D01*
X98989857Y-120721809D01*
X99033400Y-120746000D01*
X99055171Y-120770190D01*
X99076942Y-120818571D01*
X99076942Y-120866952D01*
X99055171Y-120939523D01*
X98793914Y-121229809D01*
X99076942Y-121229809D01*
X111620460Y-134036118D02*
X111622171Y-134068618D01*
X111593092Y-134131907D01*
X111562302Y-134162697D01*
X111499013Y-134191775D01*
X111434013Y-134188354D01*
X111384408Y-134169539D01*
X111300592Y-134116512D01*
X111249276Y-134065197D01*
X111196250Y-133981381D01*
X111177434Y-133931776D01*
X111174013Y-133866776D01*
X111203092Y-133803486D01*
X111233881Y-133772697D01*
X111297171Y-133743618D01*
X111329671Y-133745328D01*
X111962565Y-133762434D02*
X111777828Y-133947170D01*
X111870197Y-133854802D02*
X111510986Y-133495592D01*
X111531513Y-133577697D01*
X111534934Y-133642697D01*
X111521250Y-133690592D01*
X112270460Y-133454539D02*
X112085723Y-133639276D01*
X112178091Y-133546908D02*
X111818881Y-133187697D01*
X111839407Y-133269802D01*
X111842828Y-133334802D01*
X111829144Y-133382697D01*
X107381428Y-126393914D02*
X107405619Y-126415685D01*
X107429809Y-126481000D01*
X107429809Y-126524542D01*
X107405619Y-126589857D01*
X107357238Y-126633400D01*
X107308857Y-126655171D01*
X107212095Y-126676942D01*
X107139523Y-126676942D01*
X107042761Y-126655171D01*
X106994380Y-126633400D01*
X106946000Y-126589857D01*
X106921809Y-126524542D01*
X106921809Y-126481000D01*
X106946000Y-126415685D01*
X106970190Y-126393914D01*
X107429809Y-125958485D02*
X107429809Y-126219742D01*
X107429809Y-126089114D02*
X106921809Y-126089114D01*
X106994380Y-126132657D01*
X107042761Y-126176200D01*
X107066952Y-126219742D01*
X106921809Y-125675457D02*
X106921809Y-125631914D01*
X106946000Y-125588371D01*
X106970190Y-125566600D01*
X107018571Y-125544828D01*
X107115333Y-125523057D01*
X107236285Y-125523057D01*
X107333047Y-125544828D01*
X107381428Y-125566600D01*
X107405619Y-125588371D01*
X107429809Y-125631914D01*
X107429809Y-125675457D01*
X107405619Y-125719000D01*
X107381428Y-125740771D01*
X107333047Y-125762542D01*
X107236285Y-125784314D01*
X107115333Y-125784314D01*
X107018571Y-125762542D01*
X106970190Y-125740771D01*
X106946000Y-125719000D01*
X106921809Y-125675457D01*
%LPC*%
D22*
X80463500Y-127958500D03*
D23*
X82613500Y-130758500D03*
X82613500Y-125158500D03*
D24*
X82363500Y-126658500D03*
X82363500Y-129258500D03*
X82363500Y-127308500D03*
X82363500Y-128608500D03*
X82363500Y-127958500D03*
D25*
X90805000Y-137160000D03*
X88265000Y-137160000D03*
X85725000Y-137160000D03*
X83185000Y-137160000D03*
D26*
X80645000Y-137160000D03*
X80645000Y-119888000D03*
D25*
X80645000Y-117348000D03*
X80645000Y-114808000D03*
X80645000Y-112268000D03*
D26*
X80645000Y-105918000D03*
D25*
X83185000Y-105918000D03*
X80645000Y-103378000D03*
X83185000Y-103378000D03*
D26*
X95885000Y-105918000D03*
D25*
X98425000Y-105918000D03*
X95885000Y-103378000D03*
X98425000Y-103378000D03*
D26*
X108331000Y-78105000D03*
D25*
X110871000Y-78105000D03*
X108331000Y-75565000D03*
X110871000Y-75565000D03*
D26*
X83820000Y-78105000D03*
D25*
X86360000Y-78105000D03*
X83820000Y-75565000D03*
X86360000Y-75565000D03*
X98933000Y-75565000D03*
X96393000Y-75565000D03*
X98933000Y-78105000D03*
D26*
X96393000Y-78105000D03*
D27*
X114300000Y-126253240D03*
X114300000Y-128254760D03*
X114300000Y-130253740D03*
X114300000Y-132255260D03*
X114300000Y-124254260D03*
X114300000Y-122252740D03*
D28*
X84709000Y-92006420D03*
D29*
X88519000Y-81404460D03*
X87249000Y-81404460D03*
X85979000Y-81404460D03*
X83439000Y-81404460D03*
X82169000Y-81404460D03*
X80899000Y-81404460D03*
D30*
X108712000Y-136398000D03*
X111252000Y-136398000D03*
X113792000Y-136398000D03*
D31*
X92000000Y-77000000D03*
X103500000Y-77000000D03*
D32*
X93472000Y-99822000D03*
X88320880Y-99822000D03*
D33*
X91399360Y-115062000D03*
X86400640Y-115062000D03*
D34*
X85090000Y-76962000D03*
X97790000Y-76962000D03*
X109474000Y-76962000D03*
D28*
X110744000Y-92006420D03*
D29*
X114554000Y-81404460D03*
X113284000Y-81404460D03*
X112014000Y-81404460D03*
X109474000Y-81404460D03*
X108204000Y-81404460D03*
X106934000Y-81404460D03*
D28*
X97917000Y-92006420D03*
D29*
X101727000Y-81404460D03*
X100457000Y-81404460D03*
X99187000Y-81404460D03*
X96647000Y-81404460D03*
X95377000Y-81404460D03*
X94107000Y-81404460D03*
D35*
X98587560Y-136814560D03*
X99087940Y-136814560D03*
X99588320Y-136814560D03*
X100088700Y-136814560D03*
X100589080Y-136814560D03*
X97088960Y-136814560D03*
X97586800Y-136814560D03*
X98087180Y-136814560D03*
D36*
X106588560Y-134813040D03*
X106588560Y-134315200D03*
X106588560Y-133814820D03*
X106588560Y-133314440D03*
X106588560Y-132814060D03*
X106588560Y-132313680D03*
X106588560Y-131813300D03*
X106588560Y-131312920D03*
D35*
X104587040Y-125313440D03*
X104089200Y-125313440D03*
X103588820Y-125313440D03*
X103088440Y-125313440D03*
X102588060Y-125313440D03*
X102087680Y-125313440D03*
X101587300Y-125313440D03*
X101086920Y-125313440D03*
D36*
X95087440Y-127314960D03*
X95087440Y-127812800D03*
X95087440Y-128313180D03*
X95087440Y-128813560D03*
X95087440Y-129313940D03*
X95087440Y-129814320D03*
X95087440Y-130314700D03*
X95087440Y-130815080D03*
D35*
X101086920Y-136814560D03*
X101587300Y-136814560D03*
X102087680Y-136814560D03*
D36*
X106588560Y-130815080D03*
X106588560Y-130314700D03*
X106588560Y-129814320D03*
D35*
X100589080Y-125313440D03*
X100088700Y-125313440D03*
X99588320Y-125313440D03*
D36*
X95087440Y-131312920D03*
X95087440Y-131813300D03*
X95087440Y-132313680D03*
D35*
X102588060Y-136814560D03*
X103088440Y-136814560D03*
X103588820Y-136814560D03*
X104089200Y-136814560D03*
X104587040Y-136814560D03*
D36*
X106588560Y-129313940D03*
X106588560Y-128813560D03*
X106588560Y-128313180D03*
X106588560Y-127812800D03*
X106588560Y-127314960D03*
D35*
X99087940Y-125313440D03*
X98587560Y-125313440D03*
X98087180Y-125313440D03*
X97586800Y-125313440D03*
X97088960Y-125313440D03*
D36*
X95087440Y-132814060D03*
X95087440Y-133314440D03*
X95087440Y-133814820D03*
X95087440Y-134315200D03*
X95087440Y-134813040D03*
D37*
X104157780Y-111823500D03*
X103657400Y-111823500D03*
X103157020Y-111823500D03*
X102656640Y-111823500D03*
X102156260Y-111823500D03*
X101658420Y-111823500D03*
X101158040Y-111823500D03*
X100657660Y-111823500D03*
X100157280Y-111823500D03*
X99656900Y-111823500D03*
X99156520Y-111823500D03*
X108656120Y-111823500D03*
X108158280Y-111823500D03*
X107657900Y-111823500D03*
X103157020Y-119824500D03*
X106657140Y-111823500D03*
X106156760Y-111823500D03*
X105656380Y-111823500D03*
X105158540Y-111823500D03*
X104658160Y-111823500D03*
X100657660Y-119824500D03*
X101158040Y-119824500D03*
X101658420Y-119824500D03*
X102156260Y-119824500D03*
X102656640Y-119824500D03*
X107157520Y-111823500D03*
X103657400Y-119824500D03*
X104157780Y-119824500D03*
X104658160Y-119824500D03*
X105158540Y-119824500D03*
X105656380Y-119824500D03*
X106156760Y-119824500D03*
X106657140Y-119824500D03*
X95158560Y-119824500D03*
X95656400Y-119824500D03*
X96156780Y-119824500D03*
X96657160Y-119824500D03*
X97157540Y-119824500D03*
X97657920Y-119824500D03*
X98158300Y-119824500D03*
X98656140Y-119824500D03*
X99156520Y-119824500D03*
X99656900Y-119824500D03*
X100157280Y-119824500D03*
X107157520Y-119824500D03*
X107657900Y-119824500D03*
X108158280Y-119824500D03*
X108656120Y-119824500D03*
X98656140Y-111823500D03*
X98158300Y-111823500D03*
X97657920Y-111823500D03*
X97157540Y-111823500D03*
X96657160Y-111823500D03*
X96156780Y-111823500D03*
X95656400Y-111823500D03*
X95158560Y-111823500D03*
D38*
X101854000Y-115824000D03*
D31*
X114000000Y-142000000D03*
X81500000Y-142000000D03*
D39*
X97409000Y-100711000D03*
X100711000Y-100711000D03*
X97409000Y-98171000D03*
X100711000Y-98171000D03*
D40*
X110998000Y-117348000D03*
X110998000Y-114046000D03*
D41*
X114300000Y-102870000D03*
X115824000Y-102870000D03*
D42*
X111760000Y-129794000D03*
X111760000Y-128270000D03*
D41*
X86360000Y-120396000D03*
X87884000Y-120396000D03*
X88900000Y-120396000D03*
X90424000Y-120396000D03*
X94234000Y-123698000D03*
X95758000Y-123698000D03*
D42*
X97028000Y-121920000D03*
X97028000Y-123444000D03*
D41*
X92329000Y-110236000D03*
X93853000Y-110236000D03*
D42*
X114808000Y-78740000D03*
X114808000Y-77216000D03*
X104394000Y-83312000D03*
X104394000Y-84836000D03*
X91440000Y-82169000D03*
X91440000Y-83693000D03*
X106807000Y-105918000D03*
X106807000Y-107442000D03*
X108331000Y-105918000D03*
X108331000Y-107442000D03*
X109855000Y-105918000D03*
X109855000Y-107442000D03*
X111379000Y-105918000D03*
X111379000Y-107442000D03*
D41*
X89154000Y-125984000D03*
X87630000Y-125984000D03*
X89162000Y-127635000D03*
X87638000Y-127635000D03*
X86762000Y-122500000D03*
X85238000Y-122500000D03*
D43*
X86133000Y-132955000D03*
X91467000Y-132955000D03*
X86133000Y-131685000D03*
X86133000Y-130415000D03*
X86133000Y-129145000D03*
X91467000Y-131685000D03*
X91467000Y-130415000D03*
X91467000Y-129145000D03*
D44*
X114300000Y-118018560D03*
D45*
X114300000Y-114015520D03*
X114300000Y-116017040D03*
X114300000Y-112016540D03*
X114300000Y-110015020D03*
X114300000Y-108013500D03*
X114300000Y-106014520D03*
D42*
X93000000Y-130188000D03*
X93000000Y-131712000D03*
X111760000Y-125730000D03*
X111760000Y-127254000D03*
D41*
X109728000Y-108712000D03*
X111252000Y-108712000D03*
X94615000Y-137160000D03*
X96139000Y-137160000D03*
X106934000Y-108712000D03*
X108458000Y-108712000D03*
X104902000Y-108077000D03*
X103378000Y-108077000D03*
X102489000Y-105410000D03*
X100965000Y-105410000D03*
X100203000Y-108712000D03*
X98679000Y-108712000D03*
X97155000Y-109474000D03*
X95631000Y-109474000D03*
X110363000Y-121920000D03*
X108839000Y-121920000D03*
X101727000Y-122682000D03*
X103251000Y-122682000D03*
D42*
X92964000Y-122174000D03*
X92964000Y-123698000D03*
D41*
X94234000Y-122174000D03*
X95758000Y-122174000D03*
D42*
X93091000Y-128016000D03*
X93091000Y-126492000D03*
X98552000Y-123444000D03*
X98552000Y-121920000D03*
D46*
X110586185Y-133126815D03*
D10*
G36*
X110765790Y-133755433D02*
G01*
X109957567Y-132947210D01*
X110406580Y-132498197D01*
X111214803Y-133306420D01*
X110765790Y-133755433D01*
X110765790Y-133755433D01*
G37*
D46*
X111663815Y-132049185D03*
D10*
G36*
X111843420Y-132677803D02*
G01*
X111035197Y-131869580D01*
X111484210Y-131420567D01*
X112292433Y-132228790D01*
X111843420Y-132677803D01*
X111843420Y-132677803D01*
G37*
D42*
X108331000Y-125349000D03*
X108331000Y-126873000D03*
D47*
G36*
X100203000Y-78994000D02*
G01*
X100205440Y-79018776D01*
X100212667Y-79042601D01*
X100224330Y-79064447D01*
X100711000Y-79794452D01*
X100711000Y-82804000D01*
X93853000Y-82804000D01*
X93853000Y-79953967D01*
X95443560Y-78975161D01*
X95463383Y-78960097D01*
X95479885Y-78941456D01*
X95492434Y-78919953D01*
X95500546Y-78896416D01*
X95504000Y-78867000D01*
X95504000Y-75057000D01*
X100203000Y-75057000D01*
X100203000Y-78994000D01*
X100203000Y-78994000D01*
G37*
X100203000Y-78994000D02*
X100205440Y-79018776D01*
X100212667Y-79042601D01*
X100224330Y-79064447D01*
X100711000Y-79794452D01*
X100711000Y-82804000D01*
X93853000Y-82804000D01*
X93853000Y-79953967D01*
X95443560Y-78975161D01*
X95463383Y-78960097D01*
X95479885Y-78941456D01*
X95492434Y-78919953D01*
X95500546Y-78896416D01*
X95504000Y-78867000D01*
X95504000Y-75057000D01*
X100203000Y-75057000D01*
X100203000Y-78994000D01*
G36*
X111887000Y-78486000D02*
G01*
X111889440Y-78510776D01*
X111896667Y-78534601D01*
X111908403Y-78556557D01*
X111924197Y-78575803D01*
X111943553Y-78591670D01*
X112319969Y-78842614D01*
X113538000Y-79817039D01*
X113538000Y-82804000D01*
X106680000Y-82804000D01*
X106680000Y-79900008D01*
X107056525Y-78519416D01*
X107061000Y-78486000D01*
X107061000Y-75057000D01*
X111887000Y-75057000D01*
X111887000Y-78486000D01*
X111887000Y-78486000D01*
G37*
X111887000Y-78486000D02*
X111889440Y-78510776D01*
X111896667Y-78534601D01*
X111908403Y-78556557D01*
X111924197Y-78575803D01*
X111943553Y-78591670D01*
X112319969Y-78842614D01*
X113538000Y-79817039D01*
X113538000Y-82804000D01*
X106680000Y-82804000D01*
X106680000Y-79900008D01*
X107056525Y-78519416D01*
X107061000Y-78486000D01*
X107061000Y-75057000D01*
X111887000Y-75057000D01*
X111887000Y-78486000D01*
G36*
X87503000Y-82804000D02*
G01*
X80645000Y-82804000D01*
X80645000Y-79822805D01*
X82621949Y-78463653D01*
X82640984Y-78447606D01*
X82656521Y-78428153D01*
X82667966Y-78406043D01*
X82674877Y-78382125D01*
X82677000Y-78359000D01*
X82677000Y-75057000D01*
X87503000Y-75057000D01*
X87503000Y-82804000D01*
X87503000Y-82804000D01*
G37*
X87503000Y-82804000D02*
X80645000Y-82804000D01*
X80645000Y-79822805D01*
X82621949Y-78463653D01*
X82640984Y-78447606D01*
X82656521Y-78428153D01*
X82667966Y-78406043D01*
X82674877Y-78382125D01*
X82677000Y-78359000D01*
X82677000Y-75057000D01*
X87503000Y-75057000D01*
X87503000Y-82804000D01*
G36*
X94107000Y-95631000D02*
G01*
X92837000Y-95631000D01*
X92837000Y-94234000D01*
X92834560Y-94209224D01*
X92827333Y-94185399D01*
X92815597Y-94163443D01*
X92799803Y-94144197D01*
X92780557Y-94128403D01*
X92758601Y-94116667D01*
X92734776Y-94109440D01*
X92710000Y-94107000D01*
X90932000Y-94107000D01*
X90907224Y-94109440D01*
X90883399Y-94116667D01*
X90861443Y-94128403D01*
X90842197Y-94144197D01*
X89794398Y-95191996D01*
X89913829Y-88265000D01*
X94107000Y-88265000D01*
X94107000Y-95631000D01*
X94107000Y-95631000D01*
G37*
X94107000Y-95631000D02*
X92837000Y-95631000D01*
X92837000Y-94234000D01*
X92834560Y-94209224D01*
X92827333Y-94185399D01*
X92815597Y-94163443D01*
X92799803Y-94144197D01*
X92780557Y-94128403D01*
X92758601Y-94116667D01*
X92734776Y-94109440D01*
X92710000Y-94107000D01*
X90932000Y-94107000D01*
X90907224Y-94109440D01*
X90883399Y-94116667D01*
X90861443Y-94128403D01*
X90842197Y-94144197D01*
X89794398Y-95191996D01*
X89913829Y-88265000D01*
X94107000Y-88265000D01*
X94107000Y-95631000D01*
G36*
X106553000Y-94361000D02*
G01*
X103253566Y-94361000D01*
X103375486Y-88265000D01*
X106553000Y-88265000D01*
X106553000Y-94361000D01*
X106553000Y-94361000D01*
G37*
X106553000Y-94361000D02*
X103253566Y-94361000D01*
X103375486Y-88265000D01*
X106553000Y-88265000D01*
X106553000Y-94361000D01*
G36*
X88899105Y-102945289D02*
G01*
X84783394Y-107061000D01*
X79248000Y-107061000D01*
X79248000Y-95631000D01*
X88775134Y-95631000D01*
X88899105Y-102945289D01*
X88899105Y-102945289D01*
G37*
X88899105Y-102945289D02*
X84783394Y-107061000D01*
X79248000Y-107061000D01*
X79248000Y-95631000D01*
X88775134Y-95631000D01*
X88899105Y-102945289D01*
G36*
X97663000Y-101219000D02*
G01*
X97665440Y-101243776D01*
X97672667Y-101267601D01*
X97684403Y-101289557D01*
X97700197Y-101308803D01*
X99441000Y-103049606D01*
X99441000Y-107315000D01*
X94286606Y-107315000D01*
X92964000Y-105992394D01*
X92964000Y-97282000D01*
X97663000Y-97282000D01*
X97663000Y-101219000D01*
X97663000Y-101219000D01*
G37*
X97663000Y-101219000D02*
X97665440Y-101243776D01*
X97672667Y-101267601D01*
X97684403Y-101289557D01*
X97700197Y-101308803D01*
X99441000Y-103049606D01*
X99441000Y-107315000D01*
X94286606Y-107315000D01*
X92964000Y-105992394D01*
X92964000Y-97282000D01*
X97663000Y-97282000D01*
X97663000Y-101219000D01*
M02*
